<svg xmlns="http://www.w3.org/2000/svg" width="448.7" height="132.7"><path d="M42.6 0c9 0 11.9 6.5 14.3 13 1 2.7 24.5 67 25.2 69 .2.5.1 1.4-.8 1.7-.8.3-13 5.1-13.7 5.3-.7.3-1.4-.1-1.7-.8-.2-.7-5.3-14.7-5.9-16.3H25.2c-.6 1.6-5.7 15.6-5.9 16.3-.2.6-1 1.1-1.7.8-.7-.3-13-5-13.7-5.3-.7-.3-1-1.1-.8-1.7.9-2.4 24-65.7 25.2-69 2.4-6.4 5.3-13 14.3-13zM1.3 115c-.7 0-1.3.6-1.3 1.4v15c0 .7.6 1.3 1.3 1.3h82.6c.7 0 1.3-.6 1.3-1.3v-15c0-.7-.6-1.4-1.3-1.4H1.3m41.3-94L30.8 56.3h23.7L42.7 21h-.1zm307.3 51.8c0 4-2.2 6.6-6.3 6.6-1.6 0-2.9 0-5-.6v-12c.9-.2 2.8-.5 5-.4 4.2.2 6.3 2.1 6.3 6.4zm8.4-.6c0-7.4-4.3-12.5-13.5-12.5-2.2 0-3.8.2-6.2.8V49.8c1.5-.2 4.1-.4 6.9-.4 2.7 0 6.1.1 9.1.5l.2-6.2c-3.4-.8-8.3-1.2-12.1-1.2-3.8 0-9.6.9-12.4 1.7v39.4c4.3 1.6 8.6 2.3 12.9 2.3 9.9.1 15.1-5.2 15.1-13.7zm-94.9-2.1c0 5.5-2.2 9-5.8 9-1.5 0-2.3-.1-4-.6V62c1.9-.9 2.9-.9 4.4-.9 3.6 0 5.4 3 5.4 9m-27.5.2c0-6 1.8-9.2 5.4-9.2 1.5 0 2.5 0 4.4.9v16.5c-1.7.6-2.5.6-4 .6-4.1 0-5.8-3.3-5.8-8.8M253.6 95V84.3c1 .6 3 1.5 6.3 1.5 6.7 0 11.6-5.5 11.6-15.6 0-10.9-4.9-15.6-12.9-15.6-2 0-3.4.2-5 1V42.7h-7.8v12.8c-1.6-.8-3-1-5-1-8 0-12.9 4.9-12.9 15.7 0 10.1 4.4 15.5 11.6 15.5 3.4 0 5.3-.9 6.3-1.5v10.7h7.8m-59.5-9.7V56.4c-4.3-1.3-7.6-1.8-12-1.8-4.3 0-7.6.6-11.9 1.8v14.8c0 4-.1 5.2-.5 6.5-.4 1.1-1 2.5-2.6 3.6l2.1 4.6c6.3-1.8 8.7-4.5 8.7-13.3V61.7c2.1-.3 2.5-.4 4.2-.4 1.7 0 2 .1 4.1.4v23.5h7.9zm96.8-6.3c-1.7.6-2.9.7-4.2.7-2.8 0-4.4-1.1-4.4-4 0-3 2-4 5.9-4 .9 0 1.9.1 2.3.3v2.2c0 2.3.1 3.8.4 4.8zm10 3.4c-2.1-3.2-2.6-5-2.6-9v-8.1c0-4.4-.5-6-1.7-7.5-1.6-2.2-4.3-3.2-9.2-3.2-3.5 0-6.9.4-10.1 1.2l1.2 5.8c2.2-.3 4.5-.6 6.2-.6 5.2 0 5.8.8 5.8 4.7v1.5c-1.2-.3-2.5-.5-4-.5-7.9 0-12 3.8-12 10.2 0 5.9 4.4 9.2 9.8 9.2 2 0 4.1-.4 5.8-1 1-.4 1.4-.7 2.7-1.5.8 1.2 2.3 2.3 3 2.5l5.1-3.7zm76.8-3.4c-1.7.6-2.9.7-4.2.7-2.8 0-4.4-1.1-4.4-4 0-3 2-4 5.9-4 .9 0 1.9.1 2.3.3v2.2c0 2.3.1 3.8.4 4.8zm10 3.4c-2.1-3.2-2.6-5-2.6-9v-8.1c0-4.4-.5-6-1.6-7.5-1.6-2.2-4.3-3.2-9.2-3.2-3.5 0-6.9.4-10.1 1.2l1.2 5.8c2.2-.3 4.5-.6 6.2-.6 5.2 0 5.8.8 5.8 4.7v1.5c-1.2-.3-2.5-.5-4-.5-7.9 0-12 3.8-12 10.2 0 5.9 4.4 9.2 9.8 9.2 2 0 4.1-.4 5.8-1 1-.4 1.4-.7 2.7-1.5.8 1.2 2.4 2.3 3 2.5l5-3.7zm-171.3-7.4c0 3-1 5-4.8 5-1.3 0-1.8 0-3.4-.5v-8.7c2-.4 2.2-.5 3.4-.5 3.6.1 4.8 1.8 4.8 4.7zM200.3 55v28.6c3.7 1.6 7.8 2.3 11.5 2.3 8.3 0 12.8-4.3 12.8-11.4 0-6.4-4-10.4-11.3-10.4-1.9 0-3 .2-5 .7V55h-8zm216.1 30.2V55.3h-7.9v11.3h-8.9V55.3h-7.9v29.9h7.9V73h8.9v12.2h7.9zm32.3 0s-4.3-9.2-5.3-11.2c-1.2-2.3-2.3-4-4.7-4.5v-.1c1.6-.3 2.9-1.3 4.3-4.3 1.3-2.9 1.7-3.6 2.5-4.2.8-.7 1.8-.4 1.8-.4l.4-5.4c-1.1-.1-2.4-.2-3.7-.1-2.1.1-3.2.7-4.3 1.8-.8.8-1.4 2-2.1 3.4-.7 1.5-1.3 2.7-2.1 4.3-.8 1.6-1.1 2.3-3.2 2.3H431V55.3h-7.9v29.9h7.9V73h1.1c2.2 0 2.6.6 3.8 2.9 1.4 2.8 4.1 9.3 4.1 9.3h8.7zm-293.1 0h9.1L151 43.4c-1.4-.5-3.2-.8-5.1-.8-2.1 0-2.8.3-4.4.8L127 85.2h8.7s1.2-3.7 2.6-8.2h15c1.2 4.6 2.3 8.2 2.3 8.2zM140.4 70s2.5-8.4 2.9-9.7c1-3.4 2.5-8.8 2.5-8.8h.2s1.4 5.6 2.3 8.7c.4 1.2 2.7 9.7 2.7 9.7h-10.6zm173.9-4.8c-2.8 0-5 2.3-5 5 0 2.8 2.2 5 5 5s5-2.2 5-5c0-2.7-2.2-5-5-5z" fill="#fff"/><path fill="none" d="M-42.6-42.6h554v217.9h-554z"/></svg>