<svg xmlns="http://www.w3.org/2000/svg" width="183.896" height="67.263"><path d="M104.757 15.562c-.536-1.544-1.308-1.904-2.967-1.904h-4.555c-1.666 0-2.366.359-2.961 2.013L80.12 53.335c-.589 1.597-.176 2.363 1.606 2.363h4.083c2.957 0 3.734-.475 4.321-2.19l1.897-5.562h14.617l1.838 5.562c.54 1.716 1.425 2.19 4.381 2.19h4.447c1.711 0 2.185-.767 1.602-2.363l-14.155-37.773zm-10.19 24.565l3.083-9.23c1.422-4.209 1.394-7.211 1.394-7.211h.527s.147 3.002 1.511 7.271l3.079 9.17h-9.594zm50.539-26.464h-28.125c-1.836 0-2.422.59-2.422 2.422v3.967c0 1.777.586 2.374 2.422 2.374h9.298v30.851c0 1.826.591 2.422 2.362 2.422h4.8c1.836 0 2.434-.596 2.434-2.422V22.426h9.23c1.838 0 2.431-.597 2.431-2.374v-3.967c0-1.831-.592-2.422-2.43-2.422zm25.288 15.452h-9.59V22.25h17.822c1.777 0 2.429-.652 2.429-2.43v-3.734c0-1.836-.651-2.427-2.429-2.427h-25.041c-1.775 0-2.432.591-2.432 2.427v37.306c0 1.773.712 2.308 2.361 2.308h16.879c8.174 0 13.503-5.087 13.503-13.265.001-8.289-5.328-13.32-13.502-13.32zm-1.363 17.998h-8.227v-9.415h8.227c3.14 0 4.917 1.898 4.917 4.736 0 2.791-1.777 4.679-4.917 4.679z" fill="#373a36"/><path d="M56.047 0H11.209C5.043 0 0 5.045 0 11.211v44.841c0 6.165 5.044 11.211 11.209 11.211h44.838c6.165 0 11.21-5.046 11.21-11.211V11.211C67.257 5.045 62.212 0 56.047 0zm7.696 54.862a.342.342 0 01-.454.103c-8.662-5.221-18.81-8.226-29.66-8.226-10.85 0-20.999 3.005-29.66 8.226a.34.34 0 01-.454-.103.338.338 0 01.071-.459l.041-.032c7.831-6.037 14.637-13.673 19.887-22.766 5.249-9.092 8.457-18.799 9.77-28.594a.35.35 0 01.345-.3c.175 0 .319.131.343.3 1.314 9.795 4.524 19.502 9.772 28.594 5.25 9.093 12.056 16.729 19.885 22.766l.041.032c.141.108.175.31.073.459z" fill="#fe5000"/></svg>