<svg xmlns="http://www.w3.org/2000/svg" width="1024" height="136" viewBox="-1.164 -1.164 308.929 41.12"><path d="M81.486 12.686c0 1.425-.124 2.26-.37 2.508-.219.247-1.041.369-2.467.369h-1.645v9.127c0 1.343.548 2.015 1.645 2.015 1.343 0 2.126.123 2.343.37.22.248.33 1.11.33 2.589-.547.027-1.056.041-1.52.041-2.25 0-3.88-.382-4.893-1.15-.988-.795-1.48-2.082-1.48-3.865v-9.085h-2.263l.041-2.097c1.207 0 1.88-.083 2.015-.248.14-.164.207-.767.207-1.809v-3h3.493v4.235h4.564zm-12.21 16.855c-1.755 0-2.782-.121-3.085-.369-.274-.247-.41-1.123-.41-2.631V12.686c1.755 0 2.768.122 3.043.369.3.22.452 1.056.452 2.507v13.979zm0-17.924c-1.755 0-2.782-.122-3.085-.371-.274-.246-.41-1.122-.41-2.63V7.465c1.891 0 2.905.04 3.043.122.3.164.452.933.452 2.303v1.727zm-6.948 17.924c-1.344 0-2.125-.095-2.344-.286-.22-.22-.329-.934-.329-2.138-.932 1.754-3.083 2.629-6.455 2.629-4.796 0-7.196-2.89-7.196-8.674 0-5.782 2.386-8.675 7.155-8.675 2.851 0 4.756.769 5.715 2.304v-8.43c1.728 0 2.726.125 3 .373.301.246.454 1.107.454 2.587v20.31zm-3.413-8.469c0-1.863-.287-3.22-.863-4.07-.712-1.097-1.987-1.643-3.824-1.643-2.33 0-3.685.246-4.07.737-.383.468-.575 2.126-.575 4.976 0 1.892.287 3.275.862 4.153.713 1.068 1.96 1.602 3.741 1.602 2.358 0 3.73-.232 4.113-.699.411-.492.616-2.177.616-5.056m-14.76-1.357c0 1.4-.15 2.22-.451 2.467-.303.22-1.358.33-3.166.33h-8.8c0 1.287.398 2.315 1.193 3.082.823.768 1.987 1.153 3.494 1.153h3.7c1.371 0 2.166.122 2.386.37.247.218.37 1.04.37 2.465h-6.33c-5.566 0-8.347-2.835-8.347-8.51 0-5.728 2.809-8.592 8.427-8.592 2.44 0 4.332.698 5.675 2.097 1.233 1.288 1.85 3 1.85 5.138m-3.618 0c.027-.055.027-.082 0-.082.055-2.96-1.358-4.439-4.235-4.439-2.25 0-3.577.19-3.988.575-.384.384-.576 1.699-.576 3.946h8.799zm-12.787-7.11c0 1.533-.097 2.423-.288 2.67-.164.22-.808.33-1.932.33-1.398 0-2.26.287-2.59.863-.247.465-.37 1.713-.37 3.741v9.332c-1.755 0-2.782-.122-3.085-.369-.273-.248-.41-1.096-.41-2.549V12.687c1.343 0 2.123.094 2.343.285.219.194.33.877.33 2.056.849-1.754 2.85-2.562 6.002-2.424M16.116 29.623H9.704c-3.619 0-6.224-1.055-7.813-3.164C.63 24.758 0 22.278 0 19.018 0 11.973 3.234 8.452 9.704 8.452h6.412c0 1.506-.123 2.384-.37 2.63-.218.247-1.028.37-2.425.37H9.704c-2.275 0-3.688.082-4.235.247-.823.219-1.344.848-1.563 1.892-.137.767-.206 2.575-.206 5.427 0 2.439.384 4.231 1.151 5.384.933 1.453 2.549 2.178 4.853 2.178h3.411c1.507 0 2.384.124 2.631.372.246.247.37 1.136.37 2.671" fill="#1c297b"/><path d="M126.105 19.396c0 10.714-8.683 19.396-19.398 19.396s-19.4-8.682-19.4-19.396C87.307 8.684 95.992 0 106.707 0c10.715 0 19.398 8.684 19.398 19.396" fill="#fff"/><path d="M97.805 19.396l8.903 8.9 8.9-8.9-8.902-8.9-8.9 8.9zm-9.125 0c0-9.956 8.071-18.026 18.028-18.026 9.955 0 18.026 8.07 18.026 18.026 0 9.957-8.071 18.027-18.026 18.027-9.957 0-18.028-8.07-18.028-18.027m217.921 10.145c-2.273 0-3.643-.055-4.11-.165-.576-.135-1.206-.588-1.89-1.355l-5.346-6.044c-.439-.493-.657-.905-.657-1.233 0-.33.218-.74.657-1.233l5.961-6.866h4.73l-8.102 8.017 8.758 8.879zm-12.29 0c-1.754 0-2.782-.121-3.086-.369-.274-.247-.411-1.11-.411-2.591V6.271c1.756 0 2.77.125 3.044.373.301.218.452 1.052.452 2.506v20.39zm-6.66 0c-1.757 0-2.783-.121-3.085-.369-.273-.247-.41-1.11-.41-2.591v-6.414c0-1.671-.232-2.836-.7-3.495-.603-.848-1.74-1.273-3.413-1.273-2.165 0-3.437.206-3.822.617-.355.384-.535 1.768-.535 4.151v9.374c-1.754 0-2.78-.121-3.082-.369-.275-.247-.412-1.11-.412-2.591V12.726c1.342 0 2.124.098 2.344.289.217.191.328.876.328 2.056.878-1.727 2.933-2.591 6.168-2.591 2.576 0 4.37.726 5.385 2.179.822 1.207 1.234 3.138 1.234 5.797v9.085zm-18.46 0c-1.317 0-2.082-.107-2.302-.328-.22-.218-.328-.96-.328-2.222-.44.741-1.194 1.357-2.263 1.853-1.234.576-2.659.86-4.275.86-1.919 0-3.467-.41-4.646-1.23-1.288-.906-1.933-2.194-1.933-3.867 0-1.67.548-3 1.645-3.987 1.207-1.069 2.988-1.603 5.345-1.603h5.303c0-1.234-.37-2.111-1.108-2.631-.712-.52-1.878-.781-3.497-.781h-3.453c-1.287 0-2.041-.109-2.261-.329-.22-.248-.329-1.083-.329-2.508h5.92c3.153 0 5.345.643 6.578 1.933 1.069 1.067 1.605 2.821 1.605 5.261v9.579zm-3.454-7.235v-.535h-4.769c-1.945 0-3.084.122-3.411.37-.329.22-.494 1.026-.494 2.425 0 1.618 1.26 2.425 3.781 2.425 2.44 0 3.867-.19 4.277-.575.41-.409.616-1.78.616-4.11m-14.387 1.11c0 4.11-2.796 6.166-8.389 6.166h-4.932c-1.699 0-2.701-.123-3.001-.368-.275-.25-.413-1.112-.413-2.592V11.494c0-1.51.138-2.384.412-2.633.3-.245 1.303-.37 3.002-.37h4.809c5.236 0 7.852 1.838 7.852 5.51 0 2.466-.932 3.919-2.795 4.358 1.067.3 1.933.958 2.591 1.973.574.905.864 1.933.864 3.084m-4.196-8.921c0-2.003-1.398-3.001-4.193-3.001h-4.727v5.96h4.934c2 0 3.166-.123 3.495-.37.327-.247.49-1.11.49-2.59m.495 8.88c0-2.082-1.493-3.124-4.48-3.124h-4.934v6.372h4.851c2.275 0 3.604-.136 3.988-.41.385-.275.575-1.22.575-2.837" fill="#e2001a"/><path d="M230.818 19.715c0 1.4-.15 2.22-.452 2.467-.302.22-1.357.33-3.166.33h-8.796c0 1.287.396 2.315 1.191 3.082.823.768 1.986 1.153 3.494 1.153h3.7c1.371 0 2.166.122 2.385.37.246.218.37 1.04.37 2.465h-6.331c-5.563 0-8.345-2.835-8.345-8.51 0-5.728 2.808-8.592 8.426-8.592 2.44 0 4.331.698 5.675 2.097 1.232 1.288 1.849 3 1.849 5.138m-3.618 0c.028-.055.028-.082 0-.082.056-2.96-1.357-4.439-4.235-4.439-2.246 0-3.575.19-3.986.575-.384.384-.575 1.699-.575 3.946h8.796zm-14.512 1.439c0 5.785-2.37 8.676-7.111 8.676-2.852 0-4.755-.768-5.715-2.303v8.51c-1.728 0-2.743-.122-3.044-.371-.273-.219-.409-1.054-.409-2.506V12.686c1.315 0 2.084.11 2.3.329.22.191.33.891.33 2.096 1.014-1.754 3.166-2.631 6.455-2.631 4.795 0 7.194 2.891 7.194 8.673m-3.538 0c0-1.89-.286-3.288-.86-4.192-.74-1.069-1.987-1.603-3.74-1.603-2.358 0-3.743.247-4.153.738-.385.495-.575 2.18-.575 5.057 0 1.893.272 3.263.82 4.113.715 1.096 1.987 1.645 3.822 1.645 2.359 0 3.731-.234 4.111-.699.388-.494.575-2.18.575-5.059m-15.536-.04c0 5.756-2.797 8.633-8.387 8.633-5.538 0-8.306-2.877-8.306-8.632 0-5.73 2.783-8.591 8.346-8.591 5.564 0 8.347 2.86 8.347 8.59m-3.578 0c0-1.81-.302-3.15-.903-4.028-.741-1.125-2.03-1.686-3.866-1.686-2.384 0-3.783.246-4.194.74-.382.467-.575 2.124-.575 4.975 0 3.837 1.575 5.755 4.729 5.755 2.411 0 3.81-.231 4.192-.698.413-.495.617-2.18.617-5.057m-13.526-8.51c0 1.534-.096 2.424-.286 2.672-.165.22-.808.329-1.934.329-1.396 0-2.259.287-2.59.863-.246.465-.37 1.713-.37 3.742v9.33c-1.754 0-2.78-.12-3.083-.368-.275-.247-.41-1.096-.41-2.549V12.687c1.34 0 2.122.094 2.343.285.217.194.326.878.326 2.056.851-1.753 2.853-2.562 6.004-2.423M164.422 29.54c-1.342 0-2.123-.095-2.343-.286-.217-.22-.328-.934-.328-2.138-.904 1.754-2.959 2.629-6.165 2.629-2.606 0-4.415-.711-5.429-2.137-.822-1.178-1.232-3.083-1.232-5.715v-9.208c1.725 0 2.726.123 3 .369.301.247.452 1.139.452 2.672v6.455c0 1.644.247 2.782.74 3.413.603.795 1.755 1.191 3.454 1.191 2.165 0 3.425-.191 3.781-.575.36-.41.537-1.809.537-4.194v-9.33c1.753 0 2.766.122 3.042.368.299.247.453 1.139.453 2.672l.039 13.814zm-18.128 0h-11.061c-1.78 0-2.823-.121-3.125-.369-.302-.247-.45-1.123-.45-2.631V11.495c0-1.51.148-2.385.45-2.634.302-.245 1.346-.37 3.125-.37h8.1c1.48 0 2.343.125 2.59.37.247.249.37 1.124.37 2.634h-11.06v5.836h7.113c1.453 0 2.303.123 2.55.37.245.246.37 1.098.37 2.549h-10.033v6.291h7.855c1.617 0 2.548.121 2.795.37.273.245.41 1.125.41 2.63" fill="#1c297b"/></svg>