<svg xmlns="http://www.w3.org/2000/svg" width="735" height="195" version="1.0"><path d="M54.4 190.822c-30.704-4.51-50.87-28.47-50.87-60.44 0-26.248 15.154-48.457 38.556-56.508 15.862-5.458 32.62-4.935 45.79 1.428 6.875 3.321 18.654 12.65 18.654 14.774 0 .563-2.96 4.574-6.58 8.913l-6.58 7.888-4.67-3.884C76.78 93.08 64.076 90.81 49.883 96.057c-10.662 3.942-18.996 14.917-21.428 28.22-2.853 15.605 4.713 32.413 17.709 39.34 14.04 7.483 28.962 5.859 42.097-4.582l5.23-4.158 6.27 7.612c3.448 4.187 6.435 8.062 6.637 8.61.656 1.783-10.806 11.639-17.17 14.763-10.696 5.252-21.938 6.853-34.828 4.96zm297.63-.266c-7.047-2.35-12.716-5.755-18.176-10.919l-5.324-5.034v14.29h-14V35.065l6.413-3.586c3.527-1.972 6.677-3.586 7-3.586.323 0 .587 13.823.587 30.719V89.33l5.75-5.66c10.746-10.577 24.626-15.34 37.387-12.83 14.479 2.849 23.612 11.197 29.165 26.66 3.136 8.733 4.7 19.478 4.69 32.215-.022 29.24-10.238 50.908-27.79 58.943-6.591 3.018-19.486 3.97-25.702 1.898zm22.86-14.028c11.394-6.678 16.655-21.222 16.623-45.95-.026-19.743-2.919-30.577-10.542-39.483-5.222-6.102-11.337-8.668-20.51-8.608-9.746.063-18.338 3.853-26.367 11.63l-5.564 5.389v62.105l3.985 4.527c8.307 9.437 18.558 13.912 30.66 13.382 5.57-.244 8.151-.903 11.716-2.992zm71.386 14.28c-5.612-1.323-12.84-5.314-16.442-9.076-1.757-1.836-4.444-6.04-5.97-9.34-2.47-5.336-2.78-7.162-2.805-16.518-.027-9.93.158-10.9 3.305-17.293 5.558-11.293 15.598-17.517 31.918-19.786 11.48-1.597 25.658.638 35.135 5.539l3.113 1.61V114.6c0-23.381-6.291-31.548-25.038-32.498-9.48-.481-17.71 1.159-26.887 5.358-2.984 1.365-5.768 2.134-6.186 1.708-.419-.426-1.682-2.932-2.808-5.568l-2.046-4.793 4.732-2.046c9.847-4.257 19.223-6.091 31.733-6.207 18.102-.168 27.518 3.596 34.756 13.895 5.423 7.717 5.72 10.8 5.732 59.694l.012 44.75h-14v-15.574l-5.328 5.037c-11.8 11.154-28.22 15.917-42.926 12.451zm23.794-11.467c7.695-2.004 13.781-5.618 19.707-11.702l4.753-4.88v-26.646l-4.75-2.236c-6.61-3.113-20.212-5.32-28.86-4.683-13.084.963-22.902 7.48-25.447 16.892-1.535 5.679-.722 17.409 1.513 21.807 5.735 11.287 17.744 15.442 33.084 11.448zm-268.047 9.2c-2.754-1.282-6.523-4.057-8.375-6.167-6.639-7.56-6.567-7.062-7.118-49.481l-.5-38.5-10.25-.285-10.25-.285v-21.93h20.939l.28-12.09.281-12.09 11.25-5.995 11.25-5.996v36.171h25v21.939l-12.25.28-12.25.28v34.047c0 38.076.013 38.148 6.975 40.445 4.42 1.46 12.025.018 18.243-3.457 5.215-2.915 5.224-2.86 1.809 10.445-1.47 5.724-3.138 9.995-4.213 10.78-6.33 4.63-22.773 5.638-30.821 1.89zm-81.493-58.148v-58.5h24v117h-24v-58.5zm138 0v-58.5h24v117h-24v-58.5zm278 .5v-58h14l.053 8.75c.05 8.469.105 8.67 1.693 6.25.903-1.375 3.96-4.804 6.792-7.62 8.295-8.245 20.248-11.668 32.993-9.448 16.19 2.82 25.165 11.347 30.077 28.577 1.45 5.088 1.773 12.286 2.142 47.74l.435 41.75H610.72l-.48-40.25c-.309-25.887-.899-41.905-1.653-44.89-.645-2.552-2.609-7.04-4.364-9.971-2.561-4.277-4.366-5.93-9.122-8.36-5.216-2.664-6.9-3.019-14-2.95-15.515.152-24.409 7.648-28.623 24.127-1.76 6.879-1.948 11.223-1.948 44.955v37.34h-14v-58zm116-18.883V35.127l6.072-3.617c3.34-1.99 6.377-3.617 6.75-3.618.373 0 .533 19.238.356 42.75-.177 23.513-.023 48.199.343 54.858l.664 12.107 10.658-15.687a6217.588 6217.588 0 0122.157-32.34l11.5-16.651 7.735-.018 7.735-.018-14.096 19.25c-7.753 10.587-14.328 19.835-14.611 20.55-.529 1.334 2.315 7.59 22.867 50.305 6.529 13.57 11.87 24.947 11.87 25.283 0 .337-3.262.608-7.25.603l-7.25-.008-12.335-26.242c-6.784-14.433-13.576-28.67-15.092-31.639l-2.756-5.398-10.658 14.88-10.659 14.88v33.536h-14V112.01z" fill="#fff"/><path d="M105.697 51.953c.795-2.244 11.66-14.435 17.32-19.435C146.065 12.156 171.13 2.505 201.03 2.48c16.187-.013 25.948 1.697 40.5 7.098 20.343 7.55 38.903 21.043 51.673 37.566l4.444 5.75h-27.743l-2.937-3.08c-8.243-8.645-25.833-18.933-38.937-22.773-14.963-4.386-27.383-5.168-41.89-2.638-18.64 3.25-33.324 10.372-48.746 23.642l-5.635 4.849H118.56c-7.81 0-13.061-.384-12.864-.94z" fill="#ce011b" stroke="#aa0815"/></svg>