<svg xmlns="http://www.w3.org/2000/svg" xml:space="preserve" width="700mm" height="156mm" version="1.1" viewBox="0 0 70000 15600" id="svg2" clip-rule="evenodd" fill-rule="evenodd" image-rendering="optimizeQuality" shape-rendering="geometricPrecision" text-rendering="geometricPrecision"><defs id="defs4"><style type="text/css" id="style6">.fil1{fill:#00447c}</style></defs><g id="Слой_x0020_1" transform="translate(0 -9500)"><path d="M14707.548 17337.108c0 4021.973-3208.982 7316.92-7200.252 7316.92-3958.113 0-7200.253-3260.561-7200.253-7316.92 0-4021.971 3208.982-7316.916 7200.253-7316.916 3992.498 0 7200.252 3296.173 7200.252 7316.916z" id="path10" fill="#fff"/><path class="fil1" d="M2480.75 15309.542c1853.178-1231.766 3922.499-1956.334 7449.554-1339.837 179.3-109.3 286.143-217.37 356.144-470.356-890.36-326.669-1817.563-433.512-3066.524-400.354-1104.047 35.614-3102.138 433.513-4136.184 1086.853l320.53-433.513c749.13-433.514 2674.765-1013.169 4136.184-1051.239 1035.274-35.615 1569.49 35.614 2781.609 362.284-106.844-217.37-356.145-326.67-713.517-470.355-1247.733-542.812-3422.668-578.427-5241.46 217.37 213.687-144.914 462.988-291.055 749.131-433.513 606.674-291.055 1569.49-542.812 2781.61-508.426 962.816 0 2103.706 362.284 2815.994 1086.853 106.843 144.914 179.3 291.055 213.687 400.355 569.83 291.055 890.36 542.812 1069.66 869.482 72.457 144.914 106.843 326.669 72.457 542.812 249.301 144.914 356.144 252.985 462.987 400.355 72.457 144.914 141.23 291.056 141.23 400.355 35.614 181.756 35.614 362.285-141.23 617.726 179.301 109.299 356.145 362.285 356.145 470.356 72.457 433.513-179.301 833.868-534.217 1160.539-428.601 362.284-1317.733 795.798-2066.864 977.554-1461.419 362.284-2745.994 542.813-3778.812 725.797 462.987 109.3 1104.047 252.985 2103.707 252.985 2174.935 0 4136.184-1051.239 4136.184-1051.239s-35.614 144.914-72.457 252.985c-1390.19 869.483-3601.968 1231.768-4527.943 1160.539-962.817-35.615-1746.334-181.756-2566.694-433.514-249.3 73.685-462.987 144.914-713.516 252.986 1210.89 542.812 2103.706 688.954 3135.296 760.183 1035.274 73.685 2781.609-181.756 4243.028-725.797-72.457 73.685-106.843 181.756-179.3 252.985-749.131 400.355-2317.393 795.798-3135.297 833.869-783.517 35.614-1746.334 0-2602.308-144.914-713.517-144.914-1317.734-362.285-1924.407-652.112-106.843 73.685-179.3 181.756-179.3 326.67 2425.465 1268.61 4670.4 1304.224 7235.867 508.426l-213.687 252.985c-2815.995 1160.539-5026.545 725.798-6738.493-109.299-72.457-35.614-106.843-35.614-179.3-73.685 141.23 291.056 1461.42 1231.768 2922.838 1377.909 997.204 73.685 2246.165-109.299 2959.681-400.355l-428.6 217.371c-356.145 181.756-1283.348 578.427-2602.31 470.356-1746.334-109.299-2709.151-905.097-3174.595-1304.225-213.686-181.756-286.143-400.355-356.144-688.954-392.987-217.371-642.288-433.514-855.974-760.184-106.843-181.756-72.457-400.355-35.614-578.427 0-73.685 35.614-109.299 35.614-144.914-179.3-144.914-392.987-291.056-462.987-433.513-179.3-326.67-72.457-578.428 35.614-795.798-106.843-109.3-213.687-252.985-249.3-362.285-35.615-144.914-72.458-291.056-35.615-433.513 35.614-252.985 179.3-508.427 356.144-725.797 392.986-433.514 962.817-795.798 1996.863-1122.469 997.204-326.67 1390.19-400.355 2174.936-578.427 890.36-217.371 1924.406-291.056 2815.995-578.426-2459.851-470.356-4992.159-73.685-7094.637 1377.908l141.23-400.355m8377.983-1557.208c-35.614 109.299-179.3 252.985-249.3 362.284 286.143 73.685 534.216 181.757 783.517 291.055 0-252.984-286.144-470.355-534.217-652.111zm-7593.239 4998.298c-141.23-73.685-249.3-144.914-392.986-252.986-72.457 144.914 72.457 326.671 213.686 433.514 72.457-73.685 141.23-109.3 179.3-181.756h-1.228 1.228zm8342.37-3260.562c179.3 73.685 320.53 144.914 499.83 252.986 106.843-217.371 35.615-362.285-179.3-542.813-106.843 109.299-213.687 217.371-320.53 291.056v1.228-1.228zm-534.216 326.671c-356.144 181.756-890.36 362.284-1605.105 542.812-606.673 144.914-2066.864 362.285-3670.74 725.798-499.83 109.299-1853.179 433.513-2531.08 1013.168 179.3 144.914 286.143 181.757 499.83 291.056 286.143-181.756 642.287-362.284 1210.89-508.426 962.817-252.986 1710.72-362.285 2567.922-508.427 855.974-144.914 2494.237-470.356 3422.668-833.868 286.143-109.3 569.831-252.986 783.517-400.356-72.457-73.685-676.674-362.284-676.674-326.67v3.685l1.228 1.228-1.228-1.228zm-6879.723 3875.831c141.23-73.685 286.144-144.914 462.988-252.986-249.301-109.299-499.83-217.37-783.517-362.284-106.844 73.685-213.687 144.914-320.53 252.985 249.3 109.299 462.987 217.371 642.287 362.285zm-821.587 73.685c0 181.756 106.843 326.67 320.53 508.426 35.614-73.685 72.456-144.914 141.229-252.985-179.3-73.685-320.53-181.756-462.987-252.985v-3.685 1.229zm1210.89-3080.033c1783.177-542.813 3670.74-688.955 5561.989-1194.925-749.13-217.371-1140.89-291.056-1924.407-181.757-1140.889 144.914-2387.393 400.355-3457.054 725.797-428.601 144.914-2640.379 760.184-1996.863 1665.281 0-35.614 392.986-578.427 1817.563-1013.168h1.228l-1.228-1.228zm6701.65-1848.266c-286.143-144.914-642.287-252.985-1035.274-362.284-179.3 144.913-356.144 252.985-676.674 362.284 499.83 73.685 855.974 217.371 1247.733 326.67 72.457 73.685 428.601-252.985 462.987-326.67h3.685-1.229zm890.361 1740.194c-72.457 35.615-106.844 109.3-179.3 144.914-392.987 326.67-1035.275 578.427-1924.407 795.798-1853.178 508.427-3174.595 578.427-4670.4 944.396-286.144 73.685-606.674 181.756-890.361 291.056 286.143 144.914 606.673 291.056 890.36 400.355 606.673-181.756 927.203-252.985 1817.564-400.355 356.144-73.685 1390.19-252.985 2139.32-400.355 1354.577-291.056 3350.212-905.098 2815.996-1773.353h3.684v-1.228l1.228-1.228-1.228 1.228z" id="path14" fill="#00447c"/><g id="_777904464" transform="translate(-7948.133 1521.855) scale(1.22808)" fill="#fff"><path class="fil1" d="M24253 15533h1219l146-914h843l146 914h1219l-1045-5309h-1539l-986 5309m1801-3717l233 1622h-464l233-1622h-3 1z" id="path17" fill="#fff"/><path class="fil1" d="M29014 12290c203 0 551-118 551-531 0-471-407-503-523-503-146 0-407 29-668 148v-1151c407-118 697-148 1045-148 986 0 1422 708 1422 1387s-377 1091-755 1239v60c349 118 843 471 843 1268 0 1003-697 1564-1567 1564-464 0-784-60-1132-266l29-1091c349 148 581 148 812 148 377 0 551-295 551-503 0-295-174-503-610-503h-494v-1122h498v1l1 1-1 1h-1z" id="path19" fill="#fff"/><path class="fil1" id="polygon21" fill="#fff" d="M32700 11493v4040h-1219v-5310h3310v5310h-1220v-4040z"/><path class="fil1" d="M35488 15533h1219v-1741h407c1190 0 1567-1091 1567-1799 0-679-435-1770-1567-1770h-1626v5309m1190-4130h290c261 0 435 177 435 619 0 561-290 619-435 619h-290v-1240 1z" id="path23" fill="#fff"/><path class="fil1" d="M40915 15592c1422 0 1916-1356 1916-2714 0-1356-494-2714-1916-2714s-1916 1356-1916 2714c0 1356 464 2714 1916 2714m0-1268c-435 0-638-503-638-1444 0-945 233-1444 638-1444 435 0 638 503 638 1444 0 945-233 1444-638 1444z" id="path25" fill="#fff"/><path class="fil1" d="M48085 15533h1452c320 0 1626-118 1626-1741 0-1356-1016-1593-1683-1593h-203v-708h1596v-1268h-2787v5309m1190-1062v-1209h174c146 0 523 0 523 561s-377 648-523 648h-174v2-2z" id="path27" fill="#fff"/><path class="fil1" id="polygon29" fill="#fff" d="M58739 10223v5310h-1191v-2124h-841v2124h-1191v-5310h1191v1918h841v-1918z"/><path class="fil1" id="polygon31" fill="#fff" d="M62919 10223l-901 2509 1045 2801h-1394l-696-2124h-262v2124h-1188v-5310h1188v1918h262l668-1918z"/><path class="fil1" id="polygon33" fill="#fff" d="M21901 15533v-5310h2498v1328h-1250v3982z"/><path class="fil1" id="polygon35" fill="#fff" d="M47273 15533h-1219v-3243l-727 942-726-942v3243h-1190v-5310h1017l899 1270 930-1270h1016z"/><path class="fil1" d="M51395 15533h1219l146-914h843l146 914h1219l-1045-5309h-1539l-986 5309m1801-3687l233 1622h-464l233-1622h-3 1z" id="path37" fill="#fff"/></g></g></svg>