<svg xmlns="http://www.w3.org/2000/svg" width="134.503" height="73.801"><path d="M115.003 0L84.4 7.602V70.8H.901v3h114.102V3.5l16.699 6.3v64h2.8V7.702L115.003 0zM20.702 20.102c-4.2 0-6.4 3.4-6.5 7.1 0 3.8 2.4 7 6.5 7 1.4 0 2.8-.301 4.1-1.401 1.5-1.2 2.5-3.3 2.5-5.6 0-.9-.2-5.301-4.2-6.701-.8-.3-1.6-.398-2.4-.398zm-19.8.5V33.8h3.3v-5.7h4.8v5.7h3.3V20.6h-3.3v4.8h-4.8v-4.8h-3.3zm28.3 0V33.8h3.2l-.2-8.301c0-1.2 0-1.5-.1-2.5l.6 2.3 2.4 8.6h2.8l2.5-8.9c.1-.6.1-.698.3-1.398l.1-.5V24.4l-.2 9.4h3.1V20.603h-4.7l-2.1 7.898c-.2.6-.2.702-.4 1.602l-.5-2.102-2-7.398h-4.8zm17.5 0v13.1h10.2v-2.6h-7V28h6v-2.5h-6v-2.398h6.4v-2.5h-9.6zm-26 2.398c.9 0 1.7.4 2.3 1 .8.7 1.2 2.1 1.1 3.5-.1 2.7-1.8 3.8-3.3 3.8-1.6 0-3.3-1.099-3.3-4.099 0-2.5 1.2-4.201 3.2-4.201zm-14.4 13.3c-3.7 0-6.4 3.1-6.3 7 0 4.5 2.8 7 6.2 7 1.8 0 3-.699 3.6-1.099 1.1-.7 1.5-1.401 2-2.201l-2.6-1.299c-.4.7-1.1 1.9-2.8 1.9-1.7 0-3.2-1.5-3.2-4.4 0-2.2 1.1-4.201 3.2-4.201.5 0 1.2.102 1.8.602.6.5.8.998 1 1.398l2.6-1.299c-.4-.7-.8-1.4-1.7-2.1-1-.8-2.3-1.3-3.8-1.3zm6.7.302V49.8h3.3V45h2.1l2.6 4.8h3.6l-3-5.3c.9-.3 2.7-1 2.7-3.6 0-1.2-.4-2.2-1-2.9-1.2-1.3-2.9-1.299-4.3-1.299h-5.9v-.1h-.1zm43.9 0V39.3l3.3-.1v10.6h3.3V39.2h3.4v-2.6h-10zm-30.4.1V49.9h10.2v-2.6h-7v-3.099h6v-2.5l-6-.1v-2.4h6.4v-2.5h-9.6zm12.2 0V49.9h5.1c1.4 0 5-.199 6.2-4.199.1-.5.3-1.4.3-2.5 0-2-.6-3.8-1.9-5-1.6-1.4-4-1.5-5.6-1.5h-4.1zm13.5 0V49.9h3.2V36.701h-3.2zm-35.9 2.5h2.8c.7 0 1.9-.002 1.9 1.698 0 1.8-1.5 1.801-2 1.801h-2.7v-3.5zm25.7.298h1.3c1 0 2.2.001 3.1 1.201.6.8.7 1.7.7 2.6 0 3.9-2.4 4-4.1 4h-1V39.5zM.903 52.9v13.202h5.5c1.5 0 2.5-.1 3.5-.5 1.7-.8 2.2-2.202 2.2-3.202 0-.8-.2-1.5-.7-2-.7-.8-1.8-.999-2.5-1.199.7-.1 1.9-.401 2.5-1.701 0-.2.2-.599.2-1.299 0-1.2-.7-2.5-2.3-3-.8-.2-2-.3-3.4-.3h-5zm16.3 0l-4.8 13.202h3.5l.6-2.102h4.8l.6 2.102h3.5l-4.8-13.202h-3.4zm9 0v13.202h3.1v-8.4c.9 1.9 1.1 2.298 2.3 4.198l2.4 4.202h3.2V52.9h-3.1l.1 8.5c-.7-1.2-1-1.8-2-3.6l-2.8-4.9h-3.2zm14.3 0l-.1 13.1h3.1v-3.799l2-2.1 3.5 6h3.7l-5-8.3 4.7-4.9h-3.9l-4.9 5.4v-5.4h-3.1zm-36.5 2.5h2.7c.6 0 1.7.001 1.7 1.301 0 1.4-1.2 1.4-1.9 1.4h-2.5v-2.7zm14.8.702l1.7 5.5h-3.3c.3-1 .8-2.5 1.1-3.5.1-.6.3-1.3.5-2zM4.002 60.5h2.8c.7 0 2 .002 2 1.602 0 1.5-1.4 1.6-2.5 1.6h-2.3V60.5z" fill="#fff"/></svg>