<svg xmlns="http://www.w3.org/2000/svg" width="147.687" height="53.116"><path d="M2.926 0A2.92 2.92 0 000 2.926V50.19a2.918 2.918 0 002.926 2.924H50.19a2.917 2.917 0 002.924-2.924V2.926A2.918 2.918 0 0050.191 0H2.926zm23.236 5.258c6.673-.092 15.068 12.091 15.043 24.974.077 7.923-3.618 16.664-15.043 16.89-10.968-.161-15.064-8.945-15.037-16.89-.107-12.466 8.06-24.971 15.037-24.974zm40.547 34.479l2.043-26.047h6.923l7.093 14.584 6.98-14.584h6.923l2.043 26.047h-8.001L89.69 26.742l-4.88 11.009-4.143-.057-5.845-10.952-1.021 12.995zm43.014 0V19.705h-8.058V13.69h24.004v6.015h-7.888v20.032zm37.964-25.147c-1.634-.88-3.777-.9-6.015-.9-8.13 0-13.336.9-13.336 6.512v13.076c0 6.546 5.215 6.457 13.336 6.459 2.078.053 4.903.022 6.015-.847v-5.612c-1.262.68-2.968.741-6.015.741-3.248 0-6.015-.74-6.015-3.997v-7.226c0-2.594 2.516-3.547 6.015-3.547 2.856 0 4.072-.094 6.015.953z" fill="#fff"/></svg>