<svg xmlns="http://www.w3.org/2000/svg" id="Layer_1" data-name="Layer 1" viewBox="0 0 322.6 99.74" version="1.1"><defs id="defs3"><style id="style5">.cls-1{fill:#005091}</style></defs><path class="cls-1" d="M273.65 179.83v1.37l-2.74.65c-.24 0-.89.28-.89 1.37V192h12.92v-8.8c0-1.09-.65-1.33-.89-1.37l-2.74-.65v-1.37h11.3v1.37l-2.75.65c-.24 0-.89.28-.89 1.37v21.5c0 1.09.64 1.33.89 1.38l2.75.64v1.37H279.3v-1.37l2.74-.64c.24 0 .89-.29.89-1.37V194.2H270v10.5c0 1.09.65 1.33.89 1.38l2.74.64v1.37h-11.3v-1.37l2.74-.64c.24 0 .89-.29.89-1.37v-21.49c0-1.09-.65-1.33-.89-1.37l-2.74-.65v-1.37z" transform="translate(-262.35 -108.91)" id="path9" fill="#fff" fill-opacity="1"/><path class="cls-1" d="M316.26 182.86c2.62 2.82 3.71 7.06 3.71 11.1s-1.09 8.28-3.71 11.1a13.38 13.38 0 01-18.24 0c-2.62-2.83-3.71-7.06-3.71-11.1s1.09-8.27 3.71-11.1a13.37 13.37 0 0118.24 0zm-2.5 20a21.31 21.31 0 000-17.76 7.59 7.59 0 00-13.24 0 21.31 21.31 0 000 17.76 7.59 7.59 0 0013.24 0z" transform="translate(-262.35 -108.91)" id="path11" fill="#fff" fill-opacity="1"/><path class="cls-1" d="M328.85 179.83c1.69 0 2.42 0 3.91-.16 1-.08 2.3-.24 3.87-.24 2.06 0 4.4.28 6.09 1.85a6.73 6.73 0 01.4 9 8.33 8.33 0 01-3.39 2.14v.08a8.87 8.87 0 014.2 1.81 6.92 6.92 0 012.34 5.53 7.42 7.42 0 01-2.67 6 12 12 0 01-7.26 2.26h-12.65v-1.37l2.75-.64c.24 0 .89-.29.89-1.37v-21.5c0-1.09-.65-1.33-.89-1.37l-2.75-.65v-1.37zm2.5 11.95h2.87a6.69 6.69 0 004.76-1.49 5.36 5.36 0 001.65-4 4.92 4.92 0 00-1.37-3.63 5.79 5.79 0 00-4.2-1.33 11.46 11.46 0 00-3.71.61zm0 13.64a8.28 8.28 0 003.59.72 7.42 7.42 0 005.45-1.9 5.79 5.79 0 001.62-4.31 6.71 6.71 0 00-1.41-4.4 6.46 6.46 0 00-4.8-1.73h-4.44z" transform="translate(-262.35 -108.91)" id="path13" fill="#fff" fill-opacity="1"/><path class="cls-1" d="M360.41 179.83v1.37l-2.75.65c-.24 0-.89.28-.89 1.37v17.52l13.72-17v-.49c0-1.09-.64-1.33-.89-1.37l-2.75-.65v-1.37h11.3v1.37l-2.74.65c-.24 0-.89.28-.89 1.37v21.45c0 1.09.65 1.33.89 1.38l2.74.64v1.37h-11.3v-1.37l2.75-.64c.24 0 .89-.29.89-1.37v-17.77l-13.72 17v.73c0 1.09.65 1.33.89 1.38l2.75.64v1.37h-11.3v-1.37l2.74-.64c.24 0 .89-.29.89-1.37v-21.46c0-1.09-.65-1.33-.89-1.37l-2.74-.65v-1.37z" transform="translate(-262.35 -108.91)" id="path15" fill="#fff" fill-opacity="1"/><path class="cls-1" d="M430.88 182.86c2.62 2.82 3.71 7.06 3.71 11.1s-1.09 8.28-3.71 11.1a13.37 13.37 0 01-18.24 0c-2.62-2.83-3.71-7.06-3.71-11.1s1.09-8.27 3.71-11.1a13.37 13.37 0 0118.24 0zm-2.5 20a21.31 21.31 0 000-17.76 7.59 7.59 0 00-13.24 0 21.31 21.31 0 000 17.76 7.59 7.59 0 0013.24 0z" transform="translate(-262.35 -108.91)" id="path17" fill="#fff" fill-opacity="1"/><path class="cls-1" d="M445.49 179.83a9.84 9.84 0 00.89 3.15l7.87 19.09h.08l8.35-19.07a8.73 8.73 0 00.89-3.15h7.11v1.37l-2.75.65a1.18 1.18 0 00-.89 1.37l.73 21.47a1.27 1.27 0 00.89 1.38l2.74.64v1.37h-11.3v-1.37l2.74-.64a1.19 1.19 0 00.89-1.37l-.45-17.8h-.08l-8.27 19.25a9.53 9.53 0 00-.73 2.5h-1.61a9.44 9.44 0 00-.73-2.5l-8.19-19.25h-.08l-.53 17.8a1.19 1.19 0 00.89 1.38l2.74.64v1.37h-9.2v-1.37l2.34-.64a1.24 1.24 0 00.88-1.37l.81-21.47a1.21 1.21 0 00-.89-1.37l-2.75-.65v-1.37z" transform="translate(-262.35 -108.91)" id="path19" fill="#fff" fill-opacity="1"/><path class="cls-1" d="M495.21 179.83v6.46h-1.62l-.53-2.5a2.18 2.18 0 00-.85-1.29 4.25 4.25 0 00-2.1-.48h-7.83v9.93a31.91 31.91 0 014.68-.4 11.41 11.41 0 017.3 2.18 7.94 7.94 0 01.28 12.11 12 12 0 01-7.26 2.26h-12.66v-1.37l2.74-.64c.24 0 .89-.29.89-1.37v-21.5c0-1.09-.64-1.33-.89-1.37l-2.74-.65v-1.37zm-12.92 25.51a8.91 8.91 0 003.75.8 7.18 7.18 0 005-1.61 6 6 0 001.9-4.72A6.57 6.57 0 00491 195a6.8 6.8 0 00-4.68-1.53 14.53 14.53 0 00-4.08.65z" transform="translate(-262.35 -108.91)" id="path21" fill="#fff" fill-opacity="1"/><path class="cls-1" d="M512.72 179.27a10 10 0 00.61 2l9.28 23.09a4.73 4.73 0 001.17 1.65 3.43 3.43 0 001.7.73v1.37h-9.81v-1.37l2-.4a1 1 0 00.85-1 2.45 2.45 0 00-.28-1l-2.5-6.5h-9.12l-2.22 6.38a3.51 3.51 0 00-.24 1.13 1 1 0 00.77 1l1.73.4v1.37h-8.23v-1.37l.85-.24a4.67 4.67 0 001.62-.93 5.11 5.11 0 001-1.65l8.52-22.64a11.2 11.2 0 00.61-2zm2.28 16.39l-3.84-10.25h-.08l-3.59 10.25z" transform="translate(-262.35 -108.91)" id="path23" fill="#fff" fill-opacity="1"/><path class="cls-1" d="M539.19 179.83v1.37l-2.75.65c-.24 0-.89.28-.89 1.37V192h12.91v-8.8c0-1.09-.64-1.33-.88-1.37l-2.75-.65v-1.37h11.3v1.37l-2.74.65c-.24 0-.89.28-.89 1.37v21.5c0 1.09.64 1.33.89 1.38l2.74.64v1.37h-11.3v-1.37l2.75-.64c.24 0 .88-.29.88-1.37V194.2h-12.9v10.5c0 1.09.65 1.33.89 1.38l2.75.64v1.37h-11.3v-1.37l2.74-.64c.24 0 .89-.29.89-1.37v-21.49c0-1.09-.65-1.33-.89-1.37l-2.74-.65v-1.37z" transform="translate(-262.35 -108.91)" id="path25" fill="#fff" fill-opacity="1"/><path class="cls-1" d="M404.06 206.3a2.06 2.06 0 01-1.14-.86l-2.49-5.56a16.21 16.21 0 00-2.36-4.17 6.53 6.53 0 00-4-2.16v-.07a6 6 0 003-3.47l1.66-4a8.23 8.23 0 011-2 1.94 1.94 0 011.54-.85c.85 0 .85 1.21 2.06 1.21a2.26 2.26 0 002.06-2.38c0-1.74-1.29-2.79-3.15-2.79a4.18 4.18 0 00-3.07 1.33 11.78 11.78 0 00-2.14 3.71l-2.06 4.8a6.23 6.23 0 01-1.82 2.66 3.86 3.86 0 01-2.42.65h-1.65v-9.2c0-1.09.64-1.33.89-1.37l2.74-.65v-1.37H381.4v1.37l2.74.65c.24 0 .89.28.89 1.37v21.55c0 1.09-.65 1.33-.89 1.38l-2.74.64v1.37h11.3v-1.37l-2.74-.64c-.24 0-.89-.29-.89-1.37v-10.1h1.29c3.18 0 4.65 1.87 5.79 4.85 0 0 1.9 5 2.26 5.89a11.14 11.14 0 01.57 2.72h8v-1.36s-2.14-.23-2.92-.41z" transform="translate(-262.35 -108.91)" id="path27" fill="#fff" fill-opacity="1"/><path class="cls-1" d="M582 206.3a2.06 2.06 0 01-1.14-.86l-2.49-5.56a16.19 16.19 0 00-2.36-4.17 6.54 6.54 0 00-4-2.16v-.07a6 6 0 003-3.47l1.65-4a8 8 0 011.05-2 1.93 1.93 0 011.53-.85c.86 0 .86 1.21 2.06 1.21a2.26 2.26 0 002.06-2.38c0-1.74-1.29-2.79-3.15-2.79a4.17 4.17 0 00-3.07 1.33 11.7 11.7 0 00-2.14 3.71l-2.06 4.8a6.21 6.21 0 01-1.82 2.66 3.86 3.86 0 01-2.42.65H567v-9.2c0-1.09.65-1.33.89-1.37l2.75-.65v-1.37h-11.3v1.37l2.75.65c.24 0 .89.28.89 1.37v21.55c0 1.09-.64 1.33-.89 1.38l-2.75.64v1.37h11.3v-1.37l-2.75-.64c-.24 0-.89-.29-.89-1.37v-10.1h1.29c3.18 0 4.65 1.87 5.79 4.85l2.26 5.89a11.09 11.09 0 01.57 2.72h8v-1.36s-2.1-.23-2.91-.41z" transform="translate(-262.35 -108.91)" id="path29" fill="#fff" fill-opacity="1"/><path class="cls-1" d="M295.37 162.93c-3.5-.35-5.6-3.52-5.17-8.5.25-3.57 2.76-9.67 5.17-14.56-2 .53-4.67 1.4-5.59 1.76a66.48 66.48 0 01-6.12 11.54 64.91 64.91 0 01-10.19 12.43h43.13a5.19 5.19 0 005.22-4.47v-22.62c-1.52 2.11-6.3 8.56-12.26 15.22s-10.69 9.55-14.19 9.2zm-12.44-19a83.66 83.66 0 00-10.8 6.55c-2.13 1.5-12.93 10.2-8.73 14.41 4.38 3.34 10.69-7 12.35-9 2.96-3.89 7.18-11.98 7.18-11.98zm-15.15-28.45c4.83-3.92 13.31-5.32 17.84-4.07s3.64 5 8.21 6.24 8.78-4.64 10.09-6a7.92 7.92 0 014.7-2.67h-41a5.18 5.18 0 00-5.28 5v8a19.68 19.68 0 015.44-6.52zm42.48-2.64a37.17 37.17 0 00-9.65 9.49 102.15 102.15 0 00-7.88 13c1.94-.58 5.66-1.66 5.66-1.66a108.82 108.82 0 018.88-13.24c4.75-5.87 10.76-8.17 14.38-7.82a5.25 5.25 0 00-5.06-3.68h-6.42c1.57.37 2.26 2.32.09 3.89zm-24.47 24.5c2.3-4 8.28-13.22 9.69-15.22a6 6 0 01-6.67 0c-4.39-3.08-2.07-9.17-11.27-7.76-5.69.88-12 6-10.85 10.9a5.7 5.7 0 005.61 4.66c4.49 0 5.89-2.06 6.94-3.72s3.07-3.07 5.18-2.46 3 3.69.47 6.25a18.4 18.4 0 01-4.23 3.19 16.1 16.1 0 01-11.14 1.68 11.37 11.37 0 01-7.17-5V152c4.89-6.66 16.2-12.48 23.44-14.68zm26.73-16.81a82 82 0 00-8.28 11.42 73.91 73.91 0 0010-5.38c3.58-2.23 9.15-6.7 7.29-9s-6.28-.15-9 2.94zm1.56 11.06a70.45 70.45 0 01-12.5 6.46 52.69 52.69 0 00-4.46 11.14c-1.75 6.52 2.78 7.46 9.54 1.23 4-3.65 13.49-14.38 15.15-16.4v-8.68a62.4 62.4 0 01-7.73 6.23z" transform="translate(-262.35 -108.91)" id="path31" fill="#fff" fill-opacity="1"/></svg>