<svg xmlns="http://www.w3.org/2000/svg" width="169.2" height="33"><path d="M123.9 9.5h12.3v2.7h-.9s-.1-1.4-1.6-1.4h-2.1v12.7h-3.1V10.8h-2.2c-1.2 0-1.5 1-1.6 1.4h-.9m25.9-2.7h2.2v14h-3v-9.9l-7.3 9.9h-2.2V12.1c0-1.6-1.4-1.8-1.4-1.8v-.8h4.4v9.9m-57.2 4.1h-3.8l-2.7-5.2s-.9-1.6-1.7-1.6h-1.1v6.8h-3.1V12.1c0-1.6-1.5-1.7-1.5-1.7v-.9h4.6v5.9h1.4s.9-.1 1.6-1.2c2.3-3.8 2.1-4.6 3.1-4.6h3v1c-2.1 0-2.7 4.2-4.7 5.5 1 .4 1.4 1.2 3.5 5.2 0 0 .5 1.4 1.6 1.4m82.9-2.1c-1.4 2-3.5 3.3-6.3 3.3-3.7 0-7.3-3-7.3-6.7v-.9c0-4.1 3.3-7 7.3-7 4.1 0 7.2 3.3 7.2 7.3h-10.9v2.3c0 2 1.6 3.7 4.1 3.7 2.1 0 3.5-.9 4.6-2.1m-8.7-5.5h7.3v-.7c0-2-1.6-3.7-3.7-3.7-2 0-3.7 1.6-3.7 3.7v.7h.1zm-59.8 3.7c0 1.8-1.2 3.5-3.2 3.6h-.2c-1.7 0-3.2-1.2-3.5-2.6v-6c.1-1.4 1.6-3 3.5-3h.6s2.8.1 3 3.6m-3-5.1c-1.7 0-3.3.7-4.1 1.7V9.3H87v1s1.4.2 1.4 1.8V30h3.1v-7.9c1.4 1.6 3.3 1.7 3.8 1.7 3.9-.1 6.7-3.1 6.7-6.9V16c.1-4.1-2.5-6.8-6.3-6.8m-42.5 9.4c0 2-1.6 3.8-3.8 3.8-2.3 0-3.8-1.7-3.8-3.8v-4.4c0-2 1.7-3.6 3.8-3.6 2.3 0 3.8 1.6 3.8 3.7m-3.9-5.1c-5.3 0-7.4 4.1-7.4 6.8v1.2c0 3.1 3.1 6.5 7.4 6.5 4.1 0 7.5-3.1 7.5-6.7v-1c.1-3.3-2.8-6.8-7.5-6.8m72.5.3h-4.4v.9s1.5.2 1.5 1.8v11.3h3m-13.1-1.3v-5.9h2.6c1.4 0 2.6 1.1 2.6 2.7v.6c0 1.4-1.2 2.6-2.6 2.6m-2.6-7.3V9.6h-4.4v.7s1.4.1 1.4 1.7v11.5h6.9c2.7 0 4.6-1.6 4.6-3.9V19c0-2.6-1.8-4.1-4.8-4.1h-3.7zM57.3 9.5h12.3v2.7h-.9s-.1-1.4-1.6-1.4h-2.2v12.7h-3.1V10.8h-2.2c-1.2 0-1.5 1-1.6 1.4h-.9m-29.4 5.2c0 4.1-2.1 7.6-5.4 9.4l-.7.3c-.2.1-.5.2-.9.2-.5 0-1-.2-1.2-.6-.2-.4-.2-.7-.2-1.2.1-.6.6-.9.7-1 2-.9 3.2-3 3.2-5.2v-5.8c0-2.2-1.2-4.3-3.2-5.2 0 0-.6-.2-.7-1-.1-.4 0-.7.1-1.1.2-.4.6-.6 1.2-.6.2 0 .5 0 .9.1l.7.4c3.3 1.8 5.4 5.4 5.4 9.4m-14.5 9.1c.1.1.6.4.7 1 .1.4 0 .7-.1 1.1-.2.4-.6.6-1.2.6-.2 0-.5-.1-.9-.2l-.7-.4c-3.3-1.7-5.4-5.4-5.4-9.4v-1.6c0-4.1 2.1-7.6 5.4-9.4l.7-.4c.2-.1.5-.1.9-.1.5 0 1 .2 1.2.6.2.4.2.7.1 1.1-.1.6-.7 1-.7 1-2 .9-3.2 3-3.2 5.2v5.8c-.2 2.2 1.2 4.2 3.2 5.1M16.5 0C7.4 0 0 7.4 0 16.5S7.4 33 16.5 33s16.6-7.4 16.6-16.5S25.7 0 16.5 0" fill="#fff"/></svg>