<svg xmlns="http://www.w3.org/2000/svg" width="242.713" height="47.982"><path fill-rule="evenodd" clip-rule="evenodd" fill="#04663A" d="M0 23.99C0 10.753 10.725.012 23.956 0v8.67c-8.446.01-15.292 6.868-15.292 15.32 0 8.462 6.858 15.327 15.324 15.327 8.411 0 15.319-6.8 15.319-15.384l8.674.009c0 13.296-10.739 24.041-23.993 24.041C10.735 47.982 0 37.238 0 23.99"/><path fill="#53AE47" d="M13.403 23.99c0-5.878 4.766-10.64 10.64-10.64 5.878 0 10.645 4.762 10.645 10.64 0 5.877-4.767 10.637-10.645 10.637-5.874 0-10.64-4.76-10.64-10.637"/><path fill="#04663A" d="M31.426 10.509a6.098 6.098 0 016.099-6.098c3.37 0 6.098 2.73 6.098 6.098 0 3.367-2.728 6.106-6.098 6.106a6.105 6.105 0 01-6.099-6.106"/><path fill="#53AE47" d="M218.766 16.554l-.738 3.64c-1.74 7.915-2.385 10.467-3.896 18.338l-.337.283-4.801.141-.229-.328 1.934-8.107.562-2.655a265.92 265.92 0 00-6.188-.084c-1.609 0-2.836.022-4.09.058a340.347 340.347 0 00-2.201 10.693l-.334.283-4.808.141-.231-.328 1.932-8.107.759-3.534c1.267-5.564 1.505-6.784 2.261-11.919l.328-.331c2.211-.284 2.734-.379 4.99-.847l.242.329-.508 2.336-.731 3.64-.772 3.441c1.73.045 3.467.072 5.207.072 1.836 0 3.049-.032 5.084-.075.664-3.017.931-4.661 1.51-8.565l.326-.331c2.221-.284 2.733-.379 4.996-.847l.235.329-.502 2.334m-57.877 10.583c.332-1.368.563-2.741.563-4.064 0-4.788-3.077-5.588-4.825-5.588-7.438 0-8.39 11.548-8.39 13.301 0 3.788 2.274 5.442 4.835 5.442 5.072 0 6.962-5.207 7.817-9.091m4.924 1.472c-1.039 4.077-3.938 11.13-12.836 11.13-6.298 0-9.752-3.27-9.752-9.705 0-.835.065-1.765.204-2.732.025-.241.061-.478.096-.725 1.711-10.671 6.337-20.789 16.488-20.888 1.354-.018 4.097-.155 5.961-.596l-.68 4.259c-1.875.483-4.854.734-6.588.745-2.16.021-3.652.841-4.685 1.834a7.999 7.999 0 00-1.215 1.517c-.308.485-.532.929-.695 1.263a14.98 14.98 0 014.515-.688c6.197 0 9.896 3.461 9.896 9.564.001 1.657-.283 3.362-.709 5.022m61.081-4.369c1.126-.981 1.78-1.595 3.334-3.1 1.639-1.601 5.647-5.749 6.403-6.548l.518-.28h5.423l.142.423c-.473.423-.709.614-2.595 2.212-.755.619-1.219 1.087-2.112 1.886l-6.14 5.657 7.315 13.905-.282.372-5.238.146-.375-.286c-1.228-2.924-1.556-3.58-3.249-7.024l-3.299-6.688c-1.037 4.633-1.682 7.553-2.844 13.617l-.331.283-4.804.14-.236-.327 1.931-8.106.757-3.534c1.266-5.566 1.502-6.785 2.258-11.92l.33-.331c2.22-.284 2.73-.379 5.002-.846l.234.328-.509 2.336-.739 3.64-.894 4.045m-41.701 8.59c-.516.417-1.034.9-1.559 1.219-1.229.761-2.842 1.094-4.113 1.094-4.316 0-5.543-3.639-5.543-5.904 0-.233.095-6.331 5.062-9.725 2.802-1.89 5.878-1.985 7.437-1.985.715 0 1.414.045 2.132.045l-3.416 15.256m9.049-18.429l-.23-.378-6.539-.045c-4.357 0-10.461.276-14.869 5.439-1.984 2.357-3.789 6.423-3.789 10.15 0 5.902 3.931 9.312 8.761 9.312 4.022 0 6.11-1.752 6.915-2.411l-.331 1.89.229.335 4.451-.096.338-.331c.945-5.63 1.279-7.419 2.939-14.693l2.125-9.172z"/><path fill="#04663A" d="M69.459 39.607c-5.132 0-12.523-1.628-9.843-13.484 1.002-4.449 4.077-13.88 16.723-13.88 12.3 0 10.469 10.077 9.707 13.633-2.261 10.023-8.385 13.731-16.587 13.731m1.68-5.234c3.608 0 5.294-3.757 6.391-8.595.768-3.407 1.602-8.402-2.742-8.402-3.711 0-5.354 3.559-6.445 8.402-1.018 4.494-1.252 8.595 2.796 8.595m28.389 4.645c-2.372 0-6.275 0-7.914.048l-.28-.293c.46-1.582 1.569-5.832 2.743-11.021.943-4.197 1.786-7.899 2.11-9.583-1.986.048-5.049.048-6.542.102l-.267-.346c.391-1.282.946-3.505 1.294-4.838l.451-.253c1.323.05 6.354.101 10.398.101 4.895 0 9.651-.101 10.653-.152l.343.254c-.366 1.18-1.014 3.606-1.345 4.834l-.462.298c-1.957-.044-3.441-.044-6.262-.044-.247 1.078-1.012 4.247-2.279 9.874a295.021 295.021 0 00-2.202 10.622l-.439.397zm27.452-20.259c-1.588 0-3.375.054-4.162.054-.248 1.084-1.213 5.138-2.104 9.087-1.051 4.644-1.98 8.991-2.345 10.816l-.468.301c-2.419 0-5.528 0-8.011.049l-.277-.293c.507-2.03 1.806-7.562 3.048-13.045 1.252-5.526 2.328-10.966 2.68-12.495l.418-.349c2.666 0 5.361.102 11.982.102 5.189 0 10.209-.153 12.893-.203l.227.304c-.35 1.333-1.842 7.703-3.266 14.022-1.15 5.089-2.211 10.173-2.481 11.607l-.366.301c-2.122 0-6.027 0-8.061.049l-.219-.35c.438-1.723 1.396-5.726 2.508-10.667.848-3.753 1.707-7.755 2.045-9.237-.794.001-2.554-.053-4.041-.053"/></svg>