<svg xmlns="http://www.w3.org/2000/svg" viewBox="0 0 351.1 170.1"><path fill="#001C85" d="M.1-.3h170.1v170.1H.1z"/><g fill="#FFF"><path d="M51.8 54.6c1.3 2.8 3.3 5.6 8.9 9.5 1.2.9 2.6 2.6 1.6 5.2-1.1 2.5-3 6.1-1.9 7.5 1.2 1.4 5.4 2.1 8.9.7 0 0 .7 2.2 2 3.6 0 0-.6 1.2-2.6.6 0 0 .7 1.8-.3 3.7 0 0-2.3-.4-3.3-2.5 0 0-.9 1.7-2.8 2.2 0 0-1.5-.8-1.2-3.8 0 0-1.1 2.7-4.6 3.2 0 0-2-2.5.6-5.9 0 0-1.9 1.7-5.2.9 0 0-.5-1.7 2.5-4.1 0 0-3.4-.1-4.8-3 0 0 1.5-1.8 5-1.4 0 0-3.3-.7-4-4.7 0 0 2.4-1.5 6.2.9 0 0-.7-1.3-2.2-2.5-1.6-1.4-3.5-4.9-2.8-10.1m13.8 39.9c-.5-.7-.9-1.3-1.2-2 .6 4.8.8 8.1 3.4 11.2 0 0 1.6-2.1.6-7.1-.4-.1-.9-.3-1.4-.7 0 0 .6 2.1.2 4.1 0 0-.9-.6-1.6-5.5m-4.5-.5c-.3-.4-.9-1.2-1.2-1.8-.2 2.8-1 10.1 1.5 12.4 0 0 1.7-1.2 2.3-12-.4.6-1 1.2-1.3 1.6 0 0 .4 3.4-.8 5.8 0 .1-1.3-.8-.5-6m-5.9 5.6c2.1-2.5 2.7-9.9 2.7-9.9l.9-.6.3-.3v.8c-.3 4.5-.7 9.1-2 11.4-1.4 2.2-3.9 3.4-3.9 3.4-2.4-4.2.5-9.8 2.9-13.7.3-.1.6-.3.9-.4-.8 3-2.4 6.6-1.8 9.3m-5.8-12.8c0 .5.1.9.1 1.1 0 .1.1.2.1.3-2 1.9-3.4 3.8-6.4 7.9-2.9 4.1-7.6 4.2-7.6 4.2.5-3.3 1.3-5.9 3.8-8.7 2.5-2.8 5.7-5.4 8-7.1.6.3 1.4.4 2.4.3h.2c-.3.4-.5.8-.6 1.2-1.8 1-6.9 3.6-9 7.8.1-.1 3.4-1.1 9-7m-3.7-4.1l.2-.3c.1-.1.1-.2.2-.3-1.9.7-8.7 3.3-10.9 4.4-2.2 1.1-5.4 3.7-7.1 9 0 0 4.6.4 8.4-2.7 3.8-3.1 8.2-7.5 10.1-8.9-.2-.2-.3-.3-.4-.5 0 0-5.1 4.5-10.5 6.5 0 0 1.2-2.1 3.3-3.6 2.5-2 4.4-2.6 6.7-3.6m-3.9-3.2c.1-.2.2-.4.2-.5-2.2.5-7.8 1.1-10.3 1.9-2.5.8-7 2.6-9.7 7.7 0 0 3.9 1.2 11.4-2.3 7.4-3.5 9.8-4.2 11.2-4.6-1.1-.1-1.9-.5-2.3-.7-3 1.3-6.9 2.9-10.9 3 0 0 1.9-1.4 4-2.2 2.1-.9 4.6-1.8 6.4-2.3m.2-3.6c.7.3 1.3.5 2.2.6-.5.3-1 .8-1.4 1.3-2.6.8-7.1 1.6-14.5 2.1-7.3.6-11.3-.8-11.3-.8 2.6-1.6 6.7-3.2 9.4-3.7 2.8-.5 10-.5 13.2-.9 0 0 .4.3 1.1.7-2.7.2-8.4.5-11.3 2 0 0 5.4.7 12.6-1.3m-.5-4.3c.4-.2.8-.4 1.4-.6-3.7-1.1-8.9-2.9-16.6-3.4-5.7-.4-9.7 0-11.8.5 0 0 5.2 3.6 11 4.9 5.9 1.3 10.7.5 14.2.5.2-.3.5-.7.9-1.1-4.1 0-10.9-1-13.3-1.8-.1-.1 5.8-1.3 14.2 1m-.1-4.4c0 .1.5 2.2 2.9 3.4-5.2-2.3-15.6-3.6-21.1-5.9-7.5-3.1-8.9-7-8.9-7 6.5-.2 11.7 1.4 15.8 2.7 4.7 1.4 11.9 4.1 14.5 5.3-.9 0-2 .3-2.9.9-3.5-1.4-5.2-1.9-8.4-2.8-2.5-.7-4.4-.8-6-1 0 0 2.2 1.5 5.9 2.6s5.3 1.3 8.2 1.8m-.4-5.7c.2.4.8 1.3 1.1 1.6-8.3-1.4-17.4-7.7-20.2-11.5-2.8-3.9-2-9.7-2-9.7 2.7.5 8.7 5.7 10.2 7.2s6.2 6.1 9.4 8.6l1 2.9c-2.8-2.2-6-4.7-8.1-6.2-1.6-1.2-3.9-2.9-6.3-3.7 0 0 2.2 2.8 3.9 4.2 2 1.6 4 3 5.7 3.9 1.6.8 2.3 1.3 5.3 2.7"/><path d="M64.4 84.7c.3-.2.5-.4.7-.6.4.5 1.7 2.1 2.3 3.7.5 1.4 1 3.2 1.2 4.3.3 1.1 1 3.3 1.5 4 0 0-2 .3-3.5-1.5-1.5-1.7-2-3.4-2.2-5.2-.2-1.4-.2-3.4 0-4.7m-3.2.3c.4.5.7.7.8.7l.3.1.3-.1c.3-.1.5-.2.7-.3.3.8.4 1.2.5 1.9.1.9.3 2.4-.1 3.6-.4 1.4-1.3 2.3-1.8 2.9 0 0-1.3-1.5-1.7-2.6-.4-1.3-.5-2.7 0-4.2.2-.9.6-1.6 1-2m-4.5.1c1.4-.2 2.4-.7 3.1-1.2.2.5.4 1.1.2 2-.2.9-.8 1.9-1.7 2.6-1.4 1.1-3.2 2.1-5.2 1.8 0 0-.4-1.5 3.6-5.2"/><path d="M55.2 82.6c.2 1.3.8 2.2.9 2.3-.5.6-2.2 3.5-5.7 3 0 0-1-2 1.4-3.6 1.5-1.1 2.3-1.3 3.4-1.7m.3-2.5c-.9.2-2.2.3-3.7 0l-.4-.1-.1-.4c-1.8 1.5-4 1.7-4.7 3.1 0 0 .9 1.7 3.3 1.4 2.4-.3 4.1-1.4 5.4-3-.1-.2.1-.7.2-1M51.4 78c.3-.5.6-1.3 1.3-2.1-1.6-.3-3-.3-4.8.1-2.2.4-4.4.9-5.5 4.2 0 0 1.4 1.2 3.9.7 2.1-.4 4-1.3 5.1-2.9m-.9-3.6c-.5-.5-1.1-1.1-1.4-1.9l-.2-.4c-1.9-.8-3.9-1.1-5.8-.4-1.9.7-2.4 1.5-2.9 2.3 0 0 2.1 1.8 4.6 1.8 2.4.1 4.7-.6 5.7-1.4m.5-3.9c.3-.1.7-.2 1.1-.3-.8-.7-1.7-1.9-2-3.5-.9.2-2.9.2-3.8-.1-.9-.3-2.7-.4-4.1.5 0 0 .5 2.4 3.6 3.3 2.9.8 4 .6 5.2.1m-1.1-4.7l.4-.3c.1 0 .8-.5 2-.6-1-.8-3.4-2.8-5.1-3.7-1.9-1-5-2.4-6.5-2.6 0 0 1.5 3.9 3.2 5.4 1.7 1.6 2.9 2.2 6 1.8m3.2-1.8c-.8-1-1.4-2.3-1.8-3.9-.4-1.3-1.2-4.5-1.7-5.3-.5-.8-2.2-3.8-5.6-4.7 0 0-.9 3.8.8 6.8 1.5 2.6 4.5 5.3 8.3 7.1m18.8 17.7c.4.4.7.7 1.5 1 0 0 1.1 2.1-.2 4.6-1.3 2.5-2.4 5-3 6.5 0 0-.7-.1-1.5-4-.5-2.7-1.2-3.3-1.9-4.2.8.4 1.4.5 1.4.5l.5.1.2-.5c.5-.9.6-1.8.6-2.5v-.7c1.2 0 1.9-.6 2.1-.9 0 0 0-.1.1-.1l.2.2"/><path d="M43.1 51.7v1.2l.1.9c-2-2.6-4.4-5.6-6.7-8.5-1.6-2-2.9-3.1-4.4-4.1 1.2 3.6 3.5 6.5 5 7.9 1.6 1.4 3.9 3.9 6.1 5.3l.2.7c.2.7.4 1.4.8 2 .5.9 1.2 1.8 2 2.7-.6-.3-1.4-.7-2.1-1l-.7-.3c-6.1-3.2-12.2-10-14.6-14.6-2.5-4.7-1.4-10.1-.8-13 2.8 2.4 6.8 7 8.5 9.5 2.1 3.1 4.9 7.5 6.6 11v.3m85.8 19.9c-.4-.2-.8-.4-1.4-.6 3.7-1.1 8.9-2.9 16.6-3.4 5.7-.4 9.7 0 11.8.5 0 0-5.1 3.6-11 4.9-5.9 1.3-10.7.5-14.2.5-.2-.3-.5-.7-.9-1.1 4.1 0 10.9-1 13.3-1.8 0-.1-5.9-1.3-14.2 1m0-4.4c0 .1-.5 2.2-2.9 3.4 5.2-2.3 15.6-3.6 21.1-5.9 7.5-3.1 8.9-7 8.9-7-6.5-.2-11.7 1.4-15.8 2.7-4.7 1.4-11.9 4.1-14.5 5.3 1 0 2 .3 2.9.9 3.5-1.4 5.2-1.9 8.4-2.8 2.5-.7 4.4-.8 6-1 0 0-2.2 1.5-5.9 2.6s-5.3 1.3-8.2 1.8m.4-5.7c-.2.4-.8 1.3-1.1 1.6 8.3-1.4 17.4-7.7 20.2-11.5 2.8-3.9 2-9.7 2-9.7-2.7.5-8.7 5.7-10.2 7.2s-6.2 6.1-9.4 8.6l-1 2.9c2.8-2.2 6-4.7 8.1-6.2 1.6-1.2 3.9-2.9 6.2-3.7 0 0-2.1 2.8-3.9 4.2-2 1.6-4 3-5.7 3.9-1.4.8-2.2 1.3-5.2 2.7m-2-9.8v1.2l-.1.9c2-2.6 4.4-5.6 6.7-8.5 1.6-2 2.9-3.1 4.4-4.1-1.2 3.6-3.5 6.5-5 7.9-1.6 1.4-3.8 3.9-6.1 5.3l-.2.7c-.2.7-.4 1.4-.8 2-.5.9-1.2 1.8-2 2.7.6-.3 1.4-.7 2.1-1l.7-.3c6.1-3.2 12.2-10 14.6-14.6 2.4-4.7 1.4-10.1.8-13-2.8 2.4-6.8 7-8.5 9.5-2.1 3.1-4.9 7.5-6.6 11v.3M50.9 88.6c-2.5 2.5-7.8 8.2-7.3 14.3 0 0 4.9-1.5 7-5.2 2-3.6 3.3-5.9 4.1-6.7-.5.1-1.1.1-1.6 0h-.5c-1.3 2.3-3.7 6-6 7.3 0 0-.6-3 6-9.2.1-.3.2-.5.4-.9-.6.3-1.3.4-2.1.4m67.7-34c-1.3 2.8-3.3 5.6-8.9 9.5-1.3.9-2.6 2.6-1.6 5.2 1.1 2.5 3 6.1 1.8 7.5-1.2 1.4-5.4 2.1-8.9.7 0 0-.7 2.2-2 3.6 0 0 .6 1.2 2.6.6 0 0-.7 1.8.3 3.7 0 0 2.3-.4 3.3-2.5 0 0 .9 1.7 2.8 2.2 0 0 1.5-.8 1.2-3.8 0 0 1.1 2.7 4.6 3.2 0 0 2-2.5-.6-5.9 0 0 1.9 1.7 5.2.9 0 0 .5-1.7-2.5-4.1 0 0 3.5-.1 4.8-3 0 0-1.5-1.8-5-1.4 0 0 3.3-.7 4-4.7 0 0-2.4-1.5-6.1.9 0 0 .7-1.3 2.2-2.5 1.5-1.4 3.4-4.9 2.8-10.1m-13.9 39.9c.5-.7.9-1.3 1.2-2-.6 4.8-.8 8.1-3.4 11.2 0 0-1.6-2.1-.6-7.1.4-.1.9-.3 1.4-.7 0 0-.6 2.1-.2 4.1 0 0 .9-.6 1.6-5.5m4.5-.5c.3-.4.9-1.2 1.2-1.8.2 2.8 1 10.1-1.5 12.4 0 0-1.7-1.2-2.3-12 .4.6 1 1.2 1.3 1.6 0 0-.4 3.4.8 5.8.1.1 1.3-.8.5-6m5.9 5.6c-2.1-2.5-2.7-9.9-2.7-9.9l-.9-.6-.3-.3v.8c.3 4.5.7 9.1 2 11.4 1.4 2.2 3.9 3.4 3.9 3.4 2.4-4.2-.5-9.8-2.9-13.7-.3-.1-.6-.3-.9-.4.9 3 2.5 6.6 1.8 9.3m5.8-12.8c0 .5-.1.9-.1 1.1 0 .1-.1.2-.1.3 2 1.9 3.4 3.8 6.4 7.9 2.9 4.1 7.6 4.2 7.6 4.2-.4-3.3-1.3-5.9-3.8-8.7-2.5-2.8-5.7-5.4-8-7.1-.6.3-1.4.4-2.4.3h-.2c.3.4.5.8.6 1.2 1.8 1 6.9 3.6 9 7.8-.1-.1-3.4-1.1-9-7m3.7-4.1l-.2-.3c-.1-.1-.1-.2-.2-.3 1.9.7 8.7 3.3 10.9 4.4 2.2 1.1 5.4 3.7 7.1 9 0 0-4.6.4-8.4-2.7-3.8-3.1-8.2-7.5-10.1-8.9.2-.2.3-.3.4-.5 0 0 5.1 4.5 10.5 6.5 0 0-1.2-2.1-3.3-3.6-2.5-2-4.4-2.6-6.7-3.6m3.9-3.2c-.1-.2-.1-.4-.2-.5 2.2.5 7.8 1.1 10.4 1.9 2.5.8 7 2.6 9.7 7.7 0 0-3.9 1.2-11.4-2.3-7.4-3.5-9.8-4.2-11.2-4.6 1.1-.1 1.9-.5 2.3-.7 3 1.3 6.9 2.9 10.9 3 0 0-1.9-1.4-4-2.2-2.2-.9-4.6-1.8-6.5-2.3m-.2-3.6c-.7.3-1.3.5-2.2.6.5.3 1 .8 1.5 1.3 2.6.8 7.1 1.6 14.5 2.1s11.3-.8 11.3-.8c-2.6-1.6-6.7-3.2-9.4-3.7-2.8-.5-10-.5-13.2-.9 0 0-.4.3-1 .7 2.7.2 8.4.5 11.3 2-.2 0-5.6.7-12.8-1.3"/><path d="M105.9 84.7c-.3-.2-.5-.4-.7-.6-.4.5-1.7 2.1-2.3 3.7-.5 1.4-1 3.2-1.2 4.3-.3 1.1-1 3.3-1.5 4 0 0 2 .3 3.5-1.5 1.5-1.7 2-3.4 2.2-5.2.3-1.4.2-3.4 0-4.7m3.2.3c-.4.5-.7.7-.8.7l-.3.1-.3-.1c-.2-.1-.5-.2-.7-.3-.3.8-.4 1.2-.5 1.9-.1.9-.3 2.4.1 3.6.4 1.4 1.3 2.3 1.8 2.9 0 0 1.3-1.5 1.7-2.6.4-1.3.5-2.7.1-4.2-.3-.9-.7-1.6-1.1-2m4.5.1c-1.4-.2-2.4-.7-3.1-1.2-.2.5-.4 1.1-.2 2 .2.9.8 1.9 1.7 2.6 1.4 1.1 3.2 2.1 5.2 1.8 0 0 .5-1.5-3.6-5.2m1.6-2.5c-.2 1.3-.8 2.2-.9 2.3.5.6 2.2 3.5 5.7 3 0 0 .9-2-1.4-3.6-1.6-1.1-2.3-1.3-3.4-1.7m-.3-2.5c.9.2 2.2.3 3.7 0l.4-.1.1-.4c1.8 1.5 4 1.7 4.7 3.1 0 0-.9 1.7-3.3 1.4-2.4-.3-4.1-1.4-5.4-3 0-.2-.1-.7-.2-1m4-2.1c-.3-.5-.6-1.3-1.3-2.1 1.6-.3 3-.3 4.8.1 2.2.4 4.4.9 5.5 4.2 0 0-1.4 1.2-3.9.7-2.1-.4-4-1.3-5.1-2.9m1-3.6c.5-.5 1.1-1.1 1.4-1.9l.2-.4c1.9-.8 3.9-1.2 5.8-.4 1.9.7 2.4 1.5 2.9 2.3 0 0-2.1 1.8-4.6 1.8-2.5.1-4.7-.6-5.7-1.4m-.6-3.9c-.3-.1-.7-.2-1.1-.3.8-.7 1.7-1.9 2.1-3.5.9.2 2.9.2 3.8-.1.9-.3 2.7-.4 4.1.5 0 0-.5 2.4-3.6 3.3-3 .8-4.1.6-5.3.1m1.1-4.7l-.4-.3c-.1 0-.8-.5-2-.6 1-.8 3.4-2.8 5.1-3.7 1.9-1 5-2.4 6.5-2.6 0 0-1.5 3.9-3.2 5.4-1.7 1.6-2.9 2.2-6 1.8m-3.2-1.8c.8-1 1.4-2.3 1.8-3.9.4-1.3 1.2-4.5 1.7-5.3.5-.8 2.2-3.8 5.6-4.7 0 0 .9 3.8-.8 6.8-1.5 2.6-4.5 5.3-8.3 7.1M98.4 81.7c-.4.4-.8.7-1.5 1 0 0-1.1 2.1.2 4.6 1.3 2.5 2.4 5 3 6.5 0 0 .7-.1 1.5-4 .5-2.7 1.2-3.3 1.9-4.2-.8.4-1.4.5-1.4.5l-.5.1-.2-.5c-.5-.9-.6-1.8-.6-2.5v-.7c-1.2 0-1.9-.6-2.1-.9 0 0 0-.1-.1-.1l-.2.2"/><path d="M119.5 88.6c2.5 2.5 7.8 8.2 7.3 14.3 0 0-4.9-1.5-7-5.2-2-3.6-3.3-5.9-4.1-6.7.5.1 1.1.1 1.6 0l.5-.1c1.2 2.3 3.7 6 6 7.3 0 0 .6-3-6-9.2-.1-.3-.2-.5-.4-.9.5.4 1.2.5 2.1.5M81.3 39.7c0-.5 1.7-.8 3.9-.8 2.1 0 3.9.4 3.9.8s-1.7.8-3.9.8-3.9-.4-3.9-.8m-13.1 4.4c0-.3 1.1-.4 2.5-.4s2.5.2 2.5.4-1.1.4-2.5.4c-1.4.1-2.5-.1-2.5-.4m17.7-2.6c0 .4-.3.8-.8.8-.4 0-.8-.3-.8-.8 0-.4.3-.8.8-.8s.8.4.8.8M81 38.9c-1.3-3.1-2.1-5.3-2.1-6.1 0-.5.6-.8 1.1-1 .5-.2 1-.2 1.3.1.7.5 1.3 4.6 1.5 6.4-.6.1-1 .2-1.8.6m2.4-.7c.3 0 .7-.1 1-.1-.2-1.6-.8-4.4-1.1-5.4-.3-1.1-.8-1.9-1.5-2.1 0 0 .5 1.5.9 3.1.2 1.5.5 3 .7 4.5m-2 5.3c-2 1.1-4.2 1-4.2 1 .4-.8.8-1.5 2.1-2.4 1.2-.9 3.2-1.1 4-1-.1.6-.9 1.9-1.9 2.4m-2.1.2c1.4-.3 2.9-1.8 2.9-1.8-2.3.3-2.9 1.8-2.9 1.8zm-11.7 1s2.5.9 4.9.8c2.4-.1 7-.2 8.4-.9 0 0-.2.9-1.4 1.5 0 0 .6 0 1.2.5 0 0-.4.8-1.4 1.2 0 0 1.9 1.9 3.9 1.8 0 0-.9 1.1-3 .7-2-.4-2.7-1.6-3.1-2 0 0 .3 1.1.1 1.5 0 0-.9-.1-1.6-.9 0 0 .5.9.6 1.6 0 0-.6.1-1.6-.5 0 0 .2.5.3 1.2 0 0-2.4-.8-3.5-1.8v1.2c.2-.2-3.5-.5-3.8-5.9m6.5 2.1v-.2c-1.9.2-4.2.1-4.2.1.1.7.4 1.3.9 1.6.1-1.5 3.3-1.5 3.3-1.5zm-7-1.7c.1 1.2.4 2.3.8 3.1 0 0-1.4-1.1-1.8-2-.4-.9-.5-1.6 1-1.1m.6 3.7c1 .4 1.8 1.5 1.8 1.5-1.5.3-2.1.8-2.1.8-2.8-2-5.1 0-5.1 0-1.5-.9-1.8-3-1.1-4.1.8-1.1 2.5-.9 3.3-.7.5 1.6 2.3 2.1 3.2 2.5m-3.5.7c.3 0 .6-.3.6-.6s-.3-.6-.6-.6-.6.3-.6.6.2.6.6.6zm5.6 1.1s1 1.4 1.8 2c0 0-3.8 0-4.7 3.2 0 0-1.3-2-.4-3.3 1.1-1.4 2-1.6 3.3-1.9"/><path d="M74 51.4s1.2.4 1.6.5v-1c.4.1.8.2 1.2.2 0 0 1.2 2.7 2.2 3.8 0 0 .1.6-.5 1.5 0 0-.7-1.6-1.9-2.9-.7-.7-1.2-1-2.6-2.1m-3.2-.5c.4.1 2.3.7 3.3 1.4 1.2.8 2 1.8 1.9 3.5 0 0-1-1.3-2-1.9-.9-.5-2.4-1.9-3.2-3m0-12.3c.4 0 1.1.2 1.1.7 0 .6-.9 2-1.1 2.6-.2-.6-1.1-2-1.1-2.6 0-.6.7-.7 1.1-.7m-.8 4.5c-.2-.8-.5-2.9-1-3.4-.5-.4-1.2-.5-1.5-.5-.4 0-.7.4-.6.9.1.5 1.7 2.8 1.9 3.1.4-.1.3 0 1.2-.1m1.4 0c.2-.8.5-2.9 1-3.4.5-.4 1.2-.5 1.5-.5.4 0 .7.4.6.9-.2.5-1.7 2.8-1.9 3.1-.4-.1-.3 0-1.2-.1m1-7.4h-1.2v-1.3h-1v1.3H69v.9h1.2v1.6h1v-1.6h1.2v-.9m-14.8 8.7c0-.3 0-.5.1-.8.1-.7.1-1.2 0-1.7-.9.3-1.5.5-2.7 2.5 0 .1 2-1.1 2.6 0"/><path d="M59.3 47.5c0-.5.3-2 .7-3.1.5-1.3.2-3.3-.4-4.4-.6-1.1-.9-2.2-.8-3.3 0 0-1.1.4-1.8.8-.1 1.4.7 2.7 1.1 3.5.4.9.4 2.1.3 2.8-.2 1.2.1 2.5.9 3.7m.1-10.3v-.8s1.8-1.7 3.3-2c1-.2 1.5.2 1.8.5 0 0-.5-.1-1.3.6s-1.8 1.4-2.6 1.6c-.6.2-.8.1-1.2.1m5.4-2.2c.7.7 1.2 1.4 1.2 2 0 .6-.8 2.3-1.1 2.9-.4.6-1 1.4-.9 2.4 0 .5.4 1 .8 1.4 0 0-2.2-.5-2.5-1.9-.2-1.2.3-2.1.6-2.7.3-.6 1.3-2.1 1.6-2.7.2-.6.4-1.1.3-1.4m12.8 15.3c.4 1.6 1.2 3 1.9 4.2.7 1.1 1.1 2.7 1 3.3 0 0 1-2.2.5-3.7-.3-1.3-1.4-3.1-3.4-3.8m2.5.5s1.5 0 2.2.5c.9.6 1.8 1.9 2.1 3.5 0 0-1.5-.3-2.3-1-.7-.8-1.6-1.9-2-3m-7.8 2.7c-.3 0-1.1.2-1.4.3 0 0 1.3.4 1.9.9.5.4 1 1.1 1.2 2.3.3 1.6 1.3 3.4 1.6 3.9h.1c-.2-1.1.5-3.5.7-3.8 0 0-1-.6-1.5-1.3-.3-.4-.9-1.2-2.6-2.3m6.7 3.6c.4.9 1.4 2.4.9 4-.5 1.6-1.5 2.3-2.2 3.6 0 0-.5-2.4-.4-4.3.1-1.9.8-2.7 1.7-3.3m2.9 0s1.5 2.9 1.8 4c.3 1.1 0 1.9-.5 2.6-.5.7-1.4 1.4-2.2 2.9 0 0-.9-1.2-1-1.9-.1-.6.1-2.2.3-2.8.1-.6.9-2.7 1.6-4.8m.7 9.3c-.3.4-2.1 2.5-2.3 3.1-.2.6-.6 1.8-.1 2.6s1.8 2.1 2.9 2.6c0 0-1.2-1.9-1.1-3.4.1-1 .8-1.8 1-2.4.2-.6.1-1.6-.4-2.5m-3.4-1.2c.3.4.7 1.3.8 2.2.1.9-.1 1.6-.6 2.8-.6 1.6-1.5 3.4-2 4.2 0 0-.8-1.2-1.3-2.2 0 0 1.3-1.8 1.8-3 .8-1.5 1.1-2.8 1.3-4m-.6-.6s-.6 4.1-3 7.2c-1.7 2.1-3 2.8-3.9 2.8-1.3 0-2.7-1.1-3.1-2.4-.5-1.3-.3-3.3.6-4 0 0 .8 2.5 2.5 2.6 1.9.1 4.4-2.1 6.9-6.2"/><path d="M76.6 62.8c.2.7.3 1.9 0 2.9-.2.8-.7 1.9-1.7 2.5-.8.5-2.8.6-3.5-1.2.1 0 3.6.3 5.2-4.2m5.8 16.7c.5 1.2 2.2 2.8 2.2 3.8 0 2.6-1.2 4.1-1.4 5 0 0-2.1-1.6-2.4-3.5-.2-1 0-3.8 1.6-5.3m-2.3 1.8c.2-.7 1-2.5 1.9-3.1 0 0 1.1-3.3-2.5-5.3 0 0-1.5 2-1.9 3.8-.4 1.9 1.6 3 2.5 4.6M75.6 73c-.6.7-1.4 1.7-2 2 0 0-.2 1.5-.1 2.5.2 1.5 1.1 2.9 1.5 4 0 0 1.6-2.1 1.8-3.3.2-1.2.2-2.2.2-2.8 0 0-.9-1.4-1.4-2.4m-4.2 7.1c-.4-.7-1.9-3.2-1.9-5 0 0 1.8.9 3.3.2 0 0 .2 2.4-.1 3.2-.2.7-.5 1-1.3 1.6m.4.5c.3-.3 1-.9 1.3-1.2 0 0 1.2 2.2 1.4 2.8 0 0-.6.2-1.2-.3-.7-.6-.8-.7-1.5-1.3m5.5-1.3c-.1.5-2.1 3.2-2.4 3.5 0 0 .1 1 .9 2.3.7 1.4 1.7 2.3 2.2 2.8 0 0 1.2-2.1 1.5-3 .4-1 .3-2.1.2-2.4-.4-.8-1.8-2.1-2.4-3.2m2.9 7c.4.9 1.7 2.3 1.9 3.4.2.9 0 1.6-.2 2.2-.2.6-1 1.8-1.5 2.6 0 0-1.7-1.6-2.1-2.8-.3-.9-.2-2.1.2-2.9.4-.9 1.3-1.7 1.7-2.5m-5-.3c.4 1 1.5 2 1.8 2.8.3 1 .4 1.7-.1 2.9-.4 1-1 1.6-1.1 2.3 0 0-1.4-1.8-1.7-2.6-.2-.8-.3-2 0-2.8.3-.8.8-1.8 1.1-2.6m7 7s-2.4 2.9-2.4 4.5c.1 1.9 1.4 3.2 1.5 4.4 0 0 1.3-1.4 1.8-2.4.5-1.1 1-2 .8-3.3-.1-1.2-.4-2-1.7-3.2m-4.5-.3c.4.6 1.5 2.5 1.2 3.6-.3 1.2-1.5 2.8-1.9 3.5 0 0-1-2-1.2-2.9-.2-.9 0-2.4 1.9-4.2m24.4-48.6c0-.3-1.1-.4-2.5-.4s-2.5.2-2.5.4 1.1.4 2.5.4c1.4.1 2.5-.1 2.5-.4m-16.9-7.6c.2-1.1 1.4-3.5 1.4-4.5 0-.8-.7-1.5-1.5-1.5s-1.5.7-1.5 1.5c.1 1 1.4 3.4 1.6 4.5m4.1 2.4c1.3-3.1 2.1-5.3 2.1-6.1 0-.5-.6-.8-1.1-1-.5-.2-1-.2-1.3.1-.7.5-1.3 4.6-1.5 6.4.7.1 1 .2 1.8.6m-2.3-.7c-.3 0-.7-.1-1-.1.2-1.6.8-4.4 1.1-5.4.3-1.1.8-1.9 1.5-2.1 0 0-.6 1.5-.9 3.1-.3 1.5-.6 3-.7 4.5m0 2.9c.8-.1 2.8.1 4 1 1.2.9 1.6 1.6 2.1 2.4 0 0-2.2.2-4.2-1-.9-.5-1.7-1.8-1.9-2.4m1.2.7s1.4 1.5 2.9 1.8c-.1.1-.7-1.4-2.9-1.8z"/><path d="M98.7 50.4c.1-.4 0-1.2 0-1.2-1.1 1.1-3.5 1.8-3.5 1.8 0-.6.2-1.2.2-1.2-1 .6-1.6.5-1.6.5.1-.7.6-1.6.6-1.6-.7.9-1.6.9-1.6.9-.1-.4.1-1.5.1-1.5-.3.4-1 1.6-3.1 2-2.1.4-3-.7-3-.7 2 .1 3.9-1.8 3.9-1.8-1-.4-1.4-1.2-1.4-1.2.6-.5 1.2-.5 1.2-.5-1.2-.5-1.4-1.5-1.4-1.5 1.5.7 6 .8 8.4.9 2.5.1 4.9-.8 4.9-.8 0 5.6-3.7 5.9-3.7 5.9m.9-2c.5-.3.8-.9.9-1.6 0 0-2.3.1-4.2-.1v.2c0-.1 3.1-.1 3.3 1.5zm3.7-3.3c-.1 1.2-.4 2.3-.8 3.1 0 0 1.4-1.1 1.8-2 .3-.9.4-1.6-1-1.1m2.5 1.1c.8-.2 2.5-.4 3.3.7.8 1.1.5 3.2-1.1 4.1 0 0-2.3-2-5.1 0 0 0-.7-.4-2.1-.8 0 0 .9-1 1.8-1.5.9-.3 2.7-.8 3.2-2.5m1 2.7c0-.3-.3-.6-.6-.6s-.6.3-.6.6.3.6.6.6.6-.3.6-.6zm-6.3 1.7s-1 1.4-1.8 2c0 0 3.8 0 4.7 3.2 0 0 1.3-2 .4-3.3-1-1.4-2-1.6-3.3-1.9"/><path d="M96.3 51.4s-1.2.4-1.6.5v-1c-.4.1-.8.2-1.2.2 0 0-1.2 2.7-2.2 3.8 0 0-.1.6.5 1.5 0 0 .7-1.6 1.9-2.9.7-.7 1.2-1 2.6-2.1m3.2-.5c-.4.1-2.3.7-3.3 1.4-1.2.8-2 1.8-1.9 3.5 0 0 1-1.3 2-1.9.9-.5 2.4-1.9 3.2-3m0-12.3c-.4 0-1.1.2-1.1.7 0 .6.9 2 1.1 2.6.2-.6 1.1-2 1.1-2.6 0-.6-.7-.7-1.1-.7m.8 4.5c.2-.8.5-2.9 1-3.4.5-.4 1.2-.5 1.5-.5.4 0 .7.4.6.9-.1.5-1.7 2.8-1.9 3.1-.4-.1-.3 0-1.2-.1m-1.4 0c-.2-.8-.5-2.9-1-3.4-.5-.4-1.2-.5-1.5-.5-.3 0-.7.4-.6.9.1.5 1.7 2.8 1.9 3.1.4-.1.3 0 1.2-.1m-1-7.4h1.2v-1.3h1v1.3h1.2v.9h-1.2v1.6h-1v-1.6h-1.2v-.9m-14.5-8h1.3v-1.3h1v1.3h1.2v.9h-1.2v1.6h-1v-1.6h-1.3v-.9m29.3 16.7c0-.3 0-.5-.1-.8-.1-.7-.1-1.2 0-1.7.9.3 1.5.5 2.7 2.5 0 .1-1.9-1.1-2.6 0"/><path d="M111 47.5c0-.5-.3-2-.7-3.1-.5-1.3-.2-3.3.4-4.4.6-1.1.9-2.2.8-3.3 0 0 1.1.4 1.8.8.1 1.4-.7 2.7-1 3.5-.5.9-.4 2.1-.3 2.8.1 1.2-.2 2.5-1 3.7m-.1-10.3v-.8s-1.8-1.7-3.3-2c-1-.2-1.5.2-1.8.5 0 0 .5-.1 1.3.6s1.8 1.4 2.6 1.6c.7.2.8.1 1.2.1m-5.3-2.2c-.7.7-1.2 1.4-1.2 2 0 .6.8 2.3 1.1 2.9.4.6 1 1.4.9 2.4 0 .5-.4 1-.8 1.4 0 0 2.2-.5 2.5-1.9.2-1.2-.3-2.1-.6-2.7-.3-.6-1.3-2.1-1.6-2.7-.3-.6-.4-1.1-.3-1.4M92.7 50.3c-.4 1.6-1.2 3-1.9 4.2-.7 1.1-1.1 2.7-1 3.3 0 0-1-2.2-.5-3.7.4-1.3 1.4-3.1 3.4-3.8m-2.5.5s-1.5 0-2.2.5c-.9.6-1.8 1.9-2.1 3.5 0 0 1.5-.3 2.3-1 .7-.8 1.7-1.9 2-3m7.8 2.7c.3 0 1.1.2 1.4.3 0 0-1.3.4-1.9.9-.5.4-1 1.1-1.2 2.3-.3 1.7-1.3 3.5-1.6 4h-.1c.2-1.1-.5-3.5-.7-3.8 0 0 1-.6 1.5-1.3.3-.5 1-1.3 2.6-2.4m-6.7 3.6c-.4.9-1.4 2.4-.9 4 .5 1.6 1.5 2.3 2.2 3.6 0 0 .5-2.4.4-4.3-.1-1.9-.8-2.7-1.7-3.3m-6.1 4.4c.1-.9 2.2-3.2 2.1-4.4-.1-1.2-1.7-2.1-2.1-2.3-.4.2-2 1-2.1 2.3-.2 1.2 2 3.5 2.1 4.4m3.3-4.4s-1.5 2.9-1.8 4c-.3 1.1 0 1.9.5 2.6.5.7 1.4 1.4 2.2 2.9 0 0 .9-1.2 1-1.9.1-.6-.1-2.2-.3-2.8-.2-.6-1-2.7-1.6-4.8m-3.3 11.3c.7-.6 1.3-1.5 1.5-2 .2-.5.2-1.3-.2-1.9-.5-.7-1.2-1.5-1.3-2.1-.1.6-.7 1.4-1.3 2.1-.5.6-.4 1.3-.2 1.9.1.5.8 1.4 1.5 2m2.5-2c.3.4 2.1 2.5 2.3 3.1.2.6.6 1.8.1 2.6s-1.8 2.1-2.9 2.6c0 0 1.2-1.9 1.1-3.4-.1-1-.8-1.8-1-2.4-.1-.6 0-1.6.4-2.5m3.4-1.2c-.3.4-.7 1.3-.8 2.2-.1.9.1 1.6.6 2.8.6 1.6 1.5 3.4 2 4.2 0 0 .8-1.2 1.3-2.2 0 0-1.3-1.8-1.8-3-.8-1.5-1-2.8-1.3-4m.6-.6s.6 4.1 3 7.2c1.6 2.1 3 2.8 3.9 2.8 1.3 0 2.7-1.1 3.1-2.4.4-1.3.3-3.3-.6-4 0 0-.8 2.5-2.5 2.6-1.9.1-4.4-2.1-6.9-6.2"/><path d="M93.7 62.8c-.2.7-.3 1.9 0 2.9.2.8.7 1.9 1.7 2.5.8.5 2.8.6 3.5-1.2 0 0-3.6.3-5.2-4.2m-8.5 12.3c.5-.2.9-.4 1.5-1.3.4-.7.9-2 .6-2.9-.3-1.1-.9-1.6-1.3-2.3-.3.3-.5.5-.8.7-.4-.2-.6-.4-.9-.7-.4.7-1 1.2-1.3 2.3-.2.9.2 2.2.6 2.9.6.9 1.1 1.1 1.6 1.3m0 7c.2-1.1 2.5-3.2 2.3-4.4-.3-1.7-1.4-1.4-2.3-2.1-.9.7-2 .4-2.3 2.1-.3 1.2 2 3.3 2.3 4.4m2.7-2.6c-.5 1.2-2.2 2.8-2.2 3.8 0 2.6 1.2 4.1 1.4 5 0 0 2.1-1.6 2.4-3.5.2-1 0-3.8-1.6-5.3m2.3 1.8c-.2-.7-1-2.5-1.9-3.1 0 0-1.1-3.3 2.5-5.3 0 0 1.5 2 1.9 3.8.4 1.9-1.6 3-2.5 4.6m4.5-8.3c.6.7 1.4 1.7 2 2 0 0 .2 1.5.1 2.5-.2 1.5-1.1 2.9-1.5 4 0 0-1.6-2.1-1.8-3.3-.2-1.2-.1-2.2-.2-2.8.1 0 .9-1.4 1.4-2.4m4.2 7.1c.5-.7 1.9-3.2 1.9-5 0 0-1.8.9-3.3.2 0 0-.2 2.4.1 3.2.3.7.6 1 1.3 1.6m-.4.5c-.3-.3-1-.9-1.3-1.2 0 0-1.2 2.2-1.4 2.8 0 0 .6.2 1.2-.3.7-.6.8-.7 1.5-1.3M93 79.3c.1.5 2.1 3.2 2.4 3.5 0 0-.2 1-.9 2.3-.7 1.4-1.7 2.3-2.2 2.8 0 0-1.2-2.1-1.5-3-.4-1-.4-2.1-.2-2.4.4-.8 1.8-2.1 2.4-3.2M85.2 95c.2-.7 1.3-1.6 1.7-2.9.3-.7.3-1.6 0-2.2-.3-.7-1.6-2.4-1.7-2.9-.2.5-1.4 2.2-1.7 2.9-.3.6-.3 1.5 0 2.2.4 1.3 1.5 2.2 1.7 2.9m4.9-8.7c-.4.9-1.7 2.3-1.9 3.4-.2.9 0 1.6.2 2.2.2.6 1 1.8 1.5 2.6 0 0 1.7-1.6 2.1-2.8.3-.9.2-2.1-.2-2.9-.4-.9-1.3-1.7-1.7-2.5m5-.3c-.5 1-1.5 2-1.8 2.8-.3 1-.4 1.7.1 2.9.4 1 1 1.6 1.1 2.3 0 0 1.4-1.8 1.6-2.6.2-.8.3-2 0-2.8-.2-.8-.7-1.8-1-2.6m-9.9 23.1c.1-.9 1.9-3.7 2-6.6 0-1.5-1.3-3.8-2-4.7-.7.9-2.1 3.2-2 4.7 0 2.9 1.9 5.7 2 6.6M88.1 93s2.4 2.9 2.4 4.5c-.1 1.9-1.4 3.2-1.5 4.4 0 0-1.3-1.4-1.8-2.4-.5-1.1-1-2-.8-3.3.1-1.2.4-2 1.7-3.2m4.5-.3c-.4.6-1.5 2.5-1.2 3.6.3 1.2 1.5 2.8 1.9 3.5 0 0 1-2 1.2-2.9.2-.9 0-2.4-1.9-4.2"/><path d="M86.8 113.8c.2-2.3 1.5-3.7 1.7-4.8.3-1.3.2-2.6-.8-4.1-.8 2.8-1.7 4.9-2.4 6.3 0 0 0 .1-.1.1 0 0 0-.1-.1-.1-.7-1.4-1.6-3.5-2.4-6.3-1 1.5-1.1 2.8-.9 4.1.2 1.2 1.5 2.6 1.7 4.8.1 2.3-2.4 3.2-2.4 3.2.9.3 1.9.5 3.4-1 .3-.3.5-.6.7-.9.2.3.4.6.7.9 1.6 1.5 2.6 1.4 3.4 1 0 0-2.6-.9-2.5-3.2m-8.1-15.2c.3.9 1.1 2.4 1.2 2.9.2.9-.1 2-1.7 3.2 0 0-1.1-.8-1.5-1.7-.4-.9-.2-1.6.2-2.1s1.4-1.6 1.8-2.3m3.5 3.4c0 .5-.3 3.1-1.1 4.3-1 1.8-2.6 3.1-3.9 3.1-1.2 0-1.5-.7-2.1-1 0 0 .3-1.6 1.7-2 1.7-.5 4.3-2.5 5.4-4.4"/><path d="M77.7 105.3c-.3-.2-.5-.4-.9-.8 0 0-1.3.5-2.4 1.2-1.1.7-2.1 2-2.7 2.6 0 0 1.6.4 2.6-.1 0 0 .4-1.5 1.5-2.2.4-.1 1.2-.3 1.9-.7m-1.3-1.3c-.3-.4-.8-1.1-.7-2.2 0 0-2.3 1.5-2.9 2-.7.6-2.1 2-2.4 2.5 0 0 1.7-.4 3-.8 1.5-.6 2.5-1.2 3-1.5m-3.8 2.4c-1.2.4-4 .9-5.1 1.2-1.2.3-2 .9-3.1 2.1 0 0 1.7.5 2.6.8 0 0 1.4-1 3-1.6 1-.3 1.5-1.4 2.6-2.5m-2.6 8.2c.3-.3.6-.6.3-1.3-.2-.5-1.2-1.1-1.8-1.3-1-.5-3.7-1.2-4.6-1.5 0 0-.4.5-.7 1.1-.1.2 0 .4.4.5.8.1 2.6-.2 3.1.1.5.3.3.7.3 1.2 0 0 .8-.5 1.4-.4.7 0 1.2.3 1.6 1.6m-2.5-3.9c.2.1 1.3.4 2.3 1.1 0 0 .5-.2.7-.6.2-.4 1.2-1.8 2-2 0 0-.7-.1-1.2-.2 0 0-.9.2-1.5.5-.5.2-1.3.6-2.3 1.2m7.1-1.7c-.2.1-.4.2-1.1.2 0 0-2.4 1.7-2.7 3.3-.2 1.4.5 2.1.9 2.3.4.2 2.1.9 3.1-1.4 0 0-1.9.6-2.4-.3-.5-.9.3-2.2.8-2.6.7-.5 1.9-.8 2.6-.7.1.1-.5-.5-1.2-.8"/><path d="M58.8 128.1c.3-1.2.6-2.5 1.2-3.7 1.1-2.3 3.8-8.5 9.3-9.5.5-.1-.6-1.4-1.1-1.3-.5.1-1.5.7-1.9 1V113c0-.2-.2-.3-.4-.3s-1.6 0-2 .5c-1.3 1.5-3.4 5.4-4.6 8.4-1.2 2.9-2 3.9-3.3 3.4-1.3-.5-2.1-1.9-4.3-1.5-.8.2-1.6.7-2.3 1.4.2.4.4.8 1.5.8 1 0 3 .4 4.1 1.2 1.1.8 2.2 1.1 3.8 1.2m22.3-19c.1 1 .6 1.8 1.1 2.8 0 0-1.7 7.8-7.8 8.4 0 0 .1-1.6 1.9-2.9 1.8-1.2 4.5-3.2 4.3-6.1 0 0-.5.1-1.4 1.2-.9 1.1-2.8 4.2-5.7 4.3 0 0 .4-1.5 1.8-2.3 1.3-.8 3-1.9 3.7-3.3.8-1.3 1.5-1.9 2.1-2.1m-2.9 28.5l3.7 5.2 2.8-5-1-1.8c-.7 1.3-1.5 2.7-2 3.5-.4-.5-1.3-1.8-2.5-3.5l-1 1.6"/><path d="M77.2 133.2c-3.6-5.1-8.1-11.4-8.6-12l1.4-1-4.4-1.7.1 4.9 1.5-1.1 9 12.6 1-1.7m-30.7-28.7c1.1-1.2 3-.2 4.8 1.6 1.9 1.7 3.1 3.5 2 4.7-1 1.1-3 .2-4.9-1.6-1.8-1.7-3-3.5-1.9-4.7"/><path d="M49.6 125.8l-.2-.2c-1-.9-1.6-2.2-1.6-3.7 0-2.8 2.3-5.1 5.1-5.1s5.1 2.3 5.1 5.1c0 .4-.1 1-.1 1 .2-.4 1.1-2.4 1.2-2.8-.8-2.8-3.3-4.8-6.3-4.8-2.6 0-4.8 1.5-5.9 3.7.4-2.6 1.7-4.9 2.6-5.8 1.1-1 2.9-1.4 2.9-1.4-1.2.2-2.8-.6-4.6-2.2-1.7-1.6-2.6-2.9-2.6-4.1.1 1.6.1 2.5-.4 3.8-.6 1.8-2.3 5.1-1.7 8.8.3 2 1.8 5.1 4.3 7.6.5.6.7 1.4.8 1.8 0 0 3.7 0 4.5.1 0 0 .9-.1.9-.6s-.5-.7-.9-.7c-.4.2-2.2.3-3.1-.5m20.2 1.3c-2.4.8-4.7 1.3-6.9 1.6-1.5.2-2.9.3-4.2.2 0 .2 0 .5-.1.7 0 0 .3.3.3.7 1.4.1 2.8 0 4.3-.3 2.4-.4 5-.9 7.6-1.8l-1-1.1m3.8-.2c3.1-1.7 6.2-4.3 8.9-8.5l.5-.8c-.8.3-1.7.1-1.7.1-.1.1-.2.3-.2.4-2.6 3.8-5.4 6.2-8.3 7.7l.8 1.1m-20.5 1.3c-.4-.1-1.8 0-2.6.1-.9.1-1.9.3-2 .8-.1.5.2 1 .7 1.7.3.4 1 .2 1.3 0 .4-.1 2.5-1.3 2.8-1.6.3-.3.4-.9-.2-1m2.1 1.4c-.2-.1-.8-.4-1.3-.1-.6.2-2.7 1.4-2.8 2-.1.6.1.9.5 1 .3.1.7.3 1 .3.5 0 1-.3 1.3-.6.3-.3 1.2-1.5 1.4-1.8.1-.2.1-.6-.1-.8m.3 1.3c-.3.3-1.1 1.4-1.2 1.5-.1.2.1.4.3.4.3 0 1.7-.2 2.5-.7.8-.6 1.4-1.7.8-2-.6-.4-1.5-.2-2.4.8m.4-3.1c-.3-.1-1.4-.3-1.6 0-.3.4-.1.9.8 1.3.8.4 2.4.7 2.7.3.3-.4-.1-1.1-1.9-1.6m35.7-29.2c-.3.9-1.1 2.4-1.2 2.9-.2.9.1 2 1.7 3.2 0 0 1.1-.8 1.5-1.7.4-.9.2-1.6-.2-2.1s-1.4-1.6-1.8-2.3m-3.5 3.4c0 .5.3 3.1 1.1 4.3 1 1.8 2.6 3.1 3.9 3.1 1.2 0 1.5-.7 2.1-1 0 0-.3-1.6-1.7-2-1.7-.5-4.3-2.5-5.4-4.4"/><path d="M92.6 105.3c.3-.2.5-.4.9-.8 0 0 1.3.5 2.4 1.2 1.1.7 2.1 2 2.7 2.6 0 0-1.6.4-2.6-.1 0 0-.4-1.5-1.5-2.2-.4-.1-1.2-.3-1.9-.7m1.3-1.3c.3-.4.8-1.1.7-2.2 0 0 2.3 1.5 3 2 .7.6 2.1 2 2.4 2.5 0 0-1.7-.4-3.1-.8-1.4-.6-2.4-1.2-3-1.5m3.9 2.4c1.2.4 4 .9 5.1 1.2 1.2.3 2 .9 3.1 2.1 0 0-1.7.5-2.6.8 0 0-1.4-1-3-1.6-1-.3-1.5-1.4-2.6-2.5m2.5 8.2c-.3-.3-.6-.6-.3-1.3.2-.5 1.2-1.1 1.8-1.3 1-.5 3.7-1.2 4.6-1.5 0 0 .4.5.7 1.1.1.2 0 .4-.4.5-.8.1-2.6-.2-3.1.1-.5.3-.3.7-.3 1.2 0 0-.8-.5-1.4-.4-.7 0-1.2.3-1.6 1.6m2.5-3.9c-.2.1-1.3.4-2.3 1.1 0 0-.5-.2-.7-.6-.2-.4-1.2-1.8-2-2 0 0 .7-.1 1.2-.2 0 0 .9.2 1.5.5.6.2 1.4.6 2.3 1.2m-7.1-1.7c.2.1.4.2 1.1.2 0 0 2.4 1.7 2.7 3.3.3 1.4-.5 2.1-.9 2.3-.4.2-2 .9-3.1-1.4 0 0 1.9.6 2.4-.3.5-.9-.3-2.2-.8-2.6-.7-.5-1.9-.8-2.6-.7-.1.1.5-.5 1.2-.8"/><path d="M111.5 128.1c-.3-1.2-.6-2.5-1.2-3.7-1.1-2.3-3.8-8.5-9.3-9.5-.5-.1.6-1.4 1.1-1.3.5.1 1.5.7 1.9 1V113c0-.2.2-.3.4-.3s1.6 0 2 .5c1.3 1.5 3.4 5.4 4.6 8.4 1.2 2.9 2 3.9 3.3 3.4 1.3-.5 2.1-1.9 4.3-1.5.8.2 1.6.7 2.3 1.4-.2.4-.4.8-1.5.8s-3 .4-4.2 1.2c-.9.8-2.1 1.1-3.7 1.2m-22.3-19c-.1 1-.6 1.8-1.1 2.8 0 0 1.7 7.8 7.8 8.4 0 0-.1-1.6-1.9-2.9-1.8-1.2-4.5-3.2-4.3-6.1 0 0 .5.1 1.4 1.2.9 1.1 2.8 4.2 5.8 4.3 0 0-.4-1.5-1.7-2.3-1.3-.8-3-1.9-3.7-3.3-.9-1.3-1.7-1.9-2.3-2.1m-4 7.6c.4 1 2.7 4.3 3.7 5.3 1 .9 3.5 3.4 4.8 4.6 0 0-3.8-.9-5.9-2.9 0 0-1.5.9-2.6.9h-.1c-1.1 0-2.6-.9-2.6-.9-2.1 1.9-5.9 2.9-5.9 2.9 1.3-1.2 3.8-3.7 4.8-4.6 1.1-1 3.4-4.3 3.8-5.3"/><path d="M85.2 125.4c.8 0 1.6-.3 2.1-.5-.4.9-1.3 2.4-2.1 3-.8-.6-1.6-2.1-2.1-3 .4.1 1.2.5 2.1.5"/><path d="M88.4 142.8l14.7-20.6 1.5 1.1.1-4.9-4.5 1.7 1.4 1c-.7 1-11.7 16.5-13.1 18.4l-6.7-12.1-.8 1.3-5.9 9-1.5-1v4.8l4.5-1.8-1.5-1c.8-1.2 4-6.1 5.1-7.7l6.7 11.8"/><path d="M91.1 134.7c-1-1.5-2-3-2.5-3.8-.4.7-1.1 2.1-2 3.6l-1.1-1.9 2.9-5.2.8 1.3 2.9 4.5-1 1.5m3 1.4l1.1 1.6 1.5-1v4.8l-4.5-1.8 1.5-1c-.2-.2-.4-.6-.7-1l1.1-1.6m29.7-31.6c-1.1-1.2-3-.2-4.8 1.6-1.9 1.7-3.1 3.5-2 4.7 1 1.1 3 .2 4.9-1.6 1.8-1.7 3-3.5 1.9-4.7"/><path d="M120.8 125.8l.2-.2c1-.9 1.6-2.2 1.6-3.7 0-2.8-2.3-5.1-5.1-5.1s-5.1 2.3-5.1 5.1c0 .4.1 1 .1 1-.2-.4-1.1-2.4-1.2-2.8.8-2.8 3.3-4.8 6.3-4.8 2.6 0 4.8 1.5 5.9 3.7-.4-2.6-1.7-4.9-2.6-5.8-1.1-1-2.9-1.4-2.9-1.4 1.2.2 2.8-.6 4.6-2.2 1.7-1.6 2.6-2.9 2.6-4.1-.1 1.6-.1 2.5.4 3.8.6 1.8 2.3 5.1 1.7 8.8-.3 2-1.8 5.1-4.3 7.6-.5.6-.7 1.4-.8 1.8 0 0-3.7 0-4.5.1 0 0-.9-.1-.8-.6 0-.5.5-.7.9-.7.2.2 2 .3 3-.5m-24.1 1.1c-3.1-1.7-6.2-4.3-8.9-8.5l-.5-.8c.8.3 1.7.1 1.7.1.1.1.2.3.2.4 2.6 3.8 5.4 6.2 8.3 7.7l-.8 1.1m3.8.2c2.4.8 4.7 1.3 6.9 1.6 1.5.2 2.9.3 4.2.2 0 .2 0 .5.1.7 0 0-.3.3-.3.7-1.4.1-2.8 0-4.3-.3-2.4-.4-5-.9-7.6-1.8l1-1.1m16.8 1.1c.4-.1 1.8 0 2.6.1.9.1 1.9.3 2 .8.1.5-.2 1-.7 1.7-.3.4-1 .2-1.3 0-.4-.1-2.5-1.3-2.8-1.6-.3-.3-.5-.9.2-1m-2.2 1.4c.2-.1.8-.4 1.4-.1.6.2 2.6 1.4 2.8 2 .1.6-.2.9-.5 1-.3.1-.7.3-1 .3-.5 0-1-.3-1.3-.6-.3-.3-1.2-1.5-1.4-1.8-.1-.2-.2-.6 0-.8m-.2 1.3c.3.3 1.1 1.4 1.2 1.5.1.2-.1.4-.3.4-.3 0-1.7-.2-2.5-.7-.8-.6-1.4-1.7-.8-2 .5-.4 1.4-.2 2.4.8m-.5-3.1c.3-.1 1.4-.3 1.6 0 .3.4.1.9-.8 1.3-.8.4-2.4.7-2.7.3-.3-.4.1-1.1 1.9-1.6"/></g><path fill="#AD003E" d="M181.1-.3h170.1v170.1H181.1z"/><path fill="#FFF" d="M332.3 50.7c-.8-6.6-3.9-10-11.1-10h-9.3l-1.3 37.1h6.7s.6-17.2.7-18h8.5c.1.7 1.4 18 1.4 18h7s-2.4-25.5-2.6-27.1zm-14.2 2.9c0-.8.2-6 .2-6.7h1.3c5 0 5.8.9 6.3 6.7h-7.8zm-67.7 48c-.8-6.6-3.9-10-11.1-10H230l-1.3 37.1h6.7s.6-17.2.7-18h8.5c.1.8 1.4 18 1.4 18h7c0 .1-2.4-25.4-2.6-27.1zm-14.1 3c0-.8.2-6 .2-6.7l1.2-.1c5 0 5.9 1 6.3 6.8h-7.7zm-36.5-63.9v37.1h6.8V46.9h8.4v30.9h6.9V40.7zm72.1 12.9h-3.7c-1.5 0-2.7-.3-3.4-1-.5-.5-.8-1.1-.8-2v-9.9h-6.8v10.6c0 2.4 1 4.5 2.9 6.1 1.9 1.6 4.2 2.4 6.8 2.4h5v17.9h6.8v-37h-6.8v12.9m14.4-12.9v6.2h5.7v30.9h6.9V46.9h5.6v-6.2zm-10 51v11.8h-9.4V91.7h-6.8v37.1h6.8v-19.1h9.4v19.1h6.8V91.7zm-66.6 12.1c-1.2 0-2.2 0-3.2.1v-6h12.2v-6.2h-19.1v37.1H210c10.3 0 11.9-9.2 11.9-12.6.1-4-1.5-12.4-12.2-12.4zm-.8 19.2c-.7 0-2.3-.2-2.3-.2v-13.1s.5-.1 1.1-.1c3.5 0 7.5-.2 7.5 6.7.1 6.3-4.4 6.7-6.3 6.7zm43.3-65c-.1-5.3-1-9.1-2.4-11.8-2.2-4.6-5.8-6.3-9.4-6.4h-.2c-3.7 0-7.2 1.8-9.4 6.4-1.4 2.7-2.3 6.5-2.4 11.8v1.2c0 3.3.4 6.5 1.1 9.1 1.9 7.6 6.2 10.3 10.7 10.4h.4c4.5-.1 8.8-2.8 10.7-10.4.7-2.6 1.1-5.8 1.1-9.1-.2-.1-.2-1.2-.2-1.2zm-17.1 1.3c.1-10 2.5-13.3 5.2-13.4 2.6 0 5.1 3.4 5.2 13.4-.1 9.8-2.5 13.2-5.2 13.2s-5.2-3.4-5.2-13.2zm82 69.5l-8.2-21.7c1.7-1.3 3-3.7 3.6-6.1.6-2.4 1.3-9.2 1.3-9.2h-6.7c0 .7-.2 3.1-.4 5.4-.3 3.5-1.4 6.8-5 6.8h-2.8V91.7h-6.8v37.1h6.8V110h4.1l6.7 18.8h7.4z"/></svg>