<svg xmlns="http://www.w3.org/2000/svg" version="1.1" id="Layer_1" x="0" y="0" xml:space="preserve" width="305.9" height="50.9"><style type="text/css" id="style3">.st0,.st2{fill:#0d4ba0}.st2{fill-rule:evenodd;clip-rule:evenodd}</style><g id="g5" transform="translate(-5.8 -6.7)"><path class="st0" d="M41.1 26.3c1-.4 2.3-1.2 2.3-3.3 0-2.4-2-3.5-4.7-3.5H34v5.8h-2.8c-3.7 0-4.5 2.6-4.5 4 0 2 1.2 2.9 3.3 4 1.3.7 2.9 1.1 2.9 2.5 0 .8-.7 1.7-2.3 1.7h-2.9c.4-.7.6-1.6.6-2.3 0-.9-.3-4.6-5.5-4.6h-4.2v14.3h2.9v-6.2l1.2 1.2h7.8c3.7 0 5.4-1.9 5.4-4.1 0-.8-.1-1.4-.4-2h2.9c4.5 0 5.6-2.3 5.6-4 .1-1.9-1-3.3-2.9-3.5zM22.9 37.5h-1.3v-4.7h1.3c1.7 0 2.4 1 2.4 2.3.1 1.1-.6 2.4-2.4 2.4zM34 28.6v3.5c-.7-.4-1.5-.7-2.3-1.1-.9-.4-1.9-.9-1.9-2.1 0-.6.4-1.4 2.1-1.4h3.2L34 28.6zm2.9-6.9h1.3c2.2 0 2.3 1.4 2.3 1.8 0 .6-.3 1.8-2.2 1.8h-1.4v-3.6zm1.6 9.7h-1.6v-4h1.6c2 0 2.5 1 2.5 2 .1 1-.7 2-2.5 2z" id="path7" fill="#0d4ba0"/><path class="st0" d="M56.6 19.1c0-6.8-5.5-12.4-12.4-12.4H26.7c-5.6 0-10.4 3.8-11.9 9H36c8.1 0 11.6 3.8 11.6 12.6v20c5.2-1.5 9-6.3 9-11.9V19.1z" id="path9" fill="#0d4ba0"/><path d="M5.8 45.2c0 6.8 5.5 12.4 12.4 12.4h17.5c5.6 0 10.4-3.8 11.9-9H26.4c-8.1 0-11.6-3.8-11.6-12.6V16c-5.2 1.5-9 6.3-9 11.9v17.3z" id="path11" fill="#f26522"/><g id="g13"><path class="st2" id="polygon15" clip-rule="evenodd" fill="#0d4ba0" fill-rule="evenodd" d="M280.7 33.2h5.7v-6.8h5.3v18.4h-5.3v-8.2h-5.7v8.2h-5.4V26.4h5.4z"/><path class="st2" d="M267.7 41.9v-6.5c-2.2.3-5.5.7-5.5 3.9-.1 3.9 4.1 3.1 5.5 2.6zm-10.4-2.4c0-2.5 1.3-4.4 3.8-5.4 1.1-.4 2.2-.7 3.1-.8.9-.2 2.1-.3 3.5-.5v-.6c.1-2.7-1.4-3.2-3.3-3.2-1.7 0-3.5.5-5 1.4l-.4-3.3c2.2-.8 4.4-1.2 6.6-1.2 1.4 0 2.7.1 3.6.5 2 .6 3.1 2.2 3.3 4 .1.4.1 1 .1 1.9v11.4c-4.6 1.9-15.3 3.1-15.3-4.2z" id="path17" clip-rule="evenodd" fill="#0d4ba0" fill-rule="evenodd"/><path class="st2" d="M249.3 41.3c-.5.7-1.2 1.1-2.2 1.1-3.1 0-3.8-5-3.8-7.3 0-1.9.4-3.9 1.5-5.1.5-.7 1.3-1 2.2-1 1.2 0 2.3.7 2.8 2.2.6 1.6.8 3.2.8 4.7.1 1.9-.2 3.9-1.3 5.4zm6.4-9.8c-.4-1.4-1.2-2.7-2.3-3.8-1.8-1.7-8.2-3.1-11.3 1.5 0-4.9 2.1-7.3 6.2-8 4.1-.6 6.4-1.1 6.4-1.1l-.4-3.9s-4.2.6-7.7 1.4c-3.8.9-7.4 3.6-8.3 9.1-.6 3.6-.5 9.8.5 12.7 1.2 3.3 3.7 5.9 8.3 5.9 6.2 0 9.1-3.8 9.1-9.8.1-1.3-.1-2.6-.5-4z" id="path19" clip-rule="evenodd" fill="#0d4ba0" fill-rule="evenodd"/><path class="st2" id="polygon21" clip-rule="evenodd" fill="#0d4ba0" fill-rule="evenodd" d="M300 34.9l5.9-8.5h5.2l-6 8.2 6.6 10.2h-5.9l-5.8-9.1v9.1h-5.2V26.4h5.2z"/><path class="st2" d="M211 45.2c-1.7 0-3.4-.1-5-.7l.4-3.2c1.2.7 2.4 1.1 3.8 1.1 2.7 0 4.1-1.2 4-2.9 0-.8-.2-1.5-.8-1.9-.5-.4-1.1-.7-1.8-.7-.7-.1-1.3-.1-1.8-.1h-1.3V34h.4c2 0 5-.1 5-2.6 0-2-2-2.4-3.1-2.4-1.7 0-3 .4-4.5 1.2l-.3-3c1.8-.7 3.9-1 5.9-1 4.3-.1 6.9 1.8 6.8 4.7.1 2.4-2 3.8-3.4 4.2.9.2 1.7.4 2.3.9 1.3.9 1.8 2.3 1.8 3.6 0 2.4-1.3 4-3.1 4.9-1.7.5-3.7.7-5.3.7z" id="path23" clip-rule="evenodd" fill="#0d4ba0" fill-rule="evenodd"/><path class="st2" d="M163.6 45.2c-6.1 0-9.4-3.7-9.4-9.7 0-6 3.6-9.5 9.5-9.5 1.6 0 2.8.2 4.3.7l-.6 3.3c-1-.5-1.8-.8-2.9-.8-3.6 0-5.1 2.9-5.1 6.1 0 3.2 1.5 6.5 5.1 6.5 1.1 0 2-.2 2.9-.7l.4 3.4c-1.3.5-2.6.7-4.2.7z" id="path25" clip-rule="evenodd" fill="#0d4ba0" fill-rule="evenodd"/><path class="st2" d="M221.8 44.8V26.4h5.2v5.8h2.1c2.4 0 4.2.4 5.3 1.2 1.3 1 2.2 2.8 2.1 4.7-.1 6-6.2 7.1-9.5 7.1-3.4 0-5.2-.4-5.2-.4zm5.2-3s4.8 1 4.8-3.5c0-.8-.1-1.5-.5-1.9-.5-.9-1.7-1.1-3-1.1h-.7c-.1 0-.2 0-.5.1v6.4h-.1z" id="path27" clip-rule="evenodd" fill="#0d4ba0" fill-rule="evenodd"/><path class="st2" d="M175.9 34.1V29s.5-.1 1.8-.1c2.5 0 3 1.5 3 2.4 0 1.8-1.1 2.7-3.7 2.7h-1.1v.1zm1.3 2.8c.5 0 1 0 1.7.1.6 0 1.2.2 1.7.6.5.3.7 1 .7 1.8 0 2-1.8 2.7-4.1 2.7h-1.3v-5.2h1.3zm5.2-1.9c2.2-.7 3.3-2.1 3.3-4.2 0-.9-.2-1.7-.6-2.3-.4-.7-1.1-1.3-2-1.6-1.7-.7-4-.9-6-.9-3.9 0-6.3.4-6.3.4v18.4s2.6.4 6.3.4c3.7 0 9.3-.9 9.4-5.6v-.2c.2-2-1.1-4-4.1-4.4z" id="path29" clip-rule="evenodd" fill="#0d4ba0" fill-rule="evenodd"/><path class="st2" d="M198.1 34.4h-1.3c-2.5 0-3.6-.8-3.6-2.9 0-2.1 1.6-2.6 2.9-2.6 1.3 0 1.9.1 1.9.1v5.4h.1zm-1.2-8.4c-3.9 0-8.7.6-8.7 5.6 0 2.6 1.3 4.2 3.8 4.9l-4.9 8.3h5.5l3.9-7.3h1.6v7.3h5.2V26.4c-.1 0-2.6-.4-6.4-.4z" id="path31" clip-rule="evenodd" fill="#0d4ba0" fill-rule="evenodd"/><path class="st2" id="polygon33" clip-rule="evenodd" fill="#0d4ba0" fill-rule="evenodd" d="M88.6 44.8H83V23h-8.1v21.8h-5.6V19.4h19.3z"/><path class="st2" d="M103.6 35c0-6.9-4.8-6.3-6.6-5.9v12c.7.2 6.6 2.4 6.6-6.1zM91.7 52.2V26.9c4.6-.9 17.1-3.5 17.1 7.7 0 2.9-.8 5.5-2.3 7.3-3 3.6-7.9 3.2-9.5 2.6v7.8h-5.3v-.1z" id="path35" clip-rule="evenodd" fill="#0d4ba0" fill-rule="evenodd"/><path class="st2" d="M119.8 42.3c1.5 0 2.6-1.2 3-2.9.4-1.7.5-2.8.5-4.1 0-1.8-.2-3.1-.7-4.4-.5-1.4-1.7-2.1-2.7-2.1-1.5 0-2.6 1.1-3.1 2.6-.5 1.4-.6 2.9-.6 3.9-.1 2.3.4 7 3.6 7zm-.4 2.9c-6.1 0-8.7-3.8-8.7-9.6 0-6 3.1-9.6 9.2-9.6 2.2 0 3.9.5 5.3 1.5 1.3 1 2.2 2.2 2.6 3.7.5 1.5.7 2.9.7 4.3-.1 6.2-2.7 9.7-9.1 9.7z" id="path37" clip-rule="evenodd" fill="#0d4ba0" fill-rule="evenodd"/><path class="st2" id="polygon39" clip-rule="evenodd" fill="#0d4ba0" fill-rule="evenodd" d="M141.4 38.9l3.7-12.5h6.1l1.7 18.4h-4.8L147 31.6l-3.9 13.2h-4.3l-4-13.3-1 13.3h-4.3l1.9-18.4h6.2z"/></g></g></svg>