<svg xmlns="http://www.w3.org/2000/svg" version="1.1" id="Layer_1" x="0" y="0" xml:space="preserve" width="188.7" height="50.9"><style type="text/css" id="style3"/><g id="g5" transform="translate(-92.3 -54.1)"><path id="polygon7" fill="#fff200" d="M92.9 104.3V57.1h47.3l-.1 47.3z"/><path d="M116.5 86.5l14.6 14.6 5.7-5.7-14.6-14.6L125 78v-5.7l2-2V75l2 2 7.1-7.1 1.9 1.9c0-1.2-.4-5.4-3.8-8.8-3.8-3.7-7.6-1.5-8.9-.2l-6.9 6.9 1.7 1.7-3.8 3.8-3.8-3.8 1.7-1.7-6.9-6.9c-1.3-1.3-5.1-3.5-8.9.2-3.4 3.3-3.7 7.5-3.7 8.8l1.8-1.9 7.1 7.1 2-2v-4.7l2 2V78l2.9 2.8-14.2 14.4 5.7 5.7 14.5-14.4z" id="path9"/><path d="M154.2 60.4h.5c1.7 0 3.6.3 3.6 2.5s-1.9 2.5-3.6 2.5h-.5v-5zm5.1 7.8c2.8-.5 4.3-2.9 4.3-5.6 0-4.2-3-6.1-6.9-6.1H149v19.9h5.2v-7.6h.1l4.9 7.6h6.4l-6.3-8.2z" id="path11"/><path d="M173.9 66.5c1.9 0 3.1 1.4 3.1 3.1 0 1.7-1.1 3-3.1 3-1.9 0-3.1-1.3-3.1-3s1.1-3.1 3.1-3.1m7.7-3.7h-4.8v1.3c-1-1.2-2.6-1.8-4.2-1.8-4 0-6.8 3.3-6.8 7.2 0 3.9 2.8 7.2 6.8 7.2 1.6 0 3.2-.6 4.1-2h.1v1.5h4.8V62.8z" id="path13"/><path d="M189.6 76.3h-4.8V62.8h4.8v13.5zm.2-18.7c0 1.5-1.2 2.7-2.7 2.7-1.5 0-2.7-1.2-2.7-2.7 0-1.5 1.2-2.7 2.7-2.7 1.5 0 2.7 1.2 2.7 2.7" id="path15"/><path d="M198 76.3h-4.8v-9.6h-1.7v-4h1.7V61c0-1.9.1-3.2 1.4-4.7 1.2-1.4 2.9-2.2 4.7-2.2.7 0 1.4.1 2.1.5v4.1c-.6-.2-1.1-.4-1.7-.4-1.2 0-1.7.7-1.7 2.3v2.2h3.3v4H198v9.5z" id="path17"/><path d="M208.2 76.3h-4.8v-9.6h-1.7v-4h1.7V61c0-1.9.1-3.2 1.4-4.7 1.2-1.4 2.9-2.2 4.7-2.2.7 0 1.4.1 2.1.5v4.1c-.6-.2-1.1-.4-1.7-.4-1.2 0-1.7.7-1.7 2.3v2.2h3.3v4h-3.3v9.5z" id="path19"/><path d="M217 67.6c.3-1.4 1.4-2.1 2.8-2.1 1.3 0 2.5.8 2.7 2.1H217zm10 2.2c0-4.6-2.7-7.5-7.4-7.5-4.4 0-7.5 2.7-7.5 7.2 0 4.7 3.3 7.2 7.8 7.2 3.1 0 6.1-1.4 6.9-4.6h-4.6c-.5.9-1.3 1.2-2.3 1.2-2 0-3-1.1-3-3H227v-.5z" id="path21"/><path d="M234 76.3h-4.8V62.8h4.8v13.5zm.3-18.7c0 1.5-1.2 2.7-2.7 2.7-1.5 0-2.7-1.2-2.7-2.7 0-1.5 1.2-2.7 2.7-2.7 1.5 0 2.7 1.2 2.7 2.7" id="path23"/><path d="M246.1 66.3c-.7-.4-1.8-.7-2.6-.7-.6 0-1.5.2-1.5.9 0 .9 1.5 1.1 2.2 1.2 2.2.4 3.9 1.5 3.9 4 0 3.6-3.2 5-6.4 5-1.9 0-3.8-.6-5.5-1.6l1.7-3.3c1 .7 2.6 1.4 3.8 1.4.6 0 1.5-.3 1.5-1 0-1.1-1.5-1.1-3-1.5-1.5-.4-3-1.1-3-3.6 0-3.3 3-4.8 6-4.8 1.5 0 3.1.2 4.4.9l-1.5 3.1z" id="path25"/><path d="M254.6 67.6c.3-1.4 1.4-2.1 2.8-2.1 1.3 0 2.5.8 2.7 2.1h-5.5zm10 2.2c0-4.6-2.7-7.5-7.4-7.5-4.4 0-7.5 2.7-7.5 7.2 0 4.7 3.3 7.2 7.8 7.2 3.1 0 6.1-1.4 6.9-4.6h-4.6c-.5.9-1.3 1.2-2.3 1.2-2 0-3-1.1-3-3h10.1v-.5z" id="path27"/><path d="M271.5 64.5c1.2-1.6 2.5-2.2 4.4-2.2 3.6 0 5.1 2.3 5.1 5.6v8.3h-4.8v-6.6c0-1.3.2-3.6-2.2-3.6-1.9 0-2.5 1.4-2.5 3.1v7h-4.8V62.8h4.8v1.7z" id="path29"/><path d="M155.6 96.8h.5c1.7 0 4.3-.2 3.9 2.2-.3 2.2-2.9 2.1-4.4 2.1h-.7l.7-4.3zm1.5 8.2c3.6 0 7.4-1.4 8.1-5.5.4-2.8-.5-4.7-3.3-5.1v-.1c1.7-.8 2.5-2.3 2.8-4.1.6-3.8-1.6-5.2-5.1-5.2h-7.4l-3.1 19.9h8zm-.3-15.9h.4c1.4 0 3 .1 2.7 1.9-.3 1.7-1.7 1.9-3.1 1.9h-.6l.6-3.8z" id="path31"/><path d="M92.3 56.4V105h48.5V56.4H92.3zm47.1 47.2H93.6V57.8h45.8v45.8z" id="path33"/><path d="M179 97.6h-4.3l3.1-6.3h.1l1.1 6.3zm.7 3.9l.7 3.5h5.5l-4.3-19.9H176L165.2 105h5.5l1.9-3.5h7.1z" id="path35"/><path id="polygon37" d="M207.5 105h-5.2l-7.6-12.2-1.9 12.2h-5.2l3.1-19.9h5.2l7.6 12.2 1.9-12.2h5.2z"/><path id="polygon39" d="M217.4 96.4L216 105h-5.2l3.2-19.9h5.2l-1.3 8.2 7.6-8.2h6.4l-9.4 9.4 6.9 10.5h-6.7l-5.3-8.6z"/></g></svg>