<svg xmlns="http://www.w3.org/2000/svg" width="354.078" height="88.316"><path d="M94.756 38.214c2.08 0 4.401.07 6.408 1.441 1.341.88 2.924 2.643 2.924 5.777 0 3.451-2.185 7.5-8.205 7.5H90.81v9.436h-4.433V38.214h8.38zm.176 11.195c.986 0 2.393.035 3.522-1.02.775-.706 1.2-1.9 1.2-2.923 0-.95-.392-2.077-1.164-2.748-.775-.667-2.007-.986-3.385-.986H90.81v7.677h4.123zm13.244-3.168c1.232-1.163 3.066-2.184 5.81-2.184 2.746 0 4.58 1.021 5.81 2.184 1.83 1.724 2.78 4.401 2.78 7.148 0 2.746-.95 5.421-2.78 7.146-1.23 1.164-3.064 2.184-5.81 2.184-2.743 0-4.577-1.02-5.81-2.184-1.832-1.726-2.783-4.4-2.783-7.146 0-2.747.951-5.424 2.783-7.148m2.995 12.218a3.575 3.575 0 002.814 1.301c1.552 0 2.43-.842 2.814-1.301.284-.317 1.343-1.727 1.343-5.07 0-3.345-1.059-4.751-1.343-5.068a3.56 3.56 0 00-2.814-1.304c-1.547 0-2.43.844-2.814 1.304-.278.317-1.34 1.723-1.34 5.068 0 3.343 1.062 4.753 1.34 5.07m25.445-7.463c-.07-.916-.423-1.971-.878-2.643-.427-.632-1.273-1.337-2.677-1.337-1.377 0-2.293.705-2.852 1.653-.884 1.445-.95 3.696-.95 4.719 0 1.655.243 3.627.95 4.755.456.704 1.37 1.617 2.852 1.617 1.054 0 1.933-.419 2.604-1.335.527-.739.88-1.795.95-2.711l3.732.457c-.213 1.653-.949 3.487-2.253 4.683-1.095.984-2.784 1.866-5.179 1.866-2.67 0-4.4-1.057-5.419-2.011-1.374-1.301-2.676-3.622-2.676-7.286 0-3.415 1.16-5.458 2.075-6.549 1.302-1.547 3.523-2.817 6.13-2.817 2.216 0 4.048.778 5.208 1.973 1.164 1.161 1.868 2.92 2.113 4.506l-3.73.46zm17.475 0c-.068-.916-.419-1.971-.878-2.643-.422-.632-1.27-1.337-2.68-1.337-1.37 0-2.286.705-2.85 1.653-.877 1.445-.95 3.696-.95 4.719 0 1.655.247 3.627.95 4.755.457.704 1.374 1.617 2.85 1.617 1.06 0 1.94-.419 2.608-1.335.53-.739.881-1.795.95-2.711l3.733.457c-.212 1.653-.95 3.487-2.254 4.683-1.095.984-2.78 1.866-5.176 1.866-2.676 0-4.4-1.057-5.422-2.011-1.373-1.301-2.677-3.622-2.677-7.286 0-3.415 1.16-5.458 2.078-6.549 1.298-1.547 3.52-2.817 6.126-2.817 2.215 0 4.05.778 5.21 1.973 1.163 1.161 1.866 2.92 2.114 4.506l-3.732.46zm22.565 6.161c-.634 2.112-1.9 3.343-2.957 4.086-1.405.948-3.239 1.477-5.177 1.477-2.428 0-4.894-1.021-6.375-2.536-1.372-1.406-2.395-3.838-2.395-6.724 0-3.664 1.515-6.094 3.167-7.466.957-.809 2.751-1.937 5.46-1.937 3.418 0 5.602 1.583 6.76 3.203 1.233 1.689 1.8 4.053 1.8 6.094v.81h-12.747c0 .213-.037 1.831.598 3.132.948 1.975 2.676 2.465 3.875 2.465.95 0 2.145-.281 3.133-1.302.597-.635.846-1.233.948-1.792l3.91.49zm-4.155-5.673c0-1.017-.244-2.179-.776-2.957-.665-.984-1.863-1.654-3.168-1.654-1.337 0-2.5.67-3.204 1.515-.562.703-1.055 1.794-1.055 3.095h8.203zm21.829-7.072v17.956h-4.09V47.439h-4.647c-.103 2.429-.175 3.414-.244 5.068-.106 1.868-.246 5.81-1.832 7.959-.879 1.161-1.97 1.622-2.748 1.833a4.893 4.893 0 01-1.442.209c-.35 0-.707-.035-1.052-.141v-3.099h.345c.531-.036 1.236-.315 1.694-.672 1.408-1.123 1.55-3.659 1.69-5.666.177-2.641.21-4.225.245-6.618l.037-1.901h12.043zm8.394 6.405h4.507c1.162 0 3.42.143 4.897 1.623 1.337 1.301 1.475 3.133 1.475 4.118 0 2.57-1.054 3.871-1.86 4.541-.285.213-1.62 1.27-4.158 1.27h-8.94V44.413h4.08v6.404zm0 8.59h3.208c.776 0 1.617-.034 2.323-.631.42-.388.915-1.055.915-2.184 0-.984-.282-1.76-1.09-2.288-.706-.46-1.587-.528-2.148-.528h-3.208v5.631zm11.394 2.96l6.126-9.332-5.494-8.623h4.79l3.312 5.597 3.448-5.597h3.731l-5.246 8.131 6.232 9.824h-4.789l-4.083-6.76-4.293 6.76zm20.055-16.126c1.232-1.163 3.062-2.184 5.81-2.184 2.743 0 4.577 1.021 5.808 2.184 1.832 1.724 2.783 4.401 2.783 7.148 0 2.746-.95 5.421-2.783 7.146-1.23 1.164-3.064 2.184-5.809 2.184-2.747 0-4.577-1.02-5.809-2.184-1.834-1.726-2.783-4.4-2.783-7.146 0-2.747.95-5.424 2.783-7.148m2.993 12.218a3.565 3.565 0 002.816 1.301c1.551 0 2.43-.842 2.818-1.301.28-.317 1.338-1.727 1.338-5.07 0-3.345-1.059-4.751-1.338-5.068a3.579 3.579 0 00-2.818-1.304 3.563 3.563 0 00-2.816 1.304c-.279.317-1.339 1.723-1.339 5.068 0 3.343 1.06 4.753 1.34 5.07m13.585-9.192a6.303 6.303 0 012.887-3.978c.6-.384 2.254-1.232 5.07-1.232 1.762 0 3.557.316 4.896 1.06 1.973 1.088 2.461 2.673 2.461 3.8 0 1.232-.6 3.589-3.658 3.94v.074c1.053.142 2.22.598 2.92 1.336.637.67 1.127 1.797 1.127 2.992 0 1.797-1.055 3.381-2.395 4.262-1.619 1.058-3.842 1.197-5.49 1.197-1.66 0-4.19-.178-5.953-1.582-.984-.775-1.9-2.115-2.184-3.805l3.7-.633c.136.561.456 1.407.878 1.898.916 1.06 2.361 1.162 3.273 1.162.92 0 1.904-.103 2.678-.633.705-.492 1.057-1.16 1.057-2.042 0-.741-.145-1.338-.774-1.868-.812-.664-1.902-.771-2.924-.771h-1.865v-2.747h1.865c.701 0 1.723-.141 2.29-.422.737-.388 1.16-1.022 1.16-2.042 0-.566-.212-1.094-.739-1.515-.814-.671-1.973-.704-2.568-.704-.81 0-2.008.103-2.994.949a3.422 3.422 0 00-1.164 2.078l-3.554-.774zm36.601-6.829H275.7v5.351h5.178c1.861 0 3.662.144 5.494 1.409 1.791 1.233 2.92 3.063 2.92 5.702 0 2.467-.916 4.296-2.076 5.461-1.76 1.758-3.77 2.006-5.883 2.006h-11.268V38.213h17.29v4.225zM275.7 58.142h4.541c.848 0 1.621-.037 2.43-.848.775-.774.883-1.651.883-2.319 0-.776-.213-1.552-.883-2.222-.809-.809-1.826-.883-2.57-.883h-4.4v6.272zm16.491-8.732c.562-2.43 2.148-3.661 3.1-4.225 1.406-.812 3.273-1.128 5.598-1.128 2.957 0 5.953.39 7.29 3.171.7 1.441.632 2.992.632 4.33v6.937c0 1.443.21 2.782.525 3.873h-5.104c-.142-.705-.246-1.656-.279-2.854-.674 1.197-2.29 3.207-6.023 3.207-1.654 0-3.346-.421-4.506-1.374-1.129-.917-1.832-2.394-1.832-4.013 0-1.797.773-3.946 3.836-5.215 1.973-.808 5.176-1.09 6.623-1.159l1.688-.072v-.39c0-.491-.03-1.548-.527-2.109-.666-.777-2.008-.812-2.539-.812-.734 0-1.615.072-2.357.529a2.792 2.792 0 00-1.266 1.831l-4.859-.527zm9.965 4.471c-1.76.142-3.522.32-4.508 1.549a2.52 2.52 0 00-.562 1.62c0 .774.387 1.304.771 1.585.494.387 1.234.562 1.94.562 1.054 0 2.288-.456 2.993-1.302.104-.107.947-1.162.947-3.203v-.951l-1.58.14zm15.978 8.486h-5.25V44.412h5.25v6.724h5.666v-6.724h5.247v17.955H323.8v-7.535h-5.666zm20.237-17.955v6.899h1.406c1.514 0 2.148-.742 2.535-1.551.74-1.583.705-2.815 1.375-4.045.531-.987 1.232-1.235 1.691-1.303h4.328a8.676 8.676 0 00-1.377 1.935c-.56 1.161-1.09 3.062-1.404 3.872-.422 1.128-1.127 2.257-2.922 2.396v.066c.95.145 1.934.639 2.678 1.729.455.668.773 1.55 1.268 2.923.494 1.407.703 1.899 1.158 2.989.355.815.562 1.305 1.162 2.045h-4.93c-.773-.248-1.303-.775-1.932-2.608-.496-1.406-.566-1.898-.885-2.673l-.246-.635c-.529-1.338-1.233-1.619-2.324-1.619h-1.582v7.535h-5.246V44.412h5.247z" fill="#fff"/><path clip-rule="evenodd" fill="#fc0" fill-rule="evenodd" d="M34.916 43.016v-5.378l-8.067 7.885v5.422zm0-20.077v-5.078l-8.067 7.89v5.119zm0 6.643v-5.076l-8.067 7.886v5.12zM21.184 14.645V4.323h-1.216v9.134l-1.073-1.046V4.323h-1.213v11.978l8.07 7.927V4.323H24.54v13.602l-1.072-1.047V4.323h-1.22v11.366zm13.732 21.581v-5.078l-8.067 7.887v5.118zm-9.164 14.72v-5.423l-8.069-7.885v5.378zm4.595-35.258V4.323h-1.21v12.551l-1.074 1.05V4.323H26.85v19.905l8.065-7.927V4.323h-1.21v8.089l-1.069 1.045V4.323h-1.223v10.324zm-4.595 15.183v-5.122l-8.069-7.888v5.078zm0 6.642v-5.121l-8.069-7.886v5.076zm0 6.64v-5.119l-8.069-7.885v5.077zm40.006-3.743H46.136a4.166 4.166 0 00.65-2.233 4.234 4.234 0 00-4.234-4.228 4.227 4.227 0 00-4.224 4.228c0 .92.296 1.758.79 2.451a1.348 1.348 0 000 2.259 4.226 4.226 0 003.434 6.682 4.233 4.233 0 004.234-4.228c0-.823-.243-1.585-.65-2.233h14.596v.885h-1.44v1.245h1.44v1.292h-1.44v2.375h1.44v-1.077h2.137v1.077h1.438V46.53H62.87v-1.292h1.438v-1.245H62.87v-.885h2.89c.556 0 1.015-.468 1.015-1.035v-.628a1.033 1.033 0 00-1.017-1.035m-21.023 4.931a2.182 2.182 0 01-2.183 2.179 2.183 2.183 0 01-1.82-3.377l.61-1.026a1.808 1.808 0 010-2.716l-.61-1.029a2.14 2.14 0 01-.359-1.195c0-1.201.98-2.179 2.18-2.179 1.203 0 2.182.978 2.182 2.179 0 .889-1.024 3.008-1.024 3.008v1.148c0-.001 1.024 2.117 1.024 3.008"/><path d="M10.343 37.841v5.268c0 5.039 2.195 8.274 3.458 9.536l8.35 8.211c2.333 2.28 2.741 3.037 3.261 4.334v-5.841c0-5.2-2.635-7.217-3.99-8.54-3.16-3.087-5.28-5.113-6.987-6.812-3.236-3.241-4.092-6.156-4.092-6.156m11.078 26.012c-3.16-3.093-5.28-5.119-6.986-6.82-3.236-3.238-4.092-5.432-4.092-5.432v4.547c0 5.039 2.288 8.254 3.452 9.571.737.72 8.264 8.078 8.354 8.175 2.335 2.28 2.742 3.365 3.261 4.662v-6.168c0-5.201-2.634-7.217-3.989-8.535" clip-rule="evenodd" fill="#fff" fill-rule="evenodd"/><path d="M38.061 14.08c-.585 0-1.163.015-1.735.04v2.47c.572-.03 1.15-.043 1.735-.043 18.651 0 33.776 15.122 33.776 33.777 0 18.652-15.125 33.775-33.776 33.775-18.659 0-33.782-15.123-33.782-33.775 0-10.353 4.66-19.617 11.994-25.812v-3.155C7.493 27.973 1.816 38.486 1.816 50.324c0 20.014 16.226 36.24 36.245 36.24 20.013 0 36.238-16.227 36.238-36.24 0-20.017-16.226-36.244-36.238-36.244" clip-rule="evenodd" fill="#fff" fill-rule="evenodd"/><path d="M63.697 69.243a33.908 33.908 0 001.595-2.368V62.01h-1.595v7.233zm4.648-9.003c.226-.7.434-1.405.612-2.117h-5.262v1.294h.8c1.404-.043 2.968-.06 3.85.823m-36.439-2.293h1.425v14.449h-1.425z" clip-rule="evenodd" fill="#fff" fill-rule="evenodd"/><path d="M28.62 55.157h4.71c1.217 0 2.065.253 2.562.726.497.469.726 1.316.726 2.535v13.504c0 1.225-.229 2.07-.726 2.542-.748.746-2.12.746-3.265.746-.25-.022-.5-.022-.723-.022v6.399c.473.093.946.177 1.424.247v-5.253c2.17 0 3.595-.741 4.26-2.224v7.822c.154.002.31.006.471.006.3 0 .598-.004.897-.012V58.671c0-1.247.252-2.118.72-2.616.47-.496 1.325-.744 2.521-.744 1.223 0 3.008-.179 3.934.744.476.498.697 1.369.697 2.616v6.923h-3.233v-7.396h-1.398v23.72a28.75 28.75 0 001.398-.213V66.99h3.232v13.971a31.8 31.8 0 001.97-.632V67.54c0-1.446.347-2.54 1.823-3.037l-1.626-8.899h3.265l.545 9.721h.403l.546-9.721h3.441l-1.843 8.899c1.545.542 1.843 1.493 1.843 3.037v8.261a32.22 32.22 0 002.741-2.313V55.532H69.5c.065-.429.13-.86.184-1.297H47.3l.316 1.607c-.71-1.298-2.053-1.955-4.02-1.955h-1.399c-2.373 0-3.814.945-4.36 2.825-.508-1.97-2.01-2.95-4.507-2.95H27.2v26.524c.47.171.944.328 1.42.478V55.157zM58.337 65.37l-1.545-1.472 1.545-7.984v9.456z" clip-rule="evenodd" fill="#fff" fill-rule="evenodd"/><path d="M52.26 78.85c.496-.248.985-.509 1.47-.779V67.136h-1.47V78.85z" clip-rule="evenodd" fill="#fff" fill-rule="evenodd"/><path fill="none" d="M0-20h530.078V88.316H0z"/></svg>