<svg xmlns="http://www.w3.org/2000/svg" viewBox="0 0 275.9 50.7"><path d="M25.3 0C11.3 0 0 11.3 0 25.3s11.3 25.3 25.3 25.3 25.3-11.3 25.3-25.3C50.7 11.3 39.3 0 25.3 0zm0 48C12.8 48 2.6 37.9 2.6 25.4S12.8 2.7 25.3 2.7C37.9 2.7 48 12.8 48 25.4 48 37.9 37.9 48 25.3 48z" fill="#fff"/><path d="M37.5 12.8c.1-1.3-.7-3-3.2-5.2 0 0-.1.4 0 .6 0 0-.8-.9-2.6-1.3 0 0 .2-.8.3-1.3 0-.4-.3-.9-1-.5-3 1.3-8 1.3-13.2 6.3.4-1.2 1.7-3.2 3.2-4.3-1.8.4-3.3 1-3.8 1.3-.5.3-.7.5-.9.8-1.2 1.6-2.9 5.1-3.7 9.6-.5-2.9-.1-5.9.1-7.4-1.2 1-2.3 2.4-2.8 3.1-.4.5-.5.9-.5 1.3-.1 1 .2 6.3 2.2 10.5-2-1.6-3.6-5-4.3-6.9-.5 1.4-.9 3.4-1 4.8 0 1 .4 1.5.6 1.9.3.6 3 5.3 8.6 8.5-2.1-.2-6.5-2.6-8.6-4.4.5 1.9 1 3.2 1.8 4.6.3.6.6.9 1.6 1.4 2.5 1.4 6.1 2.8 11.5 2.7-2.7 1.2-6.8 1.2-9.5.5.2.2.9.9 1.8 1.5 1.1.8 2.7 1.7 4.7 2.1 4.1.8 9.1-2.1 7.9-7.5 0 0-.6 1.5-2.3 2 2-2 1.8-5.2-1.7-5.6-1.4-.2-3.7 0-4.4 0s-1.6 0-2.3-.8c0 0 1-.1 2-.3.8-.2 2.4-.9 3.5-.8-.1-.2-.5-.8-2.1-.2-.4.1-1.1.1-1.6-.5 1.6.4 2.2-1.4 3.7-.4.3.2.8.2.6-.2-.3-.5-.6-.8-1.4-.8-1.8-.1-3.2-.2-4.4.4-.6.3-1.2.7-1.7 1.2 0-.8.1-2.9 1.2-3.9 1.2-1 3.8-1.5 4.9-1.7 0 0-.3-.6 0-1 .5-.6 2-1.7 10.9-1.7l-.7.7c1.3.1 3.4.4 5.6 1.2.2.1.7.2 1.3-.8.2-.3 0-.3-.5-.6.1-.2.1-.4.1-.5 0-.3-.2-.2-.3-.1-.3.2-.9.2-1-.1-.1-.3-.6-1-1.7-1.2 0 0 .7-.8 2.2-.5 0 0 .1.4.4.3.3-.1.5-.4.7-.1.1.2.1.3.1.5-.1.2 0 .3.3.1.2-.1.3-.3.5-.5 0 0 .5.2 1.2 0 .4-.1 1.1-.7 1.4-1.7.4-.3.8-.9.6-1.1-.4-.3-2.4-1.5-2.9-1.8s-1.5-1-1.4-2.2zm-12.7 3.6c.5-.2.7-.3 1.2-.4.4-.1.7-.1.4.3-.9 1.3-.9 3.8.4 4.3-.9 0-1.6.1-2.4.2-.1-2.2.3-3.5.3-3.5-.5.2-1.1.5-1.4.6-.1-2.4 2-6.4 4.7-7.5-3 2.6-3.2 6-3.2 6zm5.7-9.8c-.3.4-1 1.3-.8 1.9 0 0-.7.2-1.3.5-.3.2-.4 0-.3-.3.5-1.1 1.3-1.7 2-2.2.5-.3.6 0 .4.1zm5.7 6.9c-.1.4-.1.5-.5.4-.1-.1-.5-.2-.6-.2-.2-.1-.3-.1-.2.1.1.2.4.9.3 1.4 0 0-.7-1.5-1.8-2.4.4-.1 1.4 0 2 .2.3.1.6.1.8-1.2.2.8.2 1.4 0 1.7zm26.4 23.6h-1.3v-3.7h3.3c1 0 1.5.2 1.9.6l1-2.3h-9.9c.4.5.5.9.5 1.9v9.8c0 1-.1 1.3-.5 1.9h5c3.2 0 5.6-1 5.6-4.1 0-3.1-2.4-4.1-5.6-4.1zm-.4 6.6h-1v-5h1c1.7 0 2.8.7 2.8 2.5s-1.1 2.5-2.8 2.5zM41.9 22.8c-1.2.6-2.7.8-3.6.8 1.8.7 4.2 2 5.9 3.4-.1-.6 0-1.2 0-1.6 0-.2-.1-.3-.1-.3-2-.8-3.2-1.1-3.2-1.1.5-.2.9-.8 1-1.2zm32.4 3.9c-1.4 0-2.2-.7-2.8-1.6l-.9 1.9c1.1 1 2.2 1.4 3.7 1.4 3.2 0 4.5-2.4 5.5-5.1l3.8-10c.4-1 .6-1.4 1.2-2h-3.4c.3.7.1 1.4-.1 2.1l-2.7 7.3-3.1-7.2c-.2-.7-.4-1.5 0-2.2h-4.8c.5.5.9 1.2 1.4 2.3l4.9 11c-.6 1.4-1.5 2.2-2.7 2.1zM149 10.2c1.6 0 2.6-.6 2.6-1.7 0-.5-.3-1-.5-1.3h-1.3c.3.5.4.8.4 1.1s-.3.8-1.2.8c-.9 0-1.2-.4-1.2-.8 0-.3.1-.7.4-1.1H147c-.3.3-.6.8-.6 1.3 0 1.1 1 1.7 2.6 1.7z" fill="#fff"/><path d="M33.9 32.1c.7.2 1.7.3 2.3 0-3.1-.8-4.8-5.2-11.9-5.8-.3 0-1 .1-.6-.6s3.2-2.6 3.2-2.6c-.5 0-2.9.2-3.6.3-.7.1-.9-.1-.9-.6 0 0-1.4 1.3-.7 2 .1.1.4.1.8 0 .3-.1.9-.3 1.3-.4 0 0 .1 0 .1.1-.2.3-.6.9-.7 1.2-.1.4-.2.6.5.8.6.2 3.9 1.2 5.9 2.6 2 1.3 6.7 5 6.4 11.8 1.1-.8 2.1-1.6 2.7-2.2.1-.1.1-.4.1-.4-.9-2-2.8-4.9-4.9-6.2z" fill="#fff"/><path d="M28.4 44c.7-.2 2.1-.5 3.3-.9.2-.1.3-.3.3-.4.7-1.9 1-6.1-1.1-8.4 1.2 2.5.7 6.7-2.5 9.7zm5-17.1c3.3 1.4 6.5 4.8 8.1 8.1.3-.5 1-1.7 1.5-3 0-.2-.1-.3-.2-.4-2.8-2.4-6.2-4.1-9.4-4.7zM113 43.2l-4.4-5.4 4.1-4.1c.7-.7 1.4-1.3 2.4-2h-4.2c0 .6-.1 1-.9 1.8l-4.7 4.9v-4.7c0-1 .1-1.3.5-1.9h-4.3c.4.5.5.9.5 1.9v9.8c0 1-.1 1.3-.5 1.9h4.3c-.4-.5-.5-.9-.5-1.9v-4.8l4.2 5.1c.5.6.6 1 .6 1.6h5.3c-1-.6-1.4-1-2.4-2.2zm89.8-20.4l-4.9-11.5H194c.5.5.7.7 1 1.3l-4.4 10.2c-.4.9-.8 1.5-1.3 2.1h3.3c-.4-.8-.3-1.2.1-2.2l.3-.8h6l.3.8c.3 1 .5 1.4.1 2.2h4.8c-.7-.6-1-1.2-1.4-2.1zm-9.1-2.6l2.4-5.7 2.2 5.7h-4.6zm38.6 1.5l.1-8.5c0-1 .1-1.3.5-1.9h-10.7c.4.5.5.9.5 1.9v5.4c0 2.5-.4 4.4-2.9 5.3v2.4c1.3-1 2.3-1.4 3.6-1.4h7c1.4 0 2.2.4 3.6 1.4v-2.4c-1.3-.3-1.7-1.1-1.7-2.2zm-3.2.8c0 .3-.2.7-.7.7h-4.6c.8-1.1 1-2.4 1-4.4v-5.1c0-.4.2-.7.7-.7h3.6v9.5zm-10.4-11.3h-4.3c.4.5.5.9.5 1.9v3.8h-5.8v-3.8c0-1 .1-1.3.5-1.9h-4.3c.4.5.5.9.5 1.9v9.8c0 1-.1 1.3-.5 1.9h4.3c-.4-.5-.5-.9-.5-1.9v-4.2h5.8v4.2c0 1-.1 1.3-.5 1.9h4.3c-.4-.5-.5-.9-.5-1.9v-9.8c0-1 .1-1.3.5-1.9zm-46.3 12.1c-3.7 0-5.1-2.5-5.1-6.3 0-3.9 1.8-6.4 5-6.4 1.6 0 3 .6 4.1 1.8l1.8-3.6c-.6.4-1.1.5-1.7.5-1.4 0-2.3-.4-4.5-.4-5.1 0-8.4 3.6-8.4 8.2 0 5.1 3.1 8 7.9 8 3.2 0 4.7-1 6.4-2.5l-.9-1.5c-1.2 1.3-2.8 2.2-4.6 2.2z" fill="#fff"/><path d="M188.1 13c1 0 1.5.3 1.9.7l1.1-2.4h-12.3l-1.1 2.4c1-.6 1.6-.7 3-.7h1.9v9.9c0 1-.1 1.3-.5 1.9h4.3c-.4-.5-.5-.9-.5-1.9V13h2.2zm60.3 9.8l-4.9-11.5h-3.9c.5.5.7.7 1 1.3l-4.4 10.2c-.4.9-.8 1.5-1.3 2.1h3.3c-.4-.8-.3-1.2.1-2.2l.3-.8h5.9l.4.8c.3 1 .5 1.4.1 2.2h4.8c-.7-.6-1-1.2-1.4-2.1zm-9.1-2.6l2.4-5.7 2.2 5.7h-4.6zm24.4-8.9l-1.1 2.4c1-.6 1.6-.7 3-.7h1.9v9.9c0 1-.1 1.3-.5 1.9h4.3c-.4-.5-.5-.9-.5-1.9V13h2.2c1 0 1.4.3 1.9.7l1.1-2.4h-12.3zm-7.6 0v.1h-5.5c.4.5.5.9.5 1.9v9.8c0 1-.1 1.3-.5 1.9h4.3c-.4-.5-.5-.9-.5-1.9v-2.3h1.7c3.8 0 6.1-1.9 6.1-4.9 0-3.1-2-4.6-6.1-4.6zm-.5 7.9h-1.2V13h1.2c2.2 0 3.3.9 3.3 3s-1.1 3.2-3.3 3.2zm-145.7 3.5l-.6-1.5c-.9 1.2-2.4 2.1-4.3 2.1-2.7 0-3.9-2.1-3.9-5.2 0-3.3 1.5-5.5 4.1-5.5 1.7 0 2.7.8 3.4 1.5l1.3-3c-.4.2-.8.3-1.2.3-.9 0-1.9-.4-3.7-.4-4.4 0-7.3 3-7.3 7.1 0 4.7 2.9 7 6.5 7 2.7 0 4.2-.8 5.7-2.4zm-18.6 2.4c2.7 0 4.2-.8 5.7-2.4l-.6-1.5c-.9 1.2-2.4 2.1-4.3 2.1-2.7 0-3.9-2.1-3.9-5.2 0-3.3 1.5-5.5 4.1-5.5 1.7 0 2.7.8 3.4 1.5l1.3-3c-.4.2-.8.3-1.2.3-.9 0-1.9-.4-3.7-.4-4.4 0-7.3 3-7.3 7.1 0 4.7 2.9 7 6.5 7zm64.3-13.8h-4.3c.4.5.5.9.5 1.9v.4l-5.8 6.2v-6.6c0-1 .1-1.3.5-1.9h-4.3c.4.5.5.9.5 1.9V23c0 1-.1 1.3-.5 1.9h4.3c-.4-.5-.5-.9-.5-1.9v-.4l5.8-6.2V23c0 1-.1 1.3-.5 1.9h4.3c-.4-.5-.5-.9-.5-1.9v-9.8c0-1 .1-1.3.5-1.9zM98.7 31.7h-4.3c.4.5.5.9.5 1.9v3.8h-5.8v-3.8c0-1 .1-1.3.5-1.9h-4.3c.4.5.5.9.5 1.9v9.8c0 1-.1 1.3-.5 1.9h4.3c-.4-.5-.5-.9-.5-1.9v-4.2h5.8v4.2c0 1-.1 1.3-.5 1.9h4.3c-.4-.5-.5-.9-.5-1.9v-9.8c0-1 .1-1.3.5-1.9zM82.5 43.3l-4.9-11.5h-3.9c.5.5.7.7 1 1.3l-4.4 10.2c-.4.9-.8 1.5-1.3 2.1h3.3c-.4-.8-.3-1.2.1-2.2l.3-.8h5.9l.4.8c.3 1 .5 1.4.1 2.2h4.8c-.7-.6-1-1.2-1.4-2.1zm-9.1-2.6l2.3-5.7 2.3 5.7h-4.6zm66.4-29.4h-4.3c.4.5.5.9.5 1.9v.4l-5.8 6.2v-6.6c0-1 .1-1.3.5-1.9h-4.3c.4.5.5.9.5 1.9V23c0 1-.1 1.3-.5 1.9h4.3c-.4-.5-.5-.9-.5-1.9v-.4l5.8-6.2V23c0 1-.1 1.3-.5 1.9h4.3c-.4-.5-.5-.9-.5-1.9v-9.8c0-1 .1-1.3.5-1.9zM123 22.7l-4.4-5.4 4.1-4.1c.7-.7 1.4-1.3 2.4-2h-4.2c0 .6-.1 1-.9 1.8l-4.7 4.9v-4.7c0-1 .1-1.3.5-1.9h-4.3c.4.5.5.9.5 1.9V23c0 1-.1 1.3-.5 1.9h4.3c-.4-.5-.5-.9-.5-1.9v-4.8l4.2 5.1c.5.6.6 1 .6 1.6h5.3c-1-.6-1.4-1-2.4-2.2zM63.4 9.1h-5.9c.4.5.5.9.5 1.9v12c0 1-.1 1.3-.5 1.9h4.4c-.4-.5-.5-.9-.5-1.9v-3h2c4.1 0 6.6-2.1 6.6-5.6 0-3.4-2.4-5.3-6.6-5.3zm-.5 8.9h-1.5v-7.1h1.5c2.4 0 3.7 1.3 3.7 3.5 0 2.3-1.3 3.6-3.7 3.6z" fill="#fff"/></svg>