<svg xmlns="http://www.w3.org/2000/svg" height="56.693" width="310.187"><path d="M0 28.913h56.702V0H0v28.913z" fill="#ee293d"/><path d="M0 56.693h56.706V28.346H0v28.347z" fill="#231f20"/><path d="M9.89 30.071h36.893v-3.45H9.89v3.45z" fill="#fff"/><path d="M92.882 14.156c6.17 0 10.044 4.033 10.044 9.604 0 5.803-3.874 9.144-10.044 9.144H80.608v9.484H75.38V14.156h17.503zm.3 14.08c2.708 0 4.404-1.876 4.404-4.4 0-2.784-1.696-5.008-4.704-5.008H80.608v9.409h12.573m29.132 14.94c-8.994 0-16.447-5.98-16.447-14.94 0-8.844 7.453-14.943 16.447-14.943 9.035 0 16.369 6.1 16.369 14.943 0 8.96-7.334 14.94-16.37 14.94m0-25.062c-6.553 0-11.032 4.438-11.032 10.122 0 5.836 4.293 10.159 11.033 10.159 6.7 0 10.948-4.36 10.948-10.16 0-5.683-4.248-10.121-10.948-10.121m38.05 25.028c-9.45 0-16.564-5.985-16.564-14.94 0-8.81 7.223-14.909 16.564-14.909 5.574 0 9.558 1.585 13.139 4.213l-2.795 4.147c-2.593-2.001-5.866-3.465-10.192-3.465-6.893 0-11.182 4.364-11.182 10.013 0 5.835 4.33 10.043 11.254 10.043 4.327 0 7.75-1.392 10.35-3.38l2.784 4.138c-3.572 2.632-7.784 4.14-13.358 4.14m58.567-7.606l-3.235 6.854h-5.65l13.737-28.235h5.492l13.78 28.235h-5.648l-3.233-6.854H218.93zm2.181-4.59h10.883l-5.424-11.444-5.459 11.444m49.64 11.441V30.31h-18.478v12.078h-5.234V14.156h5.234V25.68h18.478V14.156h5.235v28.232h-5.235m12.98 0V14.156h5.239v13.175l14.185-13.175h6.427L294.989 27.75l15.198 14.638h-7.032l-14.185-13.7v13.7h-5.239M197.12 24.507h-12.26v-5.952h20.195v-4.422h-25.428V42.34h17.492c6.163 0 10.41-3.351 10.41-8.916 0-5.791-4.247-8.918-10.41-8.918m.302 13.168h-12.56v-8.498h12.56c3.278 0 5.142 1.73 5.142 4.248 0 2.78-1.481 4.25-5.142 4.25" fill="#231f20"/></svg>