<svg xmlns="http://www.w3.org/2000/svg" viewBox="0 0 72.8 30.9"><path fill="#FFF" d="M70.8 17.5c-6.8 0-13.3-2.5-18.4-7-.1-.1-.5-.5-.6-.5-.7-.7-1.4-1.1-2-1.4-.7-.4-1.5-.6-2.3-.6h-.4c-.7 0-1.3.2-1.7.6-.5.4-.8 1-.9 1.8-.1.6-.4 1-1 1.2h-.1c-.3.1-.6.2-.9.2h-.1V10h-.9l1-1.8h.1c.2.1.4.1.7.1.5 0 .8-.1 1.2-.4l-.8-.4v-.1l.1-.1h.1c.5 0 .9.1 1.3.3l.1.1c.1-.1.1-.2.1-.3.1-.4-.1-.7-.4-.9-.3-.2-.8-.4-1.1-.4h-.2l.3-.6h-.5V5c.4-.3.5-.5.5-.8 0-.5-.4-1-1-1h-.1l-.1.3h-.1l-.1-.1c0-.2-.2-.4-.4-.5h-.1v-.4h.3-.3v-.3.3h-.3.3v.4H42c-.2 0-.4.2-.4.5l-.1.1h-.1l-.1-.3h-.1c-.4 0-.8.3-.9.7H40c0-.4-.1-.8-.4-1.1-.2-.3-.6-.5-.9-.6h-.1l.1-.4h-.9l-.1.3h-.9l.2-.2c-.1-.1 0-.3 0-.4 0-.3-.2-.5-.4-.5h-.1V.5h.4V.4h-.4V0h-.1v.4H36v.1h.4v.4h-.1c-.3.1-.5.3-.5.6 0 .1 0 .3.1.4l.2.2h-.9l-.1-.3h-.9l.1.3h-.1c-.4.1-.7.3-.9.6-.2.3-.4.7-.4 1.1l-.1.1h-.1c-.1-.2-.2-.4-.3-.5-.2-.1-.4-.2-.6-.2h-.1l-.1.3h-.1l-.1-.1c0-.2-.2-.4-.4-.5h-.1v-.4h.3-.3v-.3.3h-.3.3v.4h-.1c-.2 0-.4.2-.4.5l-.1.1h-.1l-.2-.3h-.1c-.5 0-1 .4-1 1 0 .3.1.5.4.8v.6h-.5l.3.5h-.2c-.3.1-.7.2-1.1.4-.3.2-.4.5-.4.9 0 .1.1.2.1.3.1 0 .1-.1.1-.1.3-.2.8-.3 1.3-.3h.1l.1.1v.1l-.7.5c.4.3.7.4 1.2.4.2 0 .4 0 .7-.1h.1l1 1.7h-.9v1.8h-.1c-.3 0-.6-.1-.9-.2h-.1c-.7-.2-1-.6-1-1.2-.1-.8-.4-1.4-.9-1.8-.4-.3-1-.5-1.7-.6h-.4c-.8 0-1.6.2-2.4.6-.6.3-1.3.8-2 1.4 0 0-.4.4-.6.5-5.1 4.5-11.6 7-18.4 7H.6c0 .7.2 1.3.6 1.6.3.3.7.5 1.3.5.5 0 1 0 1.4-.1H4v.1c.2.7.6 1.1 1.3 1.3h1c.3 0 .6-.1.9-.1h.1v.1c.3.7.7 1.1 1.4 1.1h.2c.2 0 .5 0 .8-.1.3-.1.6-.1.9-.2h.1v.1c.3.7.8 1 1.5 1 .3 0 .6-.1.9-.2l.9-.3h.1l.1.1c.2.4.6.7 1 .8v.1l-.1.1h-4.6v.2c0 .4-.2.9-.9.9h.1v5.6h.2c.4 0 .9.2.9.9v.2h51.3V31c0-.4.2-.9.9-.9h.2v-5.6H63c-.4 0-.9-.2-.9-.9v-.2h-4.6l-.1-.1v-.1c.4-.1.8-.4 1-.8l.1-.1h.1c.2.1.6.2.9.3.4.1.7.2.9.2.7 0 1.1-.3 1.5-1v-.1h.1c.3.1.6.2.9.2.3.1.6.1.8.1h.2c.7-.1 1.2-.4 1.4-1.1v-.1h.1c.3.1.6.1.9.1h1c.7-.1 1.1-.5 1.3-1.3v-.1h.1c.5 0 1 .1 1.4.1.5 0 1-.2 1.3-.5.4-.4.6-.9.6-1.6-.3-.1-.7 0-1.2 0zm-36.2 5.7H16.3l-.1-.1V23c.1 0 .2-.1.3-.1 2-.9 4-2 5.9-3.3l.1-.1.1.1c.4.3.8.5 1.3.5h.3v.1c.4.4.9.7 1.4.7h.4v.1c.4.4.8.6 1.3.6.2 0 .3 0 .5-.1h.1l.1.1c.4.3.8.5 1.3.5s.9-.2 1.2-.5c0-.1.1-.1.1-.1l.1-.1h.1c1.2.6 2.5 1.3 3.9 1.7v.1h-.1zm1.8-14.4c-.7 0-1.4 0-2.2-.1l-2-2.2.1-.1c.3-.2.5-.5.6-.9h-.6V5c.2-.2.3-.4.4-.7l.1-.1.1.1c.1.7.7 1.2 1.3 1.4h.1v.8h4.2v-.9h.1c.7-.2 1.2-.7 1.3-1.4h.1l.1.1c0 .3.1.5.4.7v.6H40c0 .4.2.7.6.9l.1.1-2 2.2h-2.3zm20.1 14.4H38.2l-.1-.1V23c1.3-.4 2.4-1 3.9-1.7h.1l.1.1.1.1c.3.3.7.5 1.2.5s.9-.2 1.3-.5l.1-.1h.1c.2 0 .3.1.5.1.5 0 1-.2 1.3-.6v-.1h.4c.5 0 1-.2 1.4-.7V20h.3c.5 0 .9-.2 1.3-.5l.1-.1.1.1c1.8 1.3 3.8 2.4 5.9 3.3.1 0 .2.1.3.1v.1l-.1.2z"/><path fill="#BF914D" d="M14.2 27.9h1.9V25h-2.7v4.1h.9v-1.2zm0-2h1V27h-1v-1.1zm43.6 3.2l.5-1.6h.2l.5 1.6h.9l-.8-2.1.7-2h-.9l-.5 1.6h-.2l-.3-1.6H57l.7 2-.8 2.1h.9zm-8.4-1.2h1.9V25h-2.7v4.1h.9v-1.2zm0-2h1V27h-1v-1.1zm22.9-8.5v-.1h-1.5c-7 0-13.4-2.6-18.3-6.9-.1-.1-.6-.5-.6-.5-1.4-1.2-2.8-2.2-4.8-2-1.3.1-2.5.7-2.7 2.4-.1.5-.3.9-.9 1.1h-.1c-.3.1-.5.2-.8.2V9.9h-.8l.8-1.5c.2.1.4.1.7.1.6 0 .9-.2 1.4-.6l-1-.5h.1c.4 0 .9.1 1.2.3l.2.2c.1-.2.2-.3.2-.5.2-.9-.7-1.3-1.5-1.5l.3-.6h-.6V5c.3-.2.4-.5.4-.9 0-.6-.5-1.1-1.1-1.1h-.2l-.1.4c0-.3-.2-.5-.5-.6v-.2h.3v-.2h-.3v-.3h-.3v.3h-.3v.2h.3v.2c-.3.1-.5.3-.5.6l-.1-.4H41c-.5 0-.9.3-1.1.8 0-.9-.6-1.6-1.4-1.8l.1-.4h-1.2l-.1.3h-.6c.1-.1.2-.3.2-.4 0-.3-.2-.6-.5-.7V.6h.6V.3h-.4v-.4h-.3v.4h-.4v.3h.4v.2c-.3.1-.5.3-.5.7 0 .2.1.3.2.4h-.6l-.1-.3H34l.1.4c-.8.2-1.4 1-1.4 1.8-.1-.5-.6-.8-1.1-.8h-.2l-.1.4c0-.3-.2-.5-.5-.6v-.2h.3v-.2h-.3v-.3h-.3v.3h-.3v.2h.3v.2c-.3.1-.5.3-.5.6l-.1-.4h-.2c-.6 0-1.1.5-1.1 1.1 0 .4.2.6.4.9v.4h-.6l.5.6c-.8.1-1.7.5-1.5 1.5 0 .2.1.3.2.5 0 0 .2-.1.2-.2.4-.2.8-.3 1.2-.3h.1l-1 .5c.5.3.8.6 1.4.6.2 0 .5 0 .7-.1L31 10h-.8v1.7c-.3 0-.6-.1-.8-.2h-.1c-.7-.2-.9-.6-.9-1.1-.2-1.9-1.4-2.4-2.7-2.5-2-.1-3.4.8-4.8 2 0 0-.4.4-.6.5-4.8 4.3-11.2 6.9-18.3 6.9H.5v.1c0 1.2.5 2.3 2 2.2.5 0 1 0 1.4-.1.2.9.8 1.2 1.4 1.3.3.1.7 0 1 0 .3 0 .6-.1.9-.1.3.8.9 1.1 1.5 1.2.3 0 .7 0 1-.1.3-.1.6-.1.9-.2.4.8 1 1 1.6 1 .3 0 .7-.1 1-.2l.9-.3c.2.4.6.7 1.1.9h-4.7v.3c0 .1 0 .8-.8.8h-.1v5.8h.3c.1 0 .8 0 .8.8v.3h51.6v-.3c0-.1 0-.8.8-.8h.3v-5.8h-.3c-.1 0-.8 0-.8-.8V23h-4.7c.5-.1.8-.5 1.1-.9l.9.3c.3.1.7.2 1 .2.6 0 1.2-.3 1.6-1 .3.1.6.2.9.2.3.1.7.1 1 .1.6 0 1.2-.4 1.5-1.2.3.1.6.1.9.1h1c.7-.1 1.2-.5 1.4-1.3.5 0 1 .1 1.4.1 1.4.1 2-1 2-2.2zm-14.9-2.8c-.3.3-.8.7-1.6.3-.6-.3-1.5-.9-3.3-2.3.6-.1.9-.4 1.1-.5.9.8 2.8 1.9 3.8 2.5zm-12.5 2c.4 0 .8-.2 1.1-.4 1.1 1 2.6 2.3 3.8 3.1-.6.5-1.2.5-1.6.2-1.1-.9-2.7-2.3-3.3-2.9zm3.2 3.4c-.7.6-1.3.4-1.7.1-.8-.7-1.7-1.4-3.3-3 .4 0 .8-.2 1.1-.4 1.2 1.1 2.5 2.2 3.9 3.3zm-1.5-4c.4 0 .8-.2 1.1-.5 1.5 1.3 2.4 2 3.8 3-.4.4-1.1.6-1.6.2-.8-.6-2.4-1.8-3.3-2.7zm4.8 1.8c-1.1-.7-2.5-1.9-3.3-2.6.4 0 .8-.2 1.1-.5.7.6 2.3 1.9 3.8 2.8-.3.5-1 .7-1.6.3zm1.6-.9c-1.1-.7-2.3-1.6-3.3-2.5.4 0 .8-.2 1.1-.5 1.9 1.6 3.4 2.4 3.8 2.7-.4.5-1.1.7-1.6.3zm1.4-1c-.9-.6-1.7-1.1-3.3-2.4.4 0 .8-.2 1.1-.5.8.6 2 1.5 3.8 2.6-.4.5-1.1.7-1.6.3zm-11.8-3.6c.3 0 .7-.1 1-.2h.1c.9-.3 1.3-.8 1.3-1.6.2-1.6 1.3-2 2.6-1.9 1.6.1 2.8.9 3.9 1.9.2.2.4.3.6.5.4.3.7.6 1.1.9-.4.4-1.1.5-1.6.1-.5-.5-1-.9-1.5-1.4-.1.1-.3.2-.4.3.7.7 1.5 1.4 2.2 2.1-.4.4-1.1.5-1.6 0l-.3-.3-1.2-1.2c-.2.1-.3.2-.5.3.5.5 1 1 1.6 1.5.2.2.4.4.7.6-.4.4-1.1.5-1.6 0-.3-.2-.5-.5-.8-.7-.3-.3-.6-.6-.8-.9-.2.1-.3.2-.5.2.5.6 1.1 1.1 1.7 1.7.2.2.4.4.6.5-.5.4-1.1.4-1.6 0l-1.2-1.2-.5-.5c-.2.1-.3.1-.5.2.6.6 1.1 1.2 1.7 1.8l.5.5c-.5.3-1.1.4-1.7-.1-.6-.6-1.2-1.2-1.7-1.8-.2.1-.3.1-.5.2.7.8 1.4 1.6 2.2 2.3-.5.3-1.1.4-1.7-.1-.5-.5-1-1-1.4-1.5v-2.2zm0 2.6c.4.5.9.9 1.3 1.4-.4.3-.9.3-1.3.1v-1.5zm0 2.4c1.1 1.1 2.5 2.4 3.7 3.3-.4.4-1.1.5-1.7.1-.7-.6-1.4-1.2-2-1.8v-1.6zm0 2.2c.6.6 1.3 1.2 1.8 1.6-.3.3-1.1.6-1.7 0l-.1-.1v-1.5zm-.3 2c.6.6 1.8.8 2.7 0 .7.2 1.5-.1 1.9-.6.7.2 1.4-.2 1.8-.7.6.1 1.2-.2 1.6-.6 1.8 1.3 3.8 2.4 5.9 3.3.1 0 .2.1.3.1H38.2c1.4-.4 2.6-1 3.9-1.7.1.1.1.2.2.2zm-.9-11.7c-.2 0-.4-.1-.6-.1l.5-.8c.1.1.1.2.2.2s.2.1.3.1l-.4.6zm0-3.4c-.5 0-1-.2-1.2-.6h3.4l-.4.6h-1.8zm0 .8c.1.2.1.3.3.4l-.4.7c-.2.3-.6 0-.4-.3l.5-.8zm-.1-.4l-.8 1c-.2.3-.7 0-.4-.3l.7-.7c.2-.1.4-.1.5 0zm-1.1 1.4l-.6.8-.4-.4.6-.7c0 .1.1.2.2.2 0 0 .1.1.2.1zm.3.2c0 .1.1.2.2.2.1.1.2.1.3.1l-.5.9c-.2-.1-.4-.2-.6-.4l.6-.8zm1.5.2c-.2.3-.6 0-.5-.2l.5-.6c.1.1.3.1.5.1l-.5.7zm-.3-1.8h.3c.1.2.3.4.5.4l.2-.4h.3l-.4.8c-.6-.1-.9-.4-.9-.8zM44 8c-.2.1-.4.2-.7.2-.2 0-.4 0-.5-.1l.1-.1.2-.4.9.4zm-.3-1.7c.6.1 1.5.3 1.4 1.1-.4-.2-.9-.3-1.3-.3h-.5l.2-.4.2-.4zM43 3.4c.4 0 .7.3.7.8 0 .2-.1.4-.2.5h-.8l.3-1.3zm-.9-.3c.1 0 .3.1.3.2s-.1.2-.3.2-.2-.1-.2-.2c-.1 0 0-.2.2-.2zm0 .9c.2 0 .4-.1.5-.3l-.3 1.1h-.5l-.3-1.1c.1.2.3.3.6.3zm1.2 1.1v.4h-2.5v-.4h2.5zm-2.2-1.7l.3 1.3h-.8c-.1-.1-.2-.3-.2-.5 0-.4.3-.8.7-.8zm-1.4.5c0 .9-.7 1.6-1.6 1.6h-.4l.8-3.1c.8.1 1.2.7 1.2 1.5zm-1.4 1.9v.4h-3.8v-.4h3.8zM37.9 2h.5l-.9 3.5H37l.9-3.5zm-1.5-.8c.2 0 .3.2.3.3s-.2.3-.3.3c-.2 0-.3-.2-.3-.3s.1-.3.3-.3zm.3.9l-.3 1.2-.3-1.2c.1.1.2.1.3.1.1 0 .2 0 .3-.1zm-.9.2l.6 2.3.6-2.3h.4l-.9 3.1h-.3l-.9-3.1h.5zm-.9-.3l.9 3.5h-.5L34.5 2h.4zm-.7.3l.8 3.1h-.4c-.9 0-1.6-.7-1.6-1.6.1-.7.6-1.3 1.2-1.5zm-1.4 2c.2.7.7 1.3 1.4 1.5v.8h4.5v-.9c.6-.2 1.2-.7 1.3-1.5 0 .3.2.6.4.8v.4h-.6c.1.6.3 1 .7 1.1l-1.9 2c-.7.1-1.5.1-2.2.1-.7 0-1.5-.1-2.2-.1l-1.9-2c.4-.2.6-.5.7-1.1h-.6V5c.2-.2.4-.4.4-.7zm-1.4 2.1h-1.9l-.4-.6h3.4c-.1.5-.7.6-1.1.6zm.6.3l.7.7c.3.3-.1.6-.4.3l-.8-1h.5zm0 1.2c.2.3-.3.6-.4.3l-.4-.7c.1-.1.2-.2.3-.4l.5.8zm.1.7c.1-.1.2-.1.2-.2l.7.8c-.2.2-.4.3-.6.4l-.5-.9s.1-.1.2-.1zm.5-.4c.1 0 .2 0 .2-.1l.2-.2.6.7-.4.4-.6-.8zm-.9-4.8c.4 0 .7.3.7.8 0 .2-.1.4-.2.5h-.8l.3-1.3zm-.9-.3c.1 0 .2.1.2.2s-.1.2-.2.2-.2-.1-.2-.2c-.1 0 0-.2.2-.2zm0 .9c.2 0 .4-.1.5-.3l-.3 1h-.5l-.3-1.1c.1.3.3.4.6.4zM32 5.1v.4h-2.5v-.4H32zm-2.9-.9c0-.4.3-.7.7-.8l.3 1.3h-.8c-.1-.1-.2-.3-.2-.5zM29 7.1c-.4 0-.9.1-1.3.3-.1-.8.8-1 1.4-1.1l.2.4.2.4H29zm.5 1c-.3 0-.5 0-.7-.2l.9-.5.3.5.1.1c-.2.1-.4.1-.6.1zm.7-.5l-.4-.8h.3l.2.4c.2 0 .4-.1.5-.4h.3c0 .4-.3.7-.9.8zm.6 1l-.4-.7c.2 0 .4-.1.5-.1l.4.7c.1.2-.4.4-.5.1zm.2.5c.1 0 .2 0 .3-.1.1 0 .2-.1.2-.2l.5.8c-.2.1-.4.1-.6.1l-.4-.6zm-.2 1.4c1.3-.1 2.1-.3 3.1-1.3.8.1 1.7.2 2.5.2s1.7-.1 2.5-.2c.9 1 1.7 1.3 3.1 1.3v10.3c-.5.3-3.2 1.7-5.6 2.2-2.4-.4-4.8-1.8-5.6-2.2V10.5zm-.2 11c0-.1.1-.1.1-.1 1.3.7 2.5 1.3 3.9 1.7H16.3c.1 0 .2-.1.3-.1 2.1-.9 4-2 5.9-3.3.4.4 1 .6 1.6.6.4.5 1.1.8 1.8.7.5.5 1.2.8 1.9.6.9.7 2.2.5 2.8-.1zM22 14c.3.3.7.5 1.1.5-1 .9-2.2 1.8-3.3 2.5-.6.4-1.3.2-1.6-.3.4-.3 1.9-1.2 3.8-2.7zm-5.2 1.6c1.8-1 3-2 3.8-2.6.3.3.7.5 1.1.5-1.6 1.3-2.4 1.8-3.3 2.4-.5.4-1.2.2-1.6-.3zm6.7-.8c.4.3.7.5 1.1.5-.7.7-2.2 1.9-3.3 2.6-.6.4-1.3.2-1.6-.2 1.6-1.1 3.2-2.3 3.8-2.9zm1.6.7c.3.2.7.4 1.1.5-1 .9-2.6 2.2-3.3 2.7-.6.4-1.3.2-1.6-.2 1.4-1 2.4-1.7 3.8-3zm3.1 5.2c-.6.4-1.2.3-1.7-.1 1.2-1 2.6-2.2 3.7-3.3v1.5c-.6.6-1.3 1.3-2 1.9zm2-1.2V21l-.1.1c-.6.6-1.4.3-1.7 0 .5-.4 1.2-1 1.8-1.6zm-1.3-3.2c.5-.5.9-.9 1.3-1.4v1.5c-.4.3-.9.2-1.3-.1zm.8.8c-1.6 1.6-2.5 2.3-3.3 3-.3.3-1 .5-1.7-.1 1.4-1.1 2.7-2.2 3.8-3.3.4.2.8.4 1.2.4zm-5.1 2.3c-.5.3-1.1.4-1.6-.2 1.2-.8 2.7-2.1 3.8-3.1.4.3.7.4 1.1.4-.6.7-2.2 2.1-3.3 2.9zm-3.9-8.5c.2-.2.4-.3.6-.5 1.1-1 2.2-1.8 3.9-1.9 1.3-.1 2.5.3 2.6 1.9.1.8.5 1.3 1.3 1.6h.1c.3.1.7.2 1 .2v1.9c-.4.5-.9 1-1.4 1.5-.5.5-1.2.4-1.7.1.8-.7 1.5-1.5 2.2-2.3-.2-.1-.4-.1-.5-.2-.5.6-1.1 1.2-1.7 1.8-.5.5-1.2.4-1.7.1l.5-.5c.6-.6 1.2-1.2 1.7-1.8-.2-.1-.3-.1-.5-.2-.2.2-.3.4-.5.5l-1.2 1.2c-.6.5-1.2.4-1.6 0 .2-.2.4-.3.6-.5.6-.5 1.1-1.1 1.7-1.7-.2-.1-.3-.1-.5-.2-.3.3-.6.6-.8.9-.3.2-.5.5-.8.7-.6.5-1.2.4-1.6 0 .2-.2.4-.4.7-.6.5-.5 1.1-1 1.6-1.5-.2-.1-.3-.2-.5-.3L23 12.3l-.3.3c-.6.4-1.2.3-1.6 0 .8-.6 1.5-1.3 2.2-2.1-.1-.1-.3-.2-.4-.3-.5.5-1 1-1.5 1.4-.6.4-1.2.3-1.6-.1.2 0 .6-.3.9-.6zm-1.5 1.2c.2.1.5.4 1.1.5-1.8 1.4-2.7 2-3.3 2.3-.8.4-1.3 0-1.6-.3 1-.6 2.9-1.7 3.8-2.5zM3.4 19c-1 .1-2 0-2.2-1.1 2.8.1 5.3-.2 7.3-.7 3.5-.8 5.8-2 6.5-2.4.5.6.9.7 1 .7-3.6 1.9-6.3 2.6-8.5 3-1.5.3-2.8.4-4.1.5zm3.1 1.3c-.8.1-1.6.2-1.9-.9 4.9-.5 8.8-1.9 11.8-3.6.3.4.6.6 1 .7-5.5 3.2-10.5 3.8-10.9 3.8zm3 1.1c-.9.1-1.4-.4-1.5-.8 4.9-.9 8.4-2.8 9.9-3.7.2.2.6.6 1 .7-2 1.2-4 2.1-5.6 2.7-2.1.7-3.2 1-3.8 1.1zm3.4.7c-.7.2-1.2 0-1.6-.7 4.1-1.2 7-3 8-3.5.3.3.6.5 1 .6-1.7 1.1-3.6 2-5.4 2.8-.5.2-1.3.6-2 .8zm1.9-.2c1.2-.5 3.3-1.3 6.1-3.2.4.4.9.6 1 .6-2.3 1.5-3.5 2.1-3.7 2.2-.2.1-.9.5-1.9.9-.8.4-1.2 0-1.5-.5zm46.8 1.8c.1.7.6 1 1.1 1v4.7c-.7.1-1 .6-1 1.1H11.2c-.1-.7-.6-1-1.1-1v-4.7c.7-.1 1-.6 1-1.1h50.5zm-5.2-1.3c-1-.4-1.7-.8-1.9-.9-.2-.1-1.3-.6-3.7-2.2.2 0 .6-.2 1-.6 2.8 1.8 5 2.7 6.1 3.2-.2.5-.6.9-1.5.5zm3.5-.3c-.6-.2-1.5-.5-2-.8-1.8-.8-3.6-1.7-5.4-2.8.4-.1.7-.3 1-.6.9.6 3.9 2.4 8 3.5-.4.6-.9.8-1.6.7zm3.4-.7c-.6-.1-1.7-.4-3.8-1.1-1.5-.6-3.5-1.5-5.5-2.7.4-.1.8-.4 1-.7 1.4.8 5 2.7 9.9 3.7-.2.4-.7.9-1.6.8zm3-1.1c-.4-.1-5.5-.7-10.9-3.8.4-.1.7-.3 1-.7 3 1.7 6.9 3.1 11.8 3.6-.3 1.1-1.1 1-1.9.9zm3.1-1.3c-1.3-.1-2.7-.2-4.1-.5-2.2-.4-4.9-1.1-8.5-3 .1 0 .5-.1 1-.7.7.4 3 1.6 6.5 2.4 2 .5 4.5.8 7.3.7-.1 1.1-1.2 1.2-2.2 1.1zm-26.7 8.8h-.9v.4h-1v-2.3h1v.4h.9V25H40v4.1h2.7v-1.3zm-4.5 0h-.9v.4h-1v-2.3h1v.4h.9V25h-2.7v4.1h2.7v-1.3zm6.9 1.3h.9v-3.2h.9V25h-2.7v.9h.9v3.2zm8.6-.9h1l.1 1h.9l-.5-4.2h-2.1l-.4 4.1h.9l.1-.9zm.2-2.3h.6l.1 1.4h-.8l.1-1.4zM20.6 25h-2.7v4.1h2.7V25zm-.9 3.2h-1v-2.3h1v2.3zm8.1-2.3h1.5V25h-2.4v4.1h.9v-3.2zm5.8-.9h-2.7v4.1h2.7V25zm-.8 3.2h-1v-2.3h1v2.3zm-7.7-.4h-.9v.4h-1v-2.3h1v.4h.9V25h-2.7v4.1h2.7v-1.3z"/><path fill="#9E0918" d="M35.7 14.8h-1.1v.8h1.1v-.8zm3.1-5.2c-.8.1-1.6.1-2.3.1-.8 0-1.6 0-2.3-.1-.7.8-1.7 1.2-2.8 1.3v9.6c.2.1 3 1.6 5.2 2 2.2-.4 4.9-1.9 5.2-2v-9.6c-1.3-.1-2.3-.5-3-1.3zm-2.4 12.3c-1.4-.3-2.9-.8-4.4-1.6v-.4c.2.1 2.3 1.3 4.4 1.7 2-.4 4.1-1.5 4.4-1.7v.4c-1.6.8-3.1 1.3-4.4 1.6zm-4-7.1v-.5h.9v2.8h.4v.5h-1.2v-.5h.4v-2.3h-.5zm1.7 1.3v-1.8h2v3.3h-2v-.5h1.6v-1h-1.6zm2.6-1.3v-.5h2v1.8h-1.5v1h1.4v.5h-1.9v-2h1.5v-.8h-1.5zm2.5 0v-.5h.9v2.8h.4v.5h-1.2v-.5h.4v-2.3h-.5zm1.6-3c-.2 0-.7-.2-1.2-.4-.6-.3-.9-.6-1.1-.7-.2 0-1.1.1-2.1.1s-1.8-.1-2.1-.1c-.1.1-.5.4-1.1.7-.5.3-1.1.4-1.2.4v-.4c.3-.1.7-.2 1-.4.7-.4 1-.7 1-.7l.1-.1h.1s1 .1 2.2.1c1.1 0 2.1-.1 2.2-.1h.1l.1.1s.3.4 1 .7c.4.2.8.3 1 .4v.4z"/></svg>