<svg xmlns="http://www.w3.org/2000/svg" width="375.561" height="84.19"><defs><clipPath id="a"><path d="M1135.42 594.32h3004.49v673.53H1135.42V594.32z"/></clipPath></defs><g clip-path="url(#a)" transform="matrix(.13 0 0 -.13 -141.928 158.48)"><path d="M3038.81 814.48h38.95c35 0 55.36 13.75 55.36 42.438 0 28.719-20.36 42.461-55.36 42.461h-38.95V814.48zm135.49 238.56v-50.15h-135.49v-59.023h50.5c91.18 0 110.2-55 110.2-91.383 0-29.922-21.65-82.48-110.2-82.48h-113.36v283.036m433.41-172.645l-45.61 115.628h-.92l-42.9-115.628h89.43zm-7.54 172.645l123.09-283.036h-70.84l-26.12 63.883h-127.96l-26.12-63.883h-67.3l123.51 283.036m286.41 0V939.016h125.72v114.024h62.88V770.004h-62.88v122.5h-125.72v-122.5h-62.89v283.036m390.17 0V932.145h1.33l112.02 120.895h74.83l-129.29-128.173 137.25-154.863h-79.69L3945.1 910.723h-1.33V770.004h-62.85v283.036m-1806-274.134c-27.46-8.511-55.34-12.148-80.14-12.148-77.06 0-161.16 40.039-161.16 143.144 0 97.438 75.27 146.368 172.67 146.368 24.35 0 45.16-2.84 68.63-9.72l-2.66-48.515c-18.14 6.465-38.06 10.525-61.54 10.525-69.51 0-110.69-40.037-110.69-97.837 0-68.356 50.48-96.243 106.26-96.243 27.46 0 49.14 6.079 64.65 12.54m729.05 226.02V770.004h-62.87v236.526h-122.63V770.004h-62.87v283.036m-177.9 0l-76.47-203.228-76.27 203.228h-106.26V770.004h62.86v242.586h.44l89.43-242.586h59.76l89.45 242.586h.45V770.004h62.87v283.036m-734.05 177.65c1.36.66 3.37 1.61 4.74 2.27-2.22-1.07-3.79-1.8-4.74-2.27zm60.98 22.11c-3.78 4.08-54.79-19.14-54.79-19.14.67.44 1.48.96 2.3 1.51 10.03 5.8 25.97 14.14 20.01 20.92-2.99 3.34-9.73 1.86-29.18-9.16-9.13-5.2-56.88-23.77-106.25-43.29-40.73-16.51-114.69-46.41-121.3-53.26-.2-.23-.37-.39-.54-.64-.7-1.06-1.35-2.38-2.03-3.72-2.54-5.35-5.11-13.54-7.63-23.84-.09-.34-.17-.63-.25-.98-.15-.63-.3-1.3-.45-1.92-3.01-13.67-5.72-30.39-8.69-48.88-8.71-56.15-17.61-139.709-17.61-139.709s-2.24-56.898-8-84.05a74.763 74.763 0 00-3.42-11.36c-.4-1.355-.89-2.715-1.4-4.019a.26.26 0 01-.06-.137v.043c-1.97-5.039-4.64-9.785-8.35-13.512-11.4-11.672-39.46-7.945-47.21-7.047-18.12 2.071-35.88 13.879-38.34 17.004-2.36 3.18-14.88 18.836-30.96 20.293-4.75.418-24.2-2.761-30.58-2.578-6.4.195-15.33 8.59-25.41 9.594-10.26 1.18-26.57-8.418-26.57-8.418s40.09-13.938 44.99-20.219c4.87-6.347 16.91-22.219 31.51-28.433 14.6-6.227 65.61-60.004 65.61-60.004s10.4-9.883 27.69-22.832c-15.11-4.961-31.04-8.477-47.59-10.168-114.08-11.668-211.52 58.277-224.27 162.386-2.84 22.832-1.15 45.516 4.87 67.192 7.06 26.125 17.89 51.203 36.89 72.914 34.62 39.73 82.01 65.71 137.3 71.3 33.7 3.48 67.97-1.35 99.44-12.81-.24 3.35-.49 6.66-.7 9.97-31.57 11.16-65.84 15.34-100.43 11.76-56.75-5.82-107.59-31.4-143.17-72.17-25.3-28.788-40.64-62.831-45.22-98.691-.94-4.957-1.06-8.535-1.66-15.054-1.01-12.192-.67-35.36.87-47.977 12.96-105.625 117.2-181.66 232.92-169.824 24.69 2.519 47.96 8.847 68.98 18.183 16.81-11.132 37.04-22.929 59.06-31.797 54.44-22.121 121.24-24.492 136.11-26.191 31.16-3.711 59.07-40.098 67.77-47.363 8.52-7.18 66.91 4.238 66.91 4.238s-4.2 10.926-6.64 24.91c-2.44 13.957-19.13 20.246-22.39 23.86-3.29 3.574-78.4 34.882-90.43 41.824-11.91 6.875-27.06 21.281-42.77 45.683-15.49 24.497-8.92 42.747-6.35 47.344 2.77 4.551 8.8 5.516 12.31 11.578 3.68 6.117.76 6.59.4 9.684-.3 3.125 1 5.394 4.2 10.73 3.22 5.297 1.89 4.836 1.89 4.836l.69 6.621c.66 6.625 0 0 1.38 2.25l1.31 2.332s-.34 3.157 1.06 5.426c1.31 2.223-1.63 4.606-1.06 7.336.58 2.684 1.32 2.285 2.44 7.602.96 5.406.45 2.754.64 8.515.32 5.789 1.82 3.117 5.02 6.407 2.97 3.414-3.2 7.57-3.2 7.57s.43 2.59 5.55 12.832c5.04 10.348 0 0 1.42 4.172 1.46 4.277-1.78 7.883-2.46 12.023-.69 4.414.58 2.848 1.53 8.164.95 5.399 0 0 1.86 4.977 1.82 4.933 1.08 7.316 1.08 7.316l-3.43 10.528 1.81 2.996c1.84 3.093-.05 8.976-.05 8.976l-4.69 12.114s.19 5.773.77 8.484c.51 2.742-4.14 14.824-4.14 14.824l2.99 12.27-4.36 17.832-2.88 15.18s-.49 22.87-.51 31.76c-.21 8.84-.21 19.62 1.55 31.64 1.65 11.94 39.39 26.55 43.5 33.5 3.97 6.79-22.91-.53-22.91-.53s47.43 12.86 50.67 18.28c2.44 4.06-31-1.94-31-1.94-2.97-.52 0 0 0 0 12.91 2.67 47.09 10.35 58.75 19.53 13.13 10.72-23 2.48-28.81 1.04 5.92 1.47 45.68 11.34 51.16 22.3 3.2 6.29-29.73 1.72-29.73 1.72 16.46 3.89 36.07 9.21 48.08 14.77 23.67 10.84 25.05 19.06 20.28 21.36-4.79 2.3-43.86-9.77-43.86-9.77-.9-.29-1.39-.45-2.04-.66 1.1.37 2.04.66 2.04.66 11.29 3.98 23.75 8.86 30.94 13.27 15.09 9.17 33.69 20.59 27.22 27.76" fill="#0d4d84"/><path d="M1214.46 1022.93l38.17 49.53-46.56-42.41-21.27 71.47 3.73-72.64-39.04 23.62 35.63-33.77-49.7-12.53 50.37 2.31-41.64-53.182 49.53 45.052 20.47-66.068-3.56 65.918 37.51-22.316-36.16 34.246 49.8 12.97-47.28-2.2zm491.48 244.09c-3.68 3.89-27.87-7.32-27.87-7.32s-147.44-64.81-212.44-97.01c-13.99-6.91-31.3-17.81-31.43-38.67-.32-67.02 14.11-165.715 21.4-217.657 7.29-51.965 12.25-73.519 12.02-75.238.25 1.813 2.94 6.426 4.88 15.516 5.76 27.152 8 84.05 8 84.05s8.9 83.559 17.61 139.709c5.96 37.38 11.05 67.56 19.2 79.59 5.26 7.67 124.25 54.37 145.01 63.21 25.36 10.8 28.19 13.64 28.7 21.36.53 7.73-26.53-.85-26.53-.85s23.33 11.5 31.79 16.98c8.58 5.4 13.34 12.46 9.66 16.33" fill="#00adef"/></g></svg>