<svg xmlns="http://www.w3.org/2000/svg" version="1.1" id="Слой_1" x="0" y="0" viewBox="-197 400.89 133.7 41" xml:space="preserve" width="133.7" height="41"><style type="text/css" id="style3">.st0{fill:#203f7f}</style><path class="st0" d="M-110.3 421.49h-4.8l-4.9 11.4-4.7-11.4h-5l-4.7 11-1.1 2.6h4.7l1.1-2.8h5l1.1 2.8h7.5l3.5-9.9 3.4 9.9h4.7l-.6-1.4-5.2-12.2zm-16.9 7.7h-1.4l1.4-3.9 1.4 3.8-1.4.1z" id="path5" fill="#fff" fill-opacity="1"/><path class="st0" d="M-105.1 425.29c-.3.9-.6 2-.6 3.3 0 1.1.2 2.1.6 3 .9 2.2 3 3.7 5.4 3.7h6.1v-3.4h-3.9c-2.4 0-3.7-.5-3.7-3.3s1.3-3.5 3.7-3.5h3.9v-3.4h-6c-2.5-.2-4.6 1.1-5.5 3.6z" id="path7" fill="#fff" fill-opacity="1"/><path class="st0" d="M-134.3 429.79c1.1-1.3 1.1-3.1 1.1-3.6 0-.6 0-2.2-1.1-3.4-.7-.7-1.8-1.3-3.6-1.3h-9.1v13.7h4.4v-4h4.7c1.8 0 2.9-.6 3.6-1.4zm-5.2-2h-3.2v-3h3.2c.5 0 1.8 0 1.8 1.4.1 1.6-1.2 1.6-1.8 1.6z" id="path11" fill="#fff" fill-opacity="1"/><path class="st0" id="polygon13" fill="#fff" fill-opacity="1" d="M-92.8 435.19h5.3l5.3-9.7v9.7h4.4v-13.7h-5.4l-5.1 9.4v-9.4h-4.5z"/><path class="st0" d="M-67.9 426.69h-4.6v-1.8h8.6v-3.4h-13v13.7h9c4.6 0 4.6-2.8 4.6-4.4 0-1.5 0-4.1-4.6-4.1zm-.8 5.3h-3.8v-2.1h3.8c1 0 1 .7 1 1 0 .3 0 1.1-1 1.1z" id="path15" fill="#fff" fill-opacity="1"/><path class="st0" d="M-183.3 419.69h-.7c-.4 11.5-1.5 18.1-3.5 21.6 1.3.4 2.8.6 4.3.6s2.9-.2 4.2-.6c-2-3.4-3.1-10-3.5-21.6h-.8z" id="path21" fill="#fff" fill-opacity="1"/><path class="st0" d="M-180.4 414.99c-.3-4.4-.3-6.2-.3-8.4h-1.1s0 6.1.1 8.1c-.4 0-.8 0-1.2-.1v-13.7h-1v13.7c-.4 0-.8 0-1.2.1 0-2 .1-8.1.1-8.1h-1c0 2.2 0 4-.3 8.4-6.1 1.3-10.7 6.8-10.7 13.3 0 4.8 2.5 9 6.2 11.4 5-5 5.7-19 5.7-19.9-.7 0-1.7.3-1.8.3-1.1 6.6-3.9 12.1-7.1 15.1-1.2-1.8-1.9-3.7-1.9-5.6 0-6 5.8-10.7 12.5-10.7 6.8 0 12.5 4.7 12.5 10.7 0 1.9-.6 3.8-1.8 5.6-3.2-3-6-8.5-7.1-15-.1 0-1.1-.3-1.8-.3 0 .9.8 14.9 5.7 19.9 3.7-2.5 6.2-6.6 6.2-11.4 0-6.6-4.6-12.1-10.7-13.4z" id="path25" fill="#fff" fill-opacity="1"/><path class="st0" id="polygon27" fill="#fff" fill-opacity="1" d="M-157.4 431.29l-2.2 3.9h4.8l7.4-13.7h-4.8l-2.9 5.8-2.8-5.8h-5z"/></svg>