<svg xmlns="http://www.w3.org/2000/svg" width="522.1" height="69.5"><path d="M152.1 20.1c-4.4 0-8.1 3.7-8.1 8V35h-11.2V20.1h-.4c-4.4 0-8.1 3.7-8.1 8v27.4h.4c4.4 0 8.1-3.7 8.1-8v-6.7H144v14.7h8.5V20.1h-.4zm336.6 0c-4.4 0-8.1 3.7-8.1 8V35h-11.2V20.1h-.4c-4.4 0-8.1 3.7-8.1 8v27.4h.4c4.4 0 8.1-3.7 8.1-8v-6.7h11.2v14.7h8.5V20.1h-.4zM104.2 7.2C94.4 7.2 88 15.7 87.1 28h-10V7.9H77c-4.9 0-8.7 3.9-8.7 8.6v39h.1c4.8 0 8.7-3.9 8.7-8.8V34.3h10c.8 11.6 7.1 22 17.1 22 11.4 0 17.4-11 17.4-25.3 0-13.5-6.4-23.8-17.4-23.8zm0 42.1c-5.2 0-8.6-8.5-8.6-18.4 0-9.9 3.6-16.9 8.6-16.9s8.8 7 8.8 16.9c-.1 11.2-3.3 18.4-8.8 18.4zm78.4-29.2c-2.8 0-5.3.9-7.2 4l-11 19.2V20.1h-8.5v35.4h3.6c2.7 0 5.2-.9 7.2-4l11.7-19.9v15.9c0 4.4 3.7 8 8.1 8h.4V20.1h-4.3zm170.4 0c-2.8 0-5.3.9-7.2 4l-11 19.2V20.1h-8.5v35.4h3.6c2.7 0 5.2-.9 7.2-4l11.7-19.9v15.9c0 4.4 3.7 8 8.1 8h.4V20.1H353zM216.9 38.3c-2-4.4-4.9-7.6-9.1-9.2l15.3-21.2h-9.5l-14.7 21V8h-.2c-4.9 0-8.5 3.5-8.5 8.3v39.2h.2c4.9 0 8.5-3.5 8.5-8.3V32.6c4.4 0 7.7 2.9 9.2 6.7l6.3 16.2h9.6l-7.1-17.2zm167.6-18.2H359v6.8h8.6v28.6h.4c4.4 0 8-3.6 8-8V26.9h8.6v-6.8zm-64.1 28.7l-2.9-28.7h-20.3l-1.3 8.6c-1.1 7.6-2.9 17.3-9.8 21.4l.6 14.7h.5c3.3 0 6.1-2.7 6.1-6.1l.1-3.2h23.1l.3 9.2h.4c3.3 0 6.1-2.7 6.1-6.1l.3-8.6-3.2-1.2zm-23.7.3c3.9-4.2 5.8-11.6 6.7-17.4l.6-5.1h6.6l2 22.5h-15.9zm219.9-4.9c-1.9-3.7-4.1-6.5-7.5-7.9l12.5-16.1h-9.1l-12.1 16v-16H492v35.3h.4c4.4 0 8.1-3.7 8.1-8v-8.1c3.5 0 6.1 2.6 7.5 5.7l5 10.4h9.1l-5.5-11.3zM412.8 25.7c-2.1 0-4.3.4-5.5.7V15.3h11.2c4 0 7.3-3.3 7.3-7.3v-.1h-27v47.6h13.7c10.3 0 17.9-5.5 17.9-15 0-8.1-6.3-14.8-17.6-14.8zm-.4 24h-5.1V32.8c1.1-.3 3-.6 4.6-.6 6.1 0 9.7 3.6 9.7 8.2 0 4.8-3.5 9.3-9.2 9.3zm-127-12.8c0-10.6-5.1-16.8-14.3-16.8-9.4 0-15 7-15 17.8 0 11.1 6.1 18.1 16.4 18.1 5.7 0 9.7-1.4 11.8-2.5v-7c-2.1 1.5-5.1 3.4-11 3.4-5.3 0-8.2-3-8.9-8.8l21-2.9v-1.3zm-21.6-1.5c0-6.3 2.2-9.6 7-9.7h.3c2.3 0 6.7.8 7 7.8l-14.3 1.9zm167.7 10.1c0 6.6 4.9 10.6 14.2 10.6h1.8c3.3 0 8.7-.5 11.1-.9V32.6c0-8.8-5.9-12.5-13.1-12.5-5.4 0-9.6 1.6-11.8 2.7v5.6c3.7-2 7.1-3.2 10.4-3.2 4 0 6.8 1.2 6.8 5.7v2.3c-10.5 1-19.4 3.2-19.4 12.3zm19.4 5.7c-.8.2-2.9.3-4.7.3-4.6 0-7.2-2-7.2-6.3 0-5.9 4.5-7.4 11.9-8.1v14.1zM237.7 20.1c-4.8 0-8.8.8-11.9 2.5l-.2.1v46.8h.4c4.4 0 7.9-3.6 7.9-8v-6c1.2.3 2.8.6 4.7.6 9.2 0 15.2-7.3 15.2-18.3s-6-17.7-16.1-17.7zm-.8 30.5c-1.2 0-2.2-.1-3-.4V26.1c1.1-.4 2.1-.6 3.5-.6 5.5 0 7.9 4 7.9 12.5.1 5.6-1.3 12.6-8.4 12.6z" fill="#fff"/><path d="M58.6 29.3c0 16.2-13.1 29.3-29.3 29.3C13.1 58.6 0 45.5 0 29.3 0 13.1 13.1 0 29.3 0c16.2.1 29.3 13.2 29.3 29.3z" fill="#ee3124"/><path d="M27.4 21.2s3.4-4.4 3.7-4.9c.3-.5.5-1-.5-1.5-.9-.6-4-2.4-4.6-2.8-.6-.5-.5-2.2 1.3-2.5 1.8-.4 17.4-1.6 23.4-1 6.1.6 5.2 2.4 5.3 3.8 0 1.4-2.4 3.4-5.7 6.4 0 0-5.5 5.1-9.4 8.5-4 3.5-16.7 14.2-19.2 16.1-2.5 1.8-12.1 9-12.7 9.4-.6.5-2.4 1.9-3.3.9-.9-1 0-2.1.5-2.7.5-.7 19.8-28 21.2-29.7z" fill="#fff"/><path d="M27.4 21.2s3.4-4.4 3.7-4.9c.3-.5.5-1-.5-1.5-.9-.6-4-2.4-4.6-2.8-.6-.5-.5-2.2 1.3-2.5 1.8-.4 17.4-1.6 23.4-1 6.1.6 5.5 2.8 5.3 3.8-.4 1.4-2.4 3.4-5.7 6.4 0 0-5.5 5.1-9.4 8.5-4 3.5-16.7 14.2-19.2 16.1-2.5 1.8-12.1 9-12.7 9.4-.6.5-2.4 1.9-3.3.9-.9-1 0-2.1.5-2.7.5-.7 19.8-28 21.2-29.7z" fill="#fff"/></svg>