<svg xmlns="http://www.w3.org/2000/svg" xml:space="preserve" viewBox="0 0 272.7 104.4" y="0" x="0" id="Layer_1" version="1.1"><style id="style3" type="text/css">.st0{fill:#002d73}</style><path d="M268.6 34.8H223v69.7h26.1c5.9 0 11.4-1.5 15.2-4.1 3.8-2.6 8.4-7.9 8.4-17.8 0-9.3-4.5-14.3-7.1-16.5-2.8-2.3-8.1-5-17.1-5h-9.8V48.2h26.4l4.6-13.4h-1.1zm-22 39.6c2.2 0 4.3.5 5.6 1.5 2 1.4 3 3.6 3 6.8 0 3.3-1 4.9-1.7 5.8-1.4 1.8-3.5 2.6-6.4 2.6h-8.3V74.5c1.6-.1 7.8-.1 7.8-.1z" class="st0" id="XMLID_4_" fill="#fff" fill-opacity="1"/><path d="M217.7 34.8h-55.3v13.4h19.5v56.4h15.7V48.2h17.1l4.5-13.4h-1.5z" class="st0" id="XMLID_7_" fill="#fff" fill-opacity="1"/><path d="M113.1 34.8H112v69.6h28c13.1 0 21.5-7.8 21.5-19.9 0-6.1-1.9-10.4-6.3-14-1.6-1.3-3.4-2.3-5.2-3 1.4-.7 2.8-1.5 4-2.6 3.2-3 4.9-7.2 4.9-12.1 0-5.1-1.9-9.3-5.8-12.8-4.7-4.3-10.1-5.1-17.4-5.1h-22.6v-.1zm21.2 13.7c1.2 0 3.4 0 5.2.8 2 .8 3.2 3.1 3.2 5.8 0 1.9-.6 3.7-1.6 4.8-1.6 1.7-3.4 1.9-5.5 1.9h-8V48.6c1.6-.1 6.7-.1 6.7-.1zm1.9 26.6c2 0 4.1.2 5.7 1.7 1.3 1.3 2.2 3.6 2.2 6 0 2-.6 4-1.6 5.5-1.7 2.4-3.6 2.8-6.3 2.8h-8.5V75c1.8.1 8.5.1 8.5.1z" class="st0" id="XMLID_8_" fill="#fff" fill-opacity="1"/><path d="M64.6 34.8h-53s1.6 5.1 3.4 7.7h47.1s9 7 13.3 19.4H25.9c-8.5-7-14.9-16.4-18.3-27.1.4-1.3.9-2.6 1.4-3.9h55.5c4.3-3 8.6-7.7 8.6-7.7H12.9c.8-1.3 1.6-2.6 2.6-3.9h60.8c1.6-1.9 4.8-7.7 4.8-7.7h-59c1.4-1.4 2.9-2.7 4.5-3.9h56.3C84.4 4 85.5 0 85.5 0h-61C12.8 8.3 4 20.5 0 34.8 3.9 49 12.7 61.2 24.5 69.6h61s-1.1-18.5-20.9-34.8z" class="st0" id="XMLID_1_" fill="#fff" fill-opacity="1"/></svg>