<svg xmlns="http://www.w3.org/2000/svg" height="170.853" width="705.773"><path d="M0 5.901C0 2.905 2.415.457 5.367.457h159.661c2.953 0 5.368 2.448 5.368 5.444v159.511c0 2.992-2.415 5.441-5.368 5.441H5.368c-2.953 0-5.368-2.45-5.368-5.44V5.9" fill="#13366d" fill-rule="evenodd"/><path d="M72.937 33.672c.553 0 .81-.407.572-.905L72.286 30.2c-.236-.498-.88-.905-1.432-.905H25.791c-.551 0-.81.407-.571.905l1.222 2.566c.238.498.883.905 1.433.905h45.062m3.495 5.236c-.235-.496-.88-.905-1.432-.905H29.937c-.55 0-.809.41-.57.905l1.221 2.568c.237.496.882.903 1.433.903h45.063c.552 0 .809-.407.572-.903l-1.224-2.568m4.169 8.749c-.239-.497-.883-.904-1.434-.904H34.104c-.551 0-.807.407-.572.904l1.224 2.568c.236.497.88.904 1.431.904h45.065c.55 0 .808-.407.57-.904l-1.22-2.568m4.164 8.749c-.235-.498-.88-.904-1.432-.904H38.269c-.55 0-.806.406-.571.904l1.226 2.569c.236.498.88.904 1.43.904h45.064c.552 0 .81-.406.572-.904l-1.224-2.57m4.168 8.752c-.236-.497-.882-.905-1.432-.905H42.437c-.549 0-.807.408-.571.905l1.224 2.567c.237.499.88.905 1.432.905h45.064c.55 0 .807-.406.572-.905l-1.224-2.567m4.169 8.754c-.239-.499-.882-.905-1.433-.905H46.606c-.55 0-.807.406-.572.905l1.224 2.566c.238.499.882.905 1.432.905h45.065c.552 0 .806-.406.57-.905l-1.222-2.566m4.165 8.745c-.236-.496-.882-.904-1.432-.904H50.772c-.551 0-.808.408-.571.904l1.222 2.57c.238.497.883.903 1.433.903H97.92c.552 0 .808-.406.572-.903l-1.224-2.57" fill="#fff"/><path d="M142.975 86.13c6.036 0 10.936-4.902 10.936-10.942 0-6.037-4.9-10.937-10.936-10.937-6.046 0-10.939 4.9-10.939 10.937 0 6.04 4.893 10.942 10.939 10.942" fill="#ed1834" fill-rule="evenodd"/><path d="M84.375 24.916c.55 0 1-.45 1-1.001v-2.372c0-.551-.45-1.002-1-1.002h-69.92c-.55 0-1 .451-1 1.002v2.372c0 .55.45 1.001 1 1.001h69.92M54.531 90.5c-.55 0-.804.406-.566.903l28.477 58.998c.24.498.816.5 1.055 0l26.013-54.614c.236-.498.88-.904 1.433-.904h41.966c.551 0 1.002-.451 1.002-1.002v-2.379c0-.55-.451-1.001-1.002-1.001H54.531m98.379-69.965l-36.046.001c-.552 0-1.002.452-1.002 1.003v2.372c0 .55.45 1.003 1.002 1.003h5.343c1.329.08 9.004.117 6.08 9.08l-23.959 51.23c-.234.5.027.909.579.909h8.192c.55 0 1.197-.408 1.433-.905l25.872-54.098c1.184-2.438 2.608-4.091 4.265-4.939 1.66-.845 3.826-1.283 6.644-1.283h1.596a1.002 1.002 0 001.002-1.001v-2.37c0-.551-.45-1.002-1.002-1.002" fill="#fff"/><path d="M329.75 54.965h-7.12a.66.66 0 00-.607.611v15.916h-20.887V55.566a.665.665 0 00-.608-.6h-7.123a.661.661 0 00-.61.623v38.667a.662.662 0 00.629.625h7.084a.666.666 0 00.628-.604V77.955h20.887V94.27a.659.659 0 00.625.612h7.084a.665.665 0 00.63-.631V55.595a.662.662 0 00-.611-.63m-101.775 32.41c-1.096 1.047-2.507 1.047-3.872 1.047h-12.66c-.83.003-2.083.006-2.553-.617-.06-.09-.239-.343-.239-2.026l-.001-7.824h15.452c1.374 0 2.802.077 3.818.997 1.111 1.01 1.206 2.505 1.206 4.07v.148c.002 1.181.006 3.102-1.151 4.205zm7.543-12.853c-1.674-2.039-4.135-3.029-7.527-3.029h-19.341v-7.927c0-.466 0-1.332.492-1.754.454-.338 1.306-.383 1.996-.383h19.82a.668.668 0 00.634-.65v-5.161a.668.668 0 00-.648-.652h-24.754c-2.287 0-3.644.838-4.378 1.538-1.346 1.346-1.504 3.2-1.504 4.477v28.392c0 1.166.136 2.656 1.192 3.841 1.007 1.109 2.464 1.67 4.335 1.67h22.273c4.179 0 6.354-1.678 7.278-2.678 1.536-1.684 2.313-4.72 2.313-9.017 0-4.036-.713-6.835-2.181-8.667m21.048 3.434l6.425-15.62s.487-1.359 1.104-1.359c.643 0 1.116 1.362 1.116 1.362l6.416 15.617h-15.061zm29.825 16.023l-.021-.049-14.806-34.803c-1.57-3.403-3.64-4.612-7.469-4.612-3.927 0-5.844 1.122-7.457 4.61l-14.812 34.791-.035.074a.622.622 0 00-.045.227.68.68 0 00.66.667h6.746a.692.692 0 00.615-.443l4.135-10.026h20.385l4.137 10.044c.008.012.014.025.022.04a.687.687 0 00.59.385h6.746c.365-.02.66-.309.66-.667a.658.658 0 00-.051-.238m90.183-.207l-18.779-15.97c-.89-.765-2.553-2.191-2.553-3.383 0-.811 1.005-1.838 2.089-2.83l17.12-15.524a.67.67 0 00.168-.437.665.665 0 00-.616-.663h-8.572a.676.676 0 00-.357.137l-16.148 14.67a8.628 8.628 0 00-1.531 1.908V55.57a.664.664 0 00-.608-.604h-7.121a.668.668 0 00-.611.626v38.666c.021.334.28.597.61.626h7.122a.664.664 0 00.608-.604V77.153c.44.775 1.11 1.637 2.127 2.535l17.504 15.067c.101.074.222.12.354.129h8.744a.668.668 0 00.626-.666.659.659 0 00-.176-.446M664.43 7.823c0-.831 0-2.77-.862-4.412-1.035-1.96-2.957-2.955-5.723-2.955-3.122 0-4.989 1.183-7.129 4.515l-16.644 25.842c-.225.364-.465.79-.692.79-.147 0-.208-.044-.241-.079-.191-.19-.188-.757-.188-1.257l.018-29.207a.67.67 0 00-.609-.604h-7.123a.669.669 0 00-.612.625l.002 32.263c0 2.103 0 7.027 6.349 7.027 4.312 0 5.61-2.022 6.756-3.808l17.057-26.182c.34-.538.766-1.209 1-1.209.144 0 .31.115.31 1.01l-.012 29.564a.67.67 0 00.613.625h7.123a.663.663 0 00.606-.603l.002-31.945M227.956 32.6c-1.143 1.31-3.29 1.31-4.324 1.31h-12.385c-.588.003-1.682.01-2.204-.531-.258-.298-.392-1.01-.392-2.111v-7.823h15.51c2.438 0 3.528.952 3.96 1.519.54.752.827 2.081.827 3.83 0 1.217-.17 2.867-.992 3.806zm-19.305-15.616V8.831c0-.695.158-1.232.456-1.551.342-.37.825-.365 1.382-.36h12.907c1.279 0 2.601 0 3.643.939 1.118 1.018 1.261 2.681 1.261 4.01 0 2.502-.51 3.456-.815 3.807-.989 1.308-2.536 1.308-4.032 1.308h-14.802zm26.85 5.092c-.932-.992-2.257-1.677-3.721-1.992 1.18-.276 2.145-.885 3.081-1.957 1.862-2.119 2.014-4.327 2.014-6.594 0-2.582-.278-6.285-2.678-8.634-2.208-2.163-5.264-2.44-7.68-2.44H206.25c-2.026 0-3.562.58-4.573 1.724-.855.98-1.367 2.562-1.367 4.233v28.11c0 2.226.935 3.576 1.491 4.182 1.567 1.71 3.345 1.665 5.188 1.665h20.355c2.609 0 5.308 0 7.748-2.62 2.433-2.609 2.433-5.849 2.433-8.454 0-2.16 0-5.116-2.023-7.223M254.624 9.69c2.723-3.218 7.085-3.218 10.275-3.218 3.881 0 7.877.248 10.329 3.216 1.727 2.072 2.53 5.483 2.53 10.727 0 5.121-.827 8.612-2.53 10.672-2.66 3.273-7.276 3.273-10.33 3.273-4.942 0-8.042-.523-10.27-3.27l-.001-.003c-1.791-2.179-2.588-5.47-2.588-10.672 0-5.355.773-8.563 2.585-10.726zm26.965-5.445l-.001-.001C277.028.008 269.764.008 264.956.008c-5.043 0-11.95 0-16.628 4.233-4.488 4.058-4.864 10.476-4.864 16.174 0 4.378 0 11.705 4.864 16.174 4.616 4.234 11.845 4.234 16.628 4.234 4.832 0 12.133 0 16.633-4.236 4.744-4.467 4.744-12.67 4.744-16.172 0-5.451-.538-12.215-4.744-16.17M389.437 9.69c2.719-3.218 7.086-3.218 10.272-3.218 3.882 0 7.876.248 10.33 3.216 1.726 2.072 2.53 5.483 2.53 10.727 0 5.121-.826 8.612-2.53 10.672-2.658 3.273-7.276 3.273-10.33 3.273-4.941 0-8.042-.523-10.269-3.27v-.003c-1.79-2.178-2.59-5.47-2.59-10.672 0-5.355.773-8.563 2.587-10.726zm26.964-5.445v-.001C411.841.008 404.577.008 399.767.008c-5.043 0-11.95 0-16.627 4.233-4.488 4.058-4.864 10.476-4.864 16.174 0 4.378 0 11.705 4.863 16.174 4.617 4.234 11.845 4.234 16.628 4.234 4.832 0 12.133 0 16.634-4.236 4.744-4.466 4.744-12.67 4.744-16.172 0-5.451-.54-12.215-4.744-16.17m154.067 29.667h-21.675c-1.058 0-2.042-.032-2.457-.428-.299-.239-.503-.785-.503-1.313v-8.726h19.995a.669.669 0 00.635-.65v-5.159a.668.668 0 00-.648-.652h-19.982v-7.87c0-.546 0-1.222.552-1.7.503-.434 1.23-.494 1.936-.494l21.92.001a.666.666 0 00.635-.65V1.109a.666.666 0 00-.647-.652L544.14.46c-1.874 0-3.792.193-5.152 1.602-.923.999-1.492 2.643-1.492 4.299v27.885c0 1.732.194 3.515 1.622 4.819 1.436 1.31 3.12 1.31 4.904 1.31l26.455.001a.668.668 0 00.636-.65v-5.162a.665.665 0 00-.644-.651m134.666-.001H683.46c-1.059 0-2.043-.032-2.457-.428-.299-.239-.503-.785-.503-1.313v-8.726h19.995a.669.669 0 00.634-.65v-5.159a.668.668 0 00-.648-.652H680.5v-7.87c0-.546 0-1.222.552-1.7.503-.434 1.23-.494 1.936-.494l21.92.001a.666.666 0 00.635-.65V1.109a.666.666 0 00-.647-.652l-26.09.002c-1.874 0-3.793.193-5.153 1.602-.922.999-1.492 2.643-1.492 4.299v27.885c0 1.732.195 3.515 1.623 4.819 1.436 1.31 3.12 1.31 4.904 1.31l26.455.001a.668.668 0 00.636-.65v-5.162a.665.665 0 00-.644-.651M615.91.459h-7.12a.66.66 0 00-.609.61v15.915h-20.886V1.06a.665.665 0 00-.608-.601h-7.124a.66.66 0 00-.61.622v38.664c.019.339.29.608.631.626h7.083a.667.667 0 00.628-.604V23.445h20.886V39.76a.66.66 0 00.626.612h7.082a.666.666 0 00.631-.632V1.088a.663.663 0 00-.61-.63M362.136 18.599c-1.273 1.372-3.179 1.372-4.863 1.372h-14.51V9c0-.66 0-1.229.445-1.653.457-.437 1.012-.433 1.499-.428h12.686c1.071 0 3.303 0 4.635 1.27 1.243 1.24 1.388 3.563 1.388 5.198 0 .943 0 3.813-1.28 5.21zm6.64-15.707c-2.613-2.436-6.223-2.436-8.38-2.436h-19.621c-2.136 0-3.723.521-4.851 1.596-1.497 1.43-1.497 3.108-1.497 4.587v23.518h-.003v9.589c.02.333.28.599.61.625h7.123a.664.664 0 00.608-.603v-7.11h-.002v-6.226h19.048c2.454 0 4.877-.737 6.477-1.972 2.492-1.945 3.703-5.548 3.703-11.016 0-3.544-.364-7.948-3.215-10.552m112.419 36.375l-16.167-15.963c-.953-.912-2.09-2.259-2.09-3.507 0-1.061.82-1.904 1.629-2.732L479.159 1.52a.653.653 0 00.137-.403.665.665 0 00-.595-.658h-8.526a.65.65 0 00-.367.161l-12.905 14.552a11.762 11.762 0 00-1.391 1.943V1.06a.667.667 0 00-.61-.603h-7.12a.666.666 0 00-.611.624v16.036c-.348-.625-.81-1.27-1.392-1.945-.002-.001-12.87-14.515-12.907-14.552a.637.637 0 00-.364-.161h-8.53a.665.665 0 00-.593.658c0 .152.054.291.139.403l14.59 15.545c.809.828 1.634 1.671 1.634 2.732 0 1.248-1.14 2.595-2.095 3.507l-16.166 15.963a.661.661 0 00-.17.44c0 .354.276.64.62.664h8.899a.664.664 0 00.39-.16l.102-.11 13.853-14.826c.942-1.003 1.571-1.906 1.99-2.688v17.159c.02.333.28.599.61.625h7.122a.665.665 0 00.609-.603V22.59c.419.783 1.048 1.684 1.988 2.686L471.355 40.1l.104.11a.653.653 0 00.388.16h8.896a.667.667 0 00.621-.664.661.661 0 00-.17-.44m26.359-31.441s.476-1.356 1.083-1.356c.63 0 1.093 1.359 1.093 1.359l10.522 26.084h-23.232l10.534-26.087zm23.871 26.087h-3.247L515.96 4.615c-1.542-3.403-3.568-4.608-7.323-4.608-3.85 0-5.73 1.118-7.31 4.608L489.1 33.91l-3.248.001c-.36.01-.65.3-.657.652v5.157a.67.67 0 00.645.65h45.596a.67.67 0 00.645-.65v-5.158a.672.672 0 00-.657-.651M324.637 22.076c-.932-.992-2.257-1.677-3.72-1.992 1.179-.276 2.144-.885 3.082-1.957 1.86-2.119 2.012-4.327 2.012-6.594 0-2.582-.276-6.285-2.678-8.634-2.208-2.163-5.264-2.44-7.68-2.44h-22.556a.669.669 0 00-.646.65v5.16c.01.35.288.632.634.651h19.447c1.279 0 2.601 0 3.643.939 1.118 1.018 1.261 2.681 1.261 4.01 0 2.502-.51 3.456-.815 3.806-.989 1.309-2.536 1.309-4.032 1.309h-15.074a.668.668 0 00-.646.653v5.158a.668.668 0 00.635.652l15.793.001c2.439 0 3.528.95 3.96 1.517.54.754.827 2.079.827 3.826 0 1.218-.17 2.872-.992 3.81-1.143 1.31-3.29 1.31-4.324 1.31l-19.904.001a.66.66 0 00-.644.648v5.161a.66.66 0 00.632.65h23.625c2.611 0 5.31 0 7.75-2.619 2.433-2.61 2.433-5.848 2.433-8.453 0-2.16 0-5.116-2.023-7.223" fill="#13366d"/></svg>