<svg xmlns="http://www.w3.org/2000/svg" width="780" height="501"><g transform="translate(14 15)" fill="none" fill-rule="evenodd"><rect x="1" width="750" height="471" rx="40" fill="#2557d6" stroke="#2557d6" stroke-width="30"/><path d="M-13.997 215.14h37.465l8.448-20.29h18.912l8.424 20.29h73.715v-15.512l6.581 15.58h38.268l6.58-15.812v15.744H367.59l-.083-33.307h3.543c2.482.085 3.206.312 3.206 4.394v28.912h94.75v-7.753c7.645 4.076 19.532 7.753 35.173 7.753h39.86l8.53-20.29h18.913l8.34 20.29h76.815v-19.273l11.634 19.273h61.555V87.733h-60.918v15.046l-8.53-15.046h-62.51v15.046l-7.833-15.046H505.6c-14.134 0-26.557 1.965-36.593 7.439v-7.437H410.74v7.439c-6.386-5.642-15.089-7.438-24.765-7.438H173.104l-14.283 32.905-14.668-32.905h-67.05v15.047l-7.365-15.047H12.555L-14 148.309v66.83h.003zm236.492-18.377h-22.48l-.083-71.546-31.796 71.546h-19.251l-31.878-71.608v71.608h-44.6l-8.424-20.376H18.327l-8.511 20.375H-14l39.266-91.35h32.58l37.294 86.49v-86.49h35.786l28.698 61.971 26.36-61.97h36.509v91.35h.003zM56.487 157.427L41.48 121.01l-14.924 36.417h29.93zm255.467 39.333h-73.251v-91.35h73.25v19.022H260.63V140.9h50.093v18.726h-50.09v18.243h51.324v18.893zm103.225-66.747c0 14.565-9.761 22.09-15.45 24.35 4.797 1.817 8.894 5.03 10.845 7.692 3.096 4.545 3.63 8.601 3.63 16.76v17.945h-22.116l-.083-11.52c0-5.496.528-13.401-3.461-17.797-3.203-3.213-8.088-3.91-15.983-3.91h-23.538v33.228h-21.924V105.41h50.436c11.205 0 19.462.294 26.55 4.375 6.937 4.08 11.097 10.038 11.097 20.228zm-27.718 13.565c-3.014 1.822-6.577 1.882-10.847 1.882H349.98v-20.29h27c3.821 0 7.808.17 10.398 1.647 2.844 1.331 4.604 4.163 4.604 8.076 0 3.993-1.674 7.207-4.518 8.684zm62.885 53.183H427.97v-91.35h22.374v91.35zm259.73 0H679l-41.563-68.564v68.564H592.78l-8.532-20.376h-45.552l-8.279 20.376h-25.656c-10.66 0-24.154-2.347-31.796-10.104-7.707-7.758-11.717-18.262-11.717-34.875 0-13.548 2.396-25.933 11.82-35.72 7.09-7.291 18.19-10.653 33.302-10.653h21.228v19.572h-20.783c-8.002 0-12.522 1.186-16.873 5.413-3.738 3.848-6.303 11.12-6.303 20.693 0 9.787 1.953 16.844 6.03 21.454 3.375 3.615 9.51 4.71 15.282 4.71h9.849l30.903-71.838h32.856l37.124 86.403v-86.403h33.387l38.545 63.62v-63.618h22.46v91.347zm-133.287-39.333l-15.174-36.418-15.09 36.417h30.264zm189.164 185.197c-5.325 7.756-15.704 11.69-29.754 11.69H693.85V334.72h42.176c4.183 0 7.11-.55 8.873-2.263a8.009 8.009 0 002.593-5.96c0-2.662-1.065-4.773-2.678-6.042-1.591-1.393-3.907-2.028-7.727-2.028-20.588-.696-46.274.635-46.274-28.28 0-13.253 8.45-27.204 31.46-27.204h43.678v-18.179h-40.58c-12.248 0-21.144 2.92-27.444 7.461v-7.462h-60.025c-9.599 0-20.865 2.37-26.194 7.461v-7.462H504.52v7.461c-8.53-6.128-22.924-7.462-29.567-7.462H404.25v7.461c-6.75-6.508-21.757-7.462-30.905-7.462h-79.128l-18.106 19.513-16.96-19.514H140.95v127.494h115.978l18.657-19.82 17.576 19.822 71.49.062v-29.991h7.026c9.485.145 20.673-.236 30.543-4.483v34.408h58.966v-33.23h2.844c3.63 0 3.987.148 3.987 3.76v29.466h179.122c11.373 0 23.26-2.898 29.843-8.158v8.16H733.8c11.824 0 23.368-1.651 32.154-5.877V342.62zm-355.162-49.04c0 25.382-19.018 30.623-38.185 30.623h-27.36v30.648h-42.618l-27.002-30.249-28.06 30.248H160.71v-91.374h88.192l26.978 29.952 27.893-29.952h70.064c17.403 0 36.955 4.799 36.955 30.104zm-174.33 42.051h-53.914v-18.179h48.142v-18.644h-48.142v-16.612h54.975l23.985 26.628-25.045 26.808zm86.867 10.463l-33.665-37.22 33.665-36.038V346.1zm49.788-40.629h-28.337v-23.268h28.591c7.917 0 13.412 3.214 13.412 11.204 0 7.902-5.241 12.064-13.665 12.064zm148.452-41.986h73.185v18.897h-51.347v16.612H593.5v18.643h-50.094v18.18l51.347.082v18.96h-73.185v-91.374zm-28.135 48.911c4.88 1.793 8.871 5.009 10.743 7.67 3.095 4.462 3.543 8.625 3.632 16.679v18.113H485.79v-11.431c0-5.498.533-13.637-3.543-17.886-3.203-3.273-8.088-4.056-16.087-4.056h-23.434v33.373h-22.034v-91.374h50.625c11.101 0 19.186.489 26.385 4.313 6.92 4.164 11.272 9.868 11.272 20.29-.003 14.585-9.771 22.028-15.543 24.308zm-12.394-11.554c-2.932 1.734-6.562 1.882-10.828 1.882h-26.638v-20.522h27c3.905 0 7.811.083 10.465 1.65 2.84 1.48 4.54 4.31 4.54 8.22 0 3.91-1.7 7.06-4.54 8.77zm197.948 5.82c4.27 4.4 6.559 9.956 6.559 19.36 0 19.657-12.332 28.832-34.445 28.832h-42.709V335.26h42.536c4.16 0 7.11-.548 8.958-2.262 1.508-1.415 2.59-3.468 2.59-5.96 0-2.662-1.17-4.776-2.676-6.042-1.677-1.396-3.99-2.028-7.809-2.028-20.505-.699-46.186.632-46.186-28.282 0-13.253 8.361-27.204 31.35-27.204h43.96v19.448h-40.228c-3.987 0-6.58.149-8.785 1.65-2.402 1.48-3.292 3.676-3.292 6.573 0 3.448 2.038 5.793 4.796 6.807 2.313.801 4.798 1.036 8.533 1.036l11.804.317c11.904.291 20.075 2.34 25.041 7.35zM766 282.202h-39.964c-3.99 0-6.64.149-8.873 1.65-2.312 1.48-3.204 3.676-3.204 6.575 0 3.447 1.954 5.793 4.795 6.806 2.314.801 4.798 1.036 8.45 1.036l11.885.316c11.991.296 19.997 2.348 24.877 7.355.89.697 1.425 1.479 2.035 2.262v-26z" fill="#fff"/></g></svg>