<svg xmlns="http://www.w3.org/2000/svg" width="780" height="501"><g fill="none" fill-rule="evenodd"><rect x="15" y="15" width="750" height="471" rx="40" fill="#000" stroke="#000" stroke-width="30"/><path d="M461.561 331.965H325.946V88.248H461.56v243.717z" fill="#6c6bbd" fill-rule="nonzero"/><path d="M334.554 210.111c0-49.439 23.147-93.478 59.195-121.858-26.36-20.754-59.629-33.14-95.785-33.14-85.594 0-154.979 69.394-154.979 154.998 0 85.605 69.385 155 154.98 155 36.155 0 69.423-12.388 95.784-33.14-36.048-28.381-59.195-72.42-59.195-121.86" fill="#eb001b" fill-rule="nonzero"/><path d="M644.52 210.111c0 85.605-69.384 155-154.979 155-36.155 0-69.423-12.388-95.794-33.14 36.057-28.381 59.205-72.42 59.205-121.86 0-49.439-23.148-93.478-59.205-121.858 26.37-20.754 59.639-33.14 95.794-33.14 85.595 0 154.98 69.394 154.98 154.998" fill="#0099df" fill-rule="nonzero"/><path d="M507.446 400.832c1.803 0 4.395.345 6.376 1.124l-2.76 8.435c-1.891-.779-3.784-1.035-5.597-1.035-5.853 0-8.78 3.784-8.78 10.584v23.079h-8.958v-41.152h8.87v4.996c2.325-3.616 5.685-6.03 10.849-6.03m-33.09 9.213H459.72v18.595c0 4.13 1.459 6.888 5.943 6.888 2.325 0 5.252-.778 7.913-2.325l2.581 7.657c-2.838 1.98-7.311 3.192-11.184 3.192-10.594 0-14.289-5.686-14.289-15.244v-18.763h-8.356v-8.18h8.356v-12.485h9.036v12.486h14.634v8.179zm-114.597 8.78c.956-5.942 4.563-9.992 10.938-9.992 5.765 0 9.47 3.616 10.416 9.992H359.76zm30.657 3.617c-.089-12.83-8.012-21.61-19.551-21.61-12.052 0-20.487 8.78-20.487 21.61 0 13.076 8.78 21.6 21.098 21.6 6.198 0 11.874-1.547 16.87-5.764l-4.395-6.632c-3.439 2.759-7.834 4.306-11.963 4.306-5.764 0-11.017-2.67-12.308-10.071h30.559c.088-1.123.177-2.237.177-3.44m39.338-10.07c-2.493-1.557-7.568-3.538-12.82-3.538-4.908 0-7.834 1.813-7.834 4.829 0 2.749 3.094 3.527 6.967 4.04l4.217.601c8.958 1.3 14.378 5.085 14.378 12.318 0 7.834-6.888 13.431-18.763 13.431-6.72 0-12.919-1.724-17.826-5.34l4.217-6.978c3.016 2.326 7.5 4.307 13.698 4.307 6.11 0 9.381-1.804 9.381-4.996 0-2.316-2.325-3.617-7.233-4.297l-4.217-.601c-9.214-1.3-14.21-5.43-14.21-12.14 0-8.18 6.72-13.176 17.136-13.176 6.544 0 12.486 1.469 16.782 4.307l-3.873 7.233zm110.418-3.035c-1.842 0-3.547.325-5.134.965-1.577.65-2.946 1.557-4.1 2.72-1.152 1.163-2.059 2.562-2.719 4.188-.66 1.626-.985 3.42-.985 5.37 0 1.962.325 3.745.985 5.371.66 1.626 1.567 3.026 2.72 4.188 1.153 1.163 2.522 2.07 4.1 2.72 1.586.65 3.29.966 5.133.966s3.558-.315 5.134-.966c1.587-.65 2.967-1.557 4.12-2.72 1.172-1.162 2.079-2.562 2.749-4.188.66-1.626.985-3.41.985-5.37 0-1.951-.325-3.745-.985-5.37-.67-1.627-1.577-3.026-2.75-4.189-1.152-1.163-2.532-2.07-4.119-2.72-1.576-.64-3.291-.965-5.134-.965m0-8.505c3.193 0 6.15.552 8.87 1.666 2.719 1.103 5.074 2.63 7.055 4.572 1.99 1.941 3.538 4.237 4.661 6.878 1.123 2.651 1.685 5.529 1.685 8.633 0 3.104-.562 5.981-1.685 8.632-1.123 2.641-2.67 4.947-4.661 6.888-1.98 1.942-4.336 3.46-7.056 4.573-2.72 1.103-5.676 1.655-8.869 1.655-3.193 0-6.149-.552-8.869-1.655-2.72-1.114-5.055-2.631-7.026-4.573-1.97-1.941-3.518-4.247-4.641-6.888-1.124-2.65-1.685-5.528-1.685-8.632s.561-5.982 1.685-8.633c1.123-2.64 2.67-4.937 4.641-6.878 1.971-1.941 4.307-3.469 7.026-4.572 2.72-1.114 5.676-1.666 8.87-1.666m-232.72 21.61c0-7.232 4.74-13.174 12.485-13.174 7.4 0 12.396 5.685 12.396 13.175 0 7.49-4.996 13.165-12.396 13.165-7.746 0-12.486-5.932-12.486-13.165m33.318 0v-20.576h-8.948v4.996c-2.848-3.705-7.144-6.03-12.998-6.03-11.54 0-20.576 9.036-20.576 21.61 0 12.564 9.037 21.61 20.576 21.61 5.854 0 10.15-2.325 12.998-6.03v4.996h8.948v-20.576zm-50.445 20.576V417.19c0-9.726-6.198-16.27-16.18-16.358-5.253-.088-10.683 1.547-14.467 7.322-2.838-4.563-7.321-7.322-13.608-7.322-4.386 0-8.692 1.291-12.052 6.11v-5.075h-8.948v41.152h9.036v-22.813c0-7.145 3.962-10.938 10.072-10.938 5.942 0 8.957 3.872 8.957 10.85v22.9h9.037v-22.812c0-7.145 4.138-10.938 10.07-10.938 6.12 0 9.047 3.872 9.047 10.85v22.9h9.036z" fill-rule="nonzero" fill="#fff"/></g></svg>