<svg xmlns="http://www.w3.org/2000/svg" width="780" height="501"><g fill="none" fill-rule="evenodd"><rect stroke="#fff" stroke-width="30" x="15" y="15" width="750" height="471" rx="40"/><g stroke="#fff" stroke-width="29.998"><path d="M340.43 211.453c0-44.462 20.817-84.066 53.234-109.59-23.706-18.663-53.624-29.802-86.14-29.802-76.975 0-139.373 62.407-139.373 139.392 0 76.984 62.398 139.391 139.374 139.391 32.515 0 62.433-11.14 86.14-29.803-32.418-25.523-53.235-65.127-53.235-109.588"/><path d="M619.186 211.453c0 76.984-62.398 139.391-139.374 139.391-32.515 0-62.433-11.14-86.148-29.803 32.426-25.523 53.243-65.127 53.243-109.588 0-44.462-20.817-84.066-53.243-109.59 23.715-18.663 53.633-29.802 86.148-29.802 76.976 0 139.374 62.407 139.374 139.392"/></g><path d="M507.446 400.832c1.803 0 4.395.345 6.376 1.123l-2.76 8.436c-1.891-.779-3.783-1.035-5.597-1.035-5.853 0-8.78 3.784-8.78 10.584v23.078h-8.957v-41.151h8.868v4.996c2.326-3.617 5.686-6.031 10.85-6.031m-33.09 9.214H459.72v18.595c0 4.129 1.459 6.888 5.943 6.888 2.325 0 5.252-.778 7.913-2.326l2.582 7.657c-2.839 1.981-7.312 3.193-11.185 3.193-10.594 0-14.289-5.686-14.289-15.245v-18.762h-8.356v-8.18h8.356v-12.485h9.036v12.486h14.634v8.179zm-114.597 8.78c.956-5.942 4.563-9.992 10.938-9.992 5.765 0 9.47 3.616 10.416 9.992H359.76zm30.657 3.617c-.089-12.83-8.012-21.611-19.551-21.611-12.052 0-20.487 8.78-20.487 21.61 0 13.077 8.78 21.601 21.098 21.601 6.198 0 11.874-1.547 16.87-5.765l-4.395-6.632c-3.439 2.76-7.834 4.307-11.963 4.307-5.764 0-11.017-2.67-12.308-10.071h30.559c.088-1.124.177-2.237.177-3.44m39.338-10.07c-2.493-1.558-7.568-3.538-12.82-3.538-4.908 0-7.834 1.813-7.834 4.828 0 2.75 3.094 3.528 6.967 4.04l4.217.602c8.958 1.3 14.378 5.085 14.378 12.318 0 7.834-6.888 13.431-18.763 13.431-6.72 0-12.919-1.724-17.826-5.341l4.217-6.977c3.016 2.326 7.5 4.307 13.698 4.307 6.11 0 9.381-1.804 9.381-4.997 0-2.315-2.325-3.616-7.233-4.296l-4.217-.601c-9.214-1.301-14.21-5.43-14.21-12.14 0-8.18 6.72-13.176 17.136-13.176 6.544 0 12.486 1.468 16.782 4.306l-3.873 7.233zm110.418-3.036c-1.842 0-3.547.325-5.134.966-1.577.65-2.946 1.557-4.1 2.72-1.152 1.163-2.059 2.562-2.719 4.188-.66 1.626-.985 3.42-.985 5.37 0 1.961.325 3.745.985 5.371.66 1.626 1.567 3.025 2.72 4.188 1.153 1.163 2.522 2.07 4.1 2.72 1.586.65 3.29.966 5.133.966s3.558-.316 5.134-.966c1.587-.65 2.967-1.557 4.12-2.72 1.172-1.163 2.079-2.562 2.749-4.188.66-1.626.985-3.41.985-5.37 0-1.952-.325-3.745-.985-5.371-.67-1.626-1.577-3.025-2.75-4.188-1.152-1.163-2.532-2.07-4.119-2.72-1.576-.64-3.29-.966-5.134-.966m0-8.504c3.193 0 6.15.552 8.87 1.665 2.719 1.104 5.074 2.631 7.055 4.573 1.99 1.941 3.538 4.237 4.661 6.878 1.123 2.65 1.685 5.528 1.685 8.632 0 3.105-.562 5.982-1.685 8.633-1.123 2.64-2.67 4.947-4.661 6.888-1.98 1.941-4.336 3.459-7.056 4.572-2.72 1.104-5.676 1.656-8.869 1.656-3.193 0-6.149-.552-8.869-1.656-2.72-1.113-5.055-2.63-7.026-4.572-1.97-1.941-3.518-4.247-4.641-6.888-1.124-2.65-1.685-5.528-1.685-8.633 0-3.104.561-5.981 1.685-8.632 1.123-2.64 2.67-4.937 4.641-6.878 1.971-1.942 4.307-3.469 7.026-4.573 2.72-1.113 5.676-1.665 8.87-1.665m-232.72 21.61c0-7.233 4.74-13.175 12.485-13.175 7.4 0 12.396 5.686 12.396 13.176 0 7.489-4.996 13.165-12.396 13.165-7.746 0-12.486-5.932-12.486-13.165m33.318 0v-20.576h-8.948v4.996c-2.848-3.705-7.144-6.031-12.998-6.031-11.54 0-20.576 9.036-20.576 21.61 0 12.565 9.037 21.611 20.576 21.611 5.854 0 10.15-2.326 12.998-6.03v4.995h8.948v-20.575zm-50.445 20.575V417.19c0-9.726-6.198-16.27-16.18-16.358-5.253-.089-10.683 1.547-14.467 7.322-2.838-4.563-7.321-7.322-13.608-7.322-4.386 0-8.692 1.29-12.052 6.11v-5.075h-8.948v41.151h9.036v-22.812c0-7.145 3.962-10.939 10.072-10.939 5.942 0 8.957 3.873 8.957 10.85v22.901h9.037v-22.812c0-7.145 4.138-10.939 10.07-10.939 6.12 0 9.047 3.873 9.047 10.85v22.901h9.036z" fill-rule="nonzero" fill="#fff"/></g></svg>