<svg xmlns="http://www.w3.org/2000/svg" width="780" height="501"><g fill="none" fill-rule="evenodd"><rect stroke="#fff" stroke-width="30" x="15" y="15" width="750" height="471" rx="40"/><path d="M251.258 423.807c0-7.233 4.74-13.175 12.486-13.175 7.4 0 12.396 5.686 12.396 13.175 0 7.49-4.996 13.175-12.396 13.175-7.746 0-12.486-5.942-12.486-13.175m33.318 0v-20.576h-8.948v4.996c-2.838-3.705-7.144-6.03-12.998-6.03-11.54 0-20.586 9.046-20.586 21.61 0 12.574 9.047 21.61 20.586 21.61 5.854 0 10.16-2.325 12.998-6.03v4.996h8.948zm302.37 0c0-7.233 4.74-13.175 12.485-13.175 7.41 0 12.397 5.686 12.397 13.175 0 7.49-4.986 13.175-12.397 13.175-7.745 0-12.485-5.942-12.485-13.175m33.327 0v-37.101h-8.958v21.521c-2.838-3.705-7.144-6.03-12.997-6.03-11.54 0-20.586 9.046-20.586 21.61 0 12.574 9.046 21.61 20.586 21.61 5.853 0 10.16-2.325 12.997-6.03v4.996h8.958zm-224.63-13.599c5.765 0 9.47 3.617 10.417 9.983h-21.355c.956-5.943 4.563-9.983 10.939-9.983m.179-8.011c-12.062 0-20.497 8.78-20.497 21.61 0 13.087 8.78 21.61 21.098 21.61 6.198 0 11.874-1.547 16.87-5.764l-4.385-6.632c-3.45 2.75-7.844 4.306-11.973 4.306-5.765 0-11.017-2.67-12.308-10.08h30.558c.09-1.114.179-2.238.179-3.44-.09-12.83-8.012-21.61-19.541-21.61m108.043 21.61c0-7.233 4.74-13.175 12.485-13.175 7.4 0 12.397 5.686 12.397 13.175 0 7.49-4.996 13.175-12.397 13.175-7.745 0-12.485-5.942-12.485-13.175m33.317 0v-20.576h-8.948v4.996c-2.847-3.705-7.144-6.03-12.997-6.03-11.54 0-20.586 9.046-20.586 21.61 0 12.574 9.046 21.61 20.586 21.61 5.853 0 10.15-2.325 12.997-6.03v4.996h8.948zm-83.85 0c0 12.486 8.691 21.61 21.955 21.61 6.199 0 10.328-1.38 14.801-4.907l-4.297-7.233c-3.36 2.414-6.888 3.705-10.77 3.705-7.145-.089-12.397-5.252-12.397-13.175 0-7.923 5.252-13.086 12.396-13.175 3.883 0 7.41 1.29 10.771 3.705l4.297-7.233c-4.474-3.528-8.603-4.907-14.802-4.907-13.263 0-21.955 9.125-21.955 21.61m115.365-21.61c-5.164 0-8.524 2.414-10.85 6.03v-4.996h-8.869v41.152h8.958v-23.07c0-6.808 2.926-10.592 8.78-10.592 1.813 0 3.705.256 5.597 1.034l2.76-8.435c-1.981-.778-4.563-1.123-6.376-1.123m-239.865 4.306c-4.306-2.838-10.238-4.306-16.781-4.306-10.426 0-17.137 4.996-17.137 13.175 0 6.71 4.996 10.85 14.2 12.14l4.227.602c4.908.69 7.224 1.98 7.224 4.306 0 3.183-3.272 4.996-9.382 4.996-6.198 0-10.672-1.98-13.687-4.306l-4.218 6.967c4.908 3.616 11.106 5.34 17.817 5.34 11.884 0 18.772-5.597 18.772-13.43 0-7.234-5.42-11.018-14.377-12.309l-4.218-.61c-3.873-.513-6.977-1.282-6.977-4.04 0-3.016 2.927-4.82 7.834-4.82 5.253 0 10.338 1.98 12.83 3.528zm115.454-4.306c-5.164 0-8.524 2.414-10.84 6.03v-4.996h-8.869v41.152h8.948v-23.07c0-6.808 2.927-10.592 8.78-10.592 1.813 0 3.705.256 5.597 1.034l2.76-8.435c-1.981-.778-4.563-1.123-6.376-1.123m-76.361 1.034h-14.634v-12.485h-9.046v12.485h-8.347v8.18h8.347v18.772c0 9.549 3.705 15.235 14.288 15.235 3.883 0 8.357-1.203 11.195-3.183l-2.582-7.667c-2.67 1.547-5.597 2.326-7.923 2.326-4.474 0-5.932-2.76-5.932-6.888V411.41h14.634zm-133.793 41.152v-25.828c0-9.726-6.198-16.27-16.19-16.358-5.253-.09-10.672 1.547-14.466 7.321-2.838-4.562-7.312-7.321-13.6-7.321-4.394 0-8.69 1.29-12.051 6.11v-5.076h-8.958v41.152h9.037V421.57c0-7.144 3.961-10.938 10.08-10.938 5.943 0 8.948 3.873 8.948 10.85v22.901h9.047V421.57c0-7.144 4.129-10.938 10.07-10.938 6.11 0 9.037 3.873 9.037 10.85v22.901z" fill-rule="nonzero" fill="#fff"/><g stroke="#fff" stroke-width="29.998"><path d="M340.43 211.453c0-44.462 20.817-84.066 53.234-109.59-23.706-18.663-53.624-29.802-86.14-29.802-76.975 0-139.373 62.407-139.373 139.392 0 76.984 62.398 139.391 139.374 139.391 32.515 0 62.433-11.14 86.14-29.803-32.418-25.523-53.235-65.127-53.235-109.588"/><path d="M619.186 211.453c0 76.984-62.398 139.391-139.374 139.391-32.515 0-62.433-11.14-86.148-29.803 32.426-25.523 53.243-65.127 53.243-109.588 0-44.462-20.817-84.066-53.243-109.59 23.715-18.663 53.633-29.802 86.148-29.802 76.976 0 139.374 62.407 139.374 139.392"/></g></g></svg>